<svg width="16" height="16" viewBox="0 0 16 16" fill="none" xmlns="http://www.w3.org/2000/svg">
<path d="M11.6781 8.37031C11.6719 7.30469 12.1547 6.50156 13.1297 5.90938C12.5844 5.12813 11.7594 4.69844 10.6719 4.61562C9.64219 4.53437 8.51562 5.21562 8.10312 5.21562C7.66719 5.21562 6.67031 4.64375 5.88594 4.64375C4.26719 4.66875 2.54688 5.93437 2.54688 8.50937C2.54688 9.27031 2.68594 10.0563 2.96406 10.8656C3.33594 11.9313 4.67656 14.5422 6.075 14.5C6.80625 14.4828 7.32344 13.9812 8.275 13.9812C9.19844 13.9812 9.67656 14.5 10.4922 14.5C11.9031 14.4797 13.1156 12.1063 13.4688 11.0375C11.5766 10.1453 11.6781 8.425 11.6781 8.37031V8.37031ZM10.0359 3.60469C10.8281 2.66406 10.7563 1.80781 10.7328 1.5C10.0328 1.54062 9.22344 1.97656 8.7625 2.5125C8.25469 3.0875 7.95625 3.79844 8.02031 4.6C8.77656 4.65781 9.46719 4.26875 10.0359 3.60469V3.60469Z" fill="white"/>
</svg>
