<svg width="128" height="137" viewBox="0 0 128 137" fill="none" xmlns="http://www.w3.org/2000/svg">
<path d="M94.4065 89.4375C110.637 80.526 122.94 73.7355 124.001 73.2075C127.393 71.4035 130.897 66.6285 124.001 62.9195C121.774 61.753 109.787 55.174 94.4065 46.6895L73.0855 68.222L94.4065 89.437V89.4375Z" fill="#FFD900"/>
<path d="M73.0855 68.222L5.19699 136.643C6.79049 136.854 8.58949 136.432 10.7105 135.266C15.1635 132.828 62.3695 107.049 94.4065 89.4425L73.0855 68.222Z" fill="#F43249"/>
<path d="M73.0855 68.222L94.4065 46.7955C94.4065 46.7955 15.4855 3.725 10.7105 1.1825C8.91149 0.116996 6.89549 -0.199504 5.09149 0.116996L73.0855 68.222V68.222Z" fill="#00EE76"/>
<path d="M73.0855 68.222L5.0915 0.117004C2.332 0.755004 0 3.193 0 8.179V128.581C0 133.145 1.8045 136.432 5.197 136.749L73.0855 68.222Z" fill="#00D3FF"/>
</svg>
