<svg id="Object" xmlns="http://www.w3.org/2000/svg" viewBox="0 0 459.79 550"><defs><style>.cls-1{fill:#72716f;}.cls-2{fill:#f2cb30;}.cls-3{fill:#eab531;}.cls-4{fill:#58595a;}.cls-5{fill:#f7db5e;}.cls-6{fill:#3e3d40;}</style></defs><path class="cls-1" d="M722.54,595.2H677.88V447.54a116.88,116.88,0,1,0-233.76,0V595.2H399.46V447.54C399.46,358.47,471.93,286,561,286s161.54,72.47,161.54,161.54Z" transform="translate(-331.11 -286)"/><rect class="cls-2" y="239.13" width="459.79" height="310.87" rx="17.32"/><path class="cls-3" d="M790.89,818.68V649.43c-140.07,118.5-342,163-456.47,179.37a17.28,17.28,0,0,0,14,7.2H773.58A17.31,17.31,0,0,0,790.89,818.68Z" transform="translate(-331.11 -286)"/><path class="cls-4" d="M599,633.75a38,38,0,1,0-60.59,30.49l-12.1,85.92h69.38l-12.1-85.92A37.89,37.89,0,0,0,599,633.75Z" transform="translate(-331.11 -286)"/><path class="cls-5" d="M345.6,557.89v59.48c1.58-25.26,13.73-80.22,89.77-80.22h-69A20.8,20.8,0,0,0,345.6,557.89Z" transform="translate(-331.11 -286)"/><path class="cls-6" d="M526.31,750.16s51.49-14.55,57.28-85.92l12.1,85.92Z" transform="translate(-331.11 -286)"/></svg>