<svg width="366" height="95" viewBox="0 0 366 95" fill="none" xmlns="http://www.w3.org/2000/svg">
<g clip-path="url(#clip0)">
<path d="M87.0811 33.6972C86.7965 33.3722 86.4479 33.1095 86.0571 32.9254C85.6663 32.7413 85.2417 32.6398 84.8099 32.6274C78.1014 32.452 69.6128 25.2788 64.0005 22.4638C60.5337 20.7305 58.2449 19.5875 56.5262 19.2865C56.1772 19.2356 55.8226 19.2366 55.4739 19.2894C53.7551 19.5905 51.4663 20.7334 48.0025 22.4668C42.3902 25.2788 33.9015 32.452 27.1931 32.6274C26.761 32.6405 26.3361 32.7422 25.945 32.9262C25.5538 33.1103 25.2045 33.3727 24.9189 33.6972C24.3269 34.367 24.0215 35.2424 24.0683 36.1351C25.5094 65.4331 36.0179 83.5649 54.4566 94.1026C54.936 94.3745 55.468 94.5148 55.9971 94.5148C56.5262 94.5148 57.0582 94.3745 57.5405 94.1026C75.9792 83.5649 86.4848 65.4331 87.9288 36.1351C87.9783 35.2425 87.6737 34.3665 87.0811 33.6972V33.6972ZM72.4189 45.22L56.8594 68.1808C56.3011 69.0051 55.4242 69.5517 54.556 69.5517C53.6849 69.5517 52.7174 69.0752 52.1065 68.4643L41.1391 57.494C40.781 57.1346 40.58 56.6479 40.58 56.1406C40.58 55.6333 40.781 55.1466 41.1391 54.7872L43.8488 52.0717C44.2089 51.715 44.6953 51.515 45.2022 51.515C45.709 51.515 46.1954 51.715 46.5555 52.0717L53.6879 59.204L66.0788 40.9143C66.3655 40.4958 66.8061 40.2077 67.3045 40.1129C67.8029 40.0182 68.3185 40.1245 68.7388 40.4086L71.9103 42.56C72.3293 42.8462 72.618 43.2867 72.7133 43.7851C72.8086 44.2835 72.7028 44.7994 72.4189 45.22V45.22Z" fill="#CC5151"/>
</g>
<path d="M24 77V65.5" stroke="#CC5151" stroke-width="2"/>
<circle cx="24" cy="65" r="3" fill="#CC5151"/>
<path d="M38 78H17.5" stroke="#CC5151" stroke-width="2"/>
<circle cx="16" cy="78" r="4" transform="rotate(-90 16 78)" fill="#CC5151"/>
<path d="M50 89H26" stroke="#CC5151" stroke-width="2"/>
<circle cx="24" cy="89" r="4" transform="rotate(-90 24 89)" fill="#CC5151"/>
<path d="M56 20V7" stroke="#CC5151" stroke-width="2"/>
<circle cx="56" cy="4" r="4" fill="#CC5151"/>
<path d="M18 37V16.5" stroke="#CC5151" stroke-width="2"/>
<circle cx="18" cy="17" r="3" fill="#CC5151"/>
<path d="M55 19H34.5" stroke="#CC5151" stroke-width="2"/>
<circle cx="33" cy="19" r="3" transform="rotate(-90 33 19)" fill="#CC5151"/>
<path d="M26 37H5.5" stroke="#CC5151" stroke-width="2"/>
<circle cx="4" cy="37" r="4" transform="rotate(-90 4 37)" fill="#CC5151"/>
<path d="M29 55H8.5" stroke="#CC5151" stroke-width="2"/>
<circle cx="7" cy="55" r="4" transform="rotate(-90 7 55)" fill="#CC5151"/>
<path d="M145.136 36.304V70H136.928V49.792L129.392 70H122.768L115.184 49.744V70H106.976V36.304H116.672L126.128 59.632L135.488 36.304H145.136ZM178.399 43.216L161.599 82.72H152.767L158.911 69.088L148.014 43.216H157.183L163.375 59.968L169.519 43.216H178.399ZM207.047 47.152C207.047 49.104 206.599 50.896 205.703 52.528C204.807 54.128 203.431 55.424 201.575 56.416C199.719 57.408 197.415 57.904 194.663 57.904H189.575V70H181.367V36.304H194.663C197.351 36.304 199.623 36.768 201.479 37.696C203.335 38.624 204.727 39.904 205.655 41.536C206.583 43.168 207.047 45.04 207.047 47.152ZM194.039 51.376C195.607 51.376 196.775 51.008 197.543 50.272C198.311 49.536 198.695 48.496 198.695 47.152C198.695 45.808 198.311 44.768 197.543 44.032C196.775 43.296 195.607 42.928 194.039 42.928H189.575V51.376H194.039ZM219.528 47.68C220.488 46.208 221.688 45.056 223.128 44.224C224.568 43.36 226.168 42.928 227.928 42.928V51.616H225.672C223.624 51.616 222.088 52.064 221.064 52.96C220.04 53.824 219.528 55.36 219.528 57.568V70H211.32V43.216H219.528V47.68ZM235.979 40.432C234.539 40.432 233.355 40.016 232.427 39.184C231.531 38.32 231.083 37.264 231.083 36.016C231.083 34.736 231.531 33.68 232.427 32.848C233.355 31.984 234.539 31.552 235.979 31.552C237.387 31.552 238.539 31.984 239.435 32.848C240.363 33.68 240.827 34.736 240.827 36.016C240.827 37.264 240.363 38.32 239.435 39.184C238.539 40.016 237.387 40.432 235.979 40.432ZM240.059 43.216V70H231.851V43.216H240.059ZM258.055 62.32L263.863 43.216H272.599L263.095 70H252.967L243.463 43.216H252.247L258.055 62.32ZM274.422 56.56C274.422 53.808 274.934 51.392 275.958 49.312C277.014 47.232 278.438 45.632 280.23 44.512C282.022 43.392 284.022 42.832 286.23 42.832C288.118 42.832 289.766 43.216 291.174 43.984C292.614 44.752 293.718 45.76 294.486 47.008V43.216H302.694V70H294.486V66.208C293.686 67.456 292.566 68.464 291.126 69.232C289.718 70 288.07 70.384 286.182 70.384C284.006 70.384 282.022 69.824 280.23 68.704C278.438 67.552 277.014 65.936 275.958 63.856C274.934 61.744 274.422 59.312 274.422 56.56ZM294.486 56.608C294.486 54.56 293.91 52.944 292.758 51.76C291.638 50.576 290.262 49.984 288.63 49.984C286.998 49.984 285.606 50.576 284.454 51.76C283.334 52.912 282.774 54.512 282.774 56.56C282.774 58.608 283.334 60.24 284.454 61.456C285.606 62.64 286.998 63.232 288.63 63.232C290.262 63.232 291.638 62.64 292.758 61.456C293.91 60.272 294.486 58.656 294.486 56.608ZM307 56.608C307 53.824 307.56 51.392 308.68 49.312C309.832 47.232 311.416 45.632 313.432 44.512C315.48 43.392 317.816 42.832 320.44 42.832C323.8 42.832 326.6 43.712 328.84 45.472C331.112 47.232 332.6 49.712 333.304 52.912H324.568C323.832 50.864 322.408 49.84 320.296 49.84C318.792 49.84 317.592 50.432 316.696 51.616C315.8 52.768 315.352 54.432 315.352 56.608C315.352 58.784 315.8 60.464 316.696 61.648C317.592 62.8 318.792 63.376 320.296 63.376C322.408 63.376 323.832 62.352 324.568 60.304H333.304C332.6 63.44 331.112 65.904 328.84 67.696C326.568 69.488 323.768 70.384 320.44 70.384C317.816 70.384 315.48 69.824 313.432 68.704C311.416 67.584 309.832 65.984 308.68 63.904C307.56 61.824 307 59.392 307 56.608ZM365.055 43.216L348.255 82.72H339.423L345.567 69.088L334.671 43.216H343.839L350.031 59.968L356.175 43.216H365.055Z" fill="#4A5568"/>
<defs>
<clipPath id="clip0">
<rect x="18" y="19" width="76" height="76" fill="white"/>
</clipPath>
</defs>
</svg>
