<svg id="Ñëîé_1" data-name="Ñëîé 1" xmlns="http://www.w3.org/2000/svg" xmlns:xlink="http://www.w3.org/1999/xlink" viewBox="0 0 254.55 225.96"><defs><style>.cls-1{fill:none;}.cls-2{fill:#03a7d3;}.cls-3{fill:url(#Áåçûìÿííûé_ãðàäèåíò_70);}.cls-4{fill:url(#Áåçûìÿííûé_ãðàäèåíò_242);}.cls-199,.cls-5{fill:#06033e;}.cls-5{opacity:0.4;}.cls-6{fill:url(#Áåçûìÿííûé_ãðàäèåíò_242-2);}.cls-7{fill:url(#Áåçûìÿííûé_ãðàäèåíò_242-3);}.cls-8{fill:url(#Áåçûìÿííûé_ãðàäèåíò_597);}.cls-9{fill:url(#Áåçûìÿííûé_ãðàäèåíò_70-2);}.cls-10{clip-path:url(#clip-path);}.cls-11{fill:#112564;}.cls-12{fill:#112665;}.cls-13{fill:#112766;}.cls-14{fill:#112867;}.cls-15{fill:#112968;}.cls-16{fill:#112a69;}.cls-17{fill:#112b6a;}.cls-18{fill:#112c6b;}.cls-19{fill:#112d6d;}.cls-20{fill:#112e6e;}.cls-21{fill:#112f6f;}.cls-22{fill:#113070;}.cls-23{fill:#113171;}.cls-24{fill:#113272;}.cls-25{fill:#113373;}.cls-26{fill:#113474;}.cls-27{fill:#113575;}.cls-28{fill:#113676;}.cls-29{fill:#113777;}.cls-30{fill:#113878;}.cls-31{fill:#113979;}.cls-32{fill:#113a7a;}.cls-33{fill:#113b7b;}.cls-34{fill:#113c7c;}.cls-35{fill:#113d7d;}.cls-36{fill:#113e7e;}.cls-37{fill:#113f7f;}.cls-38{fill:#114080;}.cls-39{fill:#114181;}.cls-40{fill:#114282;}.cls-41{fill:#114383;}.cls-42{fill:#114484;}.cls-43{fill:#114585;}.cls-44{fill:#114686;}.cls-45{fill:#114787;}.cls-46{fill:#114888;}.cls-47{fill:#114989;}.cls-48{fill:#114a8a;}.cls-49{fill:#114b8b;}.cls-50{fill:#114c8c;}.cls-51{fill:#114d8d;}.cls-52{fill:#114e8e;}.cls-53{fill:#114f8f;}.cls-54{fill:#115090;}.cls-55{fill:#115191;}.cls-56{fill:#115292;}.cls-57{fill:#115393;}.cls-58{fill:#115494;}.cls-59{fill:#115595;}.cls-60{fill:#115696;}.cls-61{fill:#115797;}.cls-62{fill:#115899;}.cls-63{fill:#11599a;}.cls-64{fill:#115a9b;}.cls-65{fill:#115b9c;}.cls-66{fill:#115c9d;}.cls-67{fill:#115d9e;}.cls-68{fill:#115e9f;}.cls-69{fill:#115fa0;}.cls-70{fill:#1160a1;}.cls-71{fill:#1161a2;}.cls-72{fill:#1162a3;}.cls-73{fill:#1163a4;}.cls-74{fill:#1164a5;}.cls-75{fill:#1165a6;}.cls-76{fill:#1166a7;}.cls-77{fill:#1167a8;}.cls-78{fill:#1168a9;}.cls-79{fill:#1169aa;}.cls-80{fill:#116aab;}.cls-81{fill:#116bac;}.cls-82{fill:#116cad;}.cls-83{fill:#116dae;}.cls-84{fill:#116eaf;}.cls-85{fill:#116fb0;}.cls-86{fill:#1170b1;}.cls-87{fill:#1171b2;}.cls-88{fill:#1172b3;}.cls-89{fill:#1173b4;}.cls-90{fill:#1174b5;}.cls-91{fill:#1175b6;}.cls-92{fill:#1176b7;}.cls-93{fill:#1177b8;}.cls-94{fill:#1178b9;}.cls-95{fill:#107aba;}.cls-96{fill:#107bbb;}.cls-97{fill:#107cbc;}.cls-98{fill:#107ebd;}.cls-99{fill:#0f7fbd;}.cls-100{fill:#0f80be;}.cls-101{fill:#0f82bf;}.cls-102{fill:#0f83c0;}.cls-103{fill:#0e84c1;}.cls-104{fill:#0e85c2;}.cls-105{fill:#0e87c3;}.cls-106{fill:#0e88c4;}.cls-107{fill:#0d89c4;}.cls-108{fill:#0d8bc5;}.cls-109{fill:#0d8cc6;}.cls-110{fill:#0d8dc7;}.cls-111{fill:#0c8ec8;}.cls-112{fill:#0c90c9;}.cls-113{fill:#0c91ca;}.cls-114{fill:#0c92ca;}.cls-115{fill:#0b93cb;}.cls-116{fill:#0b94cc;}.cls-117{fill:#0b96cd;}.cls-118{fill:#0b97ce;}.cls-119{fill:#0a98ce;}.cls-120{fill:#0a99cf;}.cls-121{fill:#0a9ad0;}.cls-122{fill:#0a9cd1;}.cls-123{fill:#0a9dd2;}.cls-124{fill:#099ed2;}.cls-125{fill:#099fd3;}.cls-126{fill:#09a0d4;}.cls-127{fill:#09a1d5;}.cls-128{fill:#08a2d5;}.cls-129{fill:#08a3d6;}.cls-130{fill:#08a5d7;}.cls-131{fill:#08a6d8;}.cls-132{fill:#08a7d8;}.cls-133{fill:#07a8d9;}.cls-134{fill:#07a9da;}.cls-135{fill:#07aadb;}.cls-136{fill:#07abdb;}.cls-137{fill:#07acdc;}.cls-138{fill:#06addd;}.cls-139{fill:#06aedd;}.cls-140{fill:#06afde;}.cls-141{fill:#06b0df;}.cls-142{fill:#06b1df;}.cls-143{fill:#05b2e0;}.cls-144{fill:#05b3e1;}.cls-145{fill:#05b4e1;}.cls-146{fill:#05b5e2;}.cls-147{fill:#05b6e3;}.cls-148{fill:#04b7e3;}.cls-149{fill:#04b8e4;}.cls-150{fill:#04b9e5;}.cls-151{fill:#04bae6;}.cls-152{fill:#04bbe6;}.cls-153{fill:#03bce7;}.cls-154{fill:#03bde7;}.cls-155{fill:#03bee8;}.cls-156{fill:#03bfe9;}.cls-157{fill:#03c0ea;}.cls-158{fill:#02c1ea;}.cls-159{fill:#02c2eb;}.cls-160{fill:#02c3ec;}.cls-161{fill:#02c4ec;}.cls-162{fill:#02c5ed;}.cls-163{fill:#01c6ee;}.cls-164{fill:#01c7ee;}.cls-165{fill:#01c7ef;}.cls-166{fill:#01c8ef;}.cls-167{fill:url(#Áåçûìÿííûé_ãðàäèåíò_597-2);}.cls-168{fill:url(#Áåçûìÿííûé_ãðàäèåíò_242-4);}.cls-169{fill:url(#Áåçûìÿííûé_ãðàäèåíò_537);}.cls-170{fill:url(#Áåçûìÿííûé_ãðàäèåíò_242-5);}.cls-171{fill:#eaeaea;}.cls-172{fill:#121a46;}.cls-173{fill:url(#Áåçûìÿííûé_ãðàäèåíò_136);}.cls-174{fill:#e2b1a6;}.cls-175{fill:url(#Áåçûìÿííûé_ãðàäèåíò_124);}.cls-176{fill:url(#Áåçûìÿííûé_ãðàäèåíò_163);}.cls-177{fill:#f0f6ff;}.cls-178{fill:#c4ccd6;}.cls-179{fill:url(#Áåçûìÿííûé_ãðàäèåíò_47);}.cls-180{fill:#020230;}.cls-180,.cls-197{opacity:0.6;}.cls-181{fill:#fcd1c5;}.cls-182{fill:url(#Áåçûìÿííûé_ãðàäèåíò_47-2);}.cls-183{fill:#380031;}.cls-183,.cls-206{opacity:0.5;}.cls-184{fill:url(#Áåçûìÿííûé_ãðàäèåíò_136-2);}.cls-185{fill:#1e262d;}.cls-186{fill:#2d2d2d;}.cls-187{fill:url(#Áåçûìÿííûé_ãðàäèåíò_536);}.cls-188{fill:url(#Áåçûìÿííûé_ãðàäèåíò_536-2);}.cls-189{fill:url(#Áåçûìÿííûé_ãðàäèåíò_536-3);}.cls-190{fill:url(#Áåçûìÿííûé_ãðàäèåíò_536-4);}.cls-191{fill:url(#Áåçûìÿííûé_ãðàäèåíò_536-5);}.cls-192{fill:url(#Áåçûìÿííûé_ãðàäèåíò_343);}.cls-193{fill:url(#Áåçûìÿííûé_ãðàäèåíò_242-6);}.cls-194{fill:url(#Áåçûìÿííûé_ãðàäèåíò_537-2);}.cls-195,.cls-206{fill:#fff;}.cls-196,.cls-197{fill:#c7e6ec;}.cls-198{fill:url(#Áåçûìÿííûé_ãðàäèåíò_92);}.cls-199{opacity:0.2;}.cls-200{fill:url(#Áåçûìÿííûé_ãðàäèåíò_515);}.cls-201{fill:url(#Áåçûìÿííûé_ãðàäèåíò_47-3);}.cls-202{fill:url(#Áåçûìÿííûé_ãðàäèåíò_89);}.cls-203{fill:url(#Áåçûìÿííûé_ãðàäèåíò_515-2);}.cls-204{fill:#8b1e64;}.cls-205{fill:#fb8488;}.cls-207{fill:url(#Áåçûìÿííûé_ãðàäèåíò_515-3);}.cls-208{fill:url(#Áåçûìÿííûé_ãðàäèåíò_90);}.cls-209{fill:#24126a;}.cls-210{fill:url(#Áåçûìÿííûé_ãðàäèåíò_47-4);}.cls-211{fill:url(#Áåçûìÿííûé_ãðàäèåíò_47-5);}.cls-212{fill:url(#Áåçûìÿííûé_ãðàäèåíò_47-6);}</style><radialGradient id="Áåçûìÿííûé_ãðàäèåíò_70" cx="460.26" cy="254.55" r="23.53" gradientUnits="userSpaceOnUse"><stop offset="0" stop-color="#01c8ef"/><stop offset="0.14" stop-color="#03bee9"/><stop offset="0.38" stop-color="#08a5d7"/><stop offset="0.69" stop-color="#107bbb"/><stop offset="0.71" stop-color="#1177b8"/><stop offset="1" stop-color="#113474"/><stop offset="1" stop-color="#112564"/></radialGradient><radialGradient id="Áåçûìÿííûé_ãðàäèåíò_242" cx="465.35" cy="253.02" r="17.74" gradientUnits="userSpaceOnUse"><stop offset="0" stop-color="#01c8ef"/><stop offset="0.09" stop-color="#03bee9"/><stop offset="0.24" stop-color="#08a5d7"/><stop offset="0.43" stop-color="#107bbb"/><stop offset="0.45" stop-color="#1177b8"/><stop offset="1" stop-color="#112564"/></radialGradient><radialGradient id="Áåçûìÿííûé_ãðàäèåíò_242-2" cx="477.48" cy="256.48" r="32.24" xlink:href="#Áåçûìÿííûé_ãðàäèåíò_242"/><radialGradient id="Áåçûìÿííûé_ãðàäèåíò_242-3" cx="184.77" cy="80.1" r="5.7" gradientTransform="matrix(0.87, 0.5, -0.87, 0.5, 376.76, 94.97)" xlink:href="#Áåçûìÿííûé_ãðàäèåíò_242"/><linearGradient id="Áåçûìÿííûé_ãðàäèåíò_597" x1="468.86" y1="215.37" x2="472.34" y2="215.37" gradientUnits="userSpaceOnUse"><stop offset="0" stop-color="#e0f1f4"/><stop offset="0.14" stop-color="#d6eef2"/><stop offset="0.36" stop-color="#bde5ee"/><stop offset="0.37" stop-color="#bce5ee"/><stop offset="0.54" stop-color="#a4deea"/><stop offset="0.9" stop-color="#67cae0"/><stop offset="1" stop-color="#56c5dd"/></linearGradient><radialGradient id="Áåçûìÿííûé_ãðàäèåíò_70-2" cx="454.53" cy="213.19" r="5.18" xlink:href="#Áåçûìÿííûé_ãðàäèåíò_70"/><clipPath id="clip-path" transform="translate(-257.33 -114.48)"><path class="cls-1" d="M460.93,213.4l-2.84-2.13a1.07,1.07,0,0,0-1,0l-2.12,1.22c-.29.17-.26.45.07.6l3.68,1.64a1.15,1.15,0,0,0,1,0l1.23-.71C461.13,213.8,461.16,213.57,460.93,213.4Z"/></clipPath><linearGradient id="Áåçûìÿííûé_ãðàäèåíò_597-2" x1="459.92" y1="216.33" x2="470.57" y2="216.33" xlink:href="#Áåçûìÿííûé_ãðàäèåíò_597"/><radialGradient id="Áåçûìÿííûé_ãðàäèåíò_242-4" cx="144.4" cy="89.57" r="43.72" xlink:href="#Áåçûìÿííûé_ãðàäèåíò_242"/><radialGradient id="Áåçûìÿííûé_ãðàäèåíò_537" cx="448.24" cy="196.86" r="65.24" gradientUnits="userSpaceOnUse"><stop offset="0" stop-color="#01c8ef"/><stop offset="0.14" stop-color="#02c5ed"/><stop offset="0.25" stop-color="#04bbe6"/><stop offset="0.34" stop-color="#07abdb"/><stop offset="0.43" stop-color="#0b94cb"/><stop offset="0.52" stop-color="#1177b8"/><stop offset="1" stop-color="#172f78"/></radialGradient><radialGradient id="Áåçûìÿííûé_ãðàäèåíò_242-5" cx="516.2" cy="223.17" r="39.29" xlink:href="#Áåçûìÿííûé_ãðàäèåíò_242"/><radialGradient id="Áåçûìÿííûé_ãðàäèåíò_136" cx="1943.59" cy="164.84" r="25.57" gradientTransform="matrix(-1, 0, 0, 1, 2299.71, 0)" gradientUnits="userSpaceOnUse"><stop offset="0" stop-color="#01c8ef"/><stop offset="0.14" stop-color="#02c3eb"/><stop offset="0.3" stop-color="#03b5df"/><stop offset="0.47" stop-color="#069dca"/><stop offset="0.65" stop-color="#097cae"/><stop offset="0.84" stop-color="#0d538a"/><stop offset="1" stop-color="#122865"/></radialGradient><radialGradient id="Áåçûìÿííûé_ãðàäèåíò_124" cx="1956.28" cy="125.69" r="73.3" gradientTransform="matrix(-1, 0, 0, 1, 2299.71, 0)" gradientUnits="userSpaceOnUse"><stop offset="0" stop-color="#01c8ef"/><stop offset="0.21" stop-color="#01c5ed"/><stop offset="0.37" stop-color="#03bbe5"/><stop offset="0.51" stop-color="#05abd8"/><stop offset="0.65" stop-color="#0993c6"/><stop offset="0.78" stop-color="#0d75af"/><stop offset="0.9" stop-color="#125192"/><stop offset="1" stop-color="#172f78"/></radialGradient><linearGradient id="Áåçûìÿííûé_ãðàäèåíò_163" x1="372.58" y1="149.25" x2="406.78" y2="163.91" gradientUnits="userSpaceOnUse"><stop offset="0" stop-color="#01c8ef"/><stop offset="0.46" stop-color="#0c7bb3"/><stop offset="0.82" stop-color="#144489"/><stop offset="1" stop-color="#172f78"/></linearGradient><radialGradient id="Áåçûìÿííûé_ãðàäèåíò_47" cx="1880.38" cy="155.17" r="70.13" gradientTransform="matrix(-1, 0, 0, 1, 2299.71, 0)" gradientUnits="userSpaceOnUse"><stop offset="0" stop-color="#f9636b"/><stop offset="1" stop-color="#b6246e"/></radialGradient><radialGradient id="Áåçûìÿííûé_ãðàäèåíò_47-2" cx="404.1" cy="116.17" r="21.91" gradientTransform="matrix(1, 0, 0, 1, 0, 0)" xlink:href="#Áåçûìÿííûé_ãðàäèåíò_47"/><radialGradient id="Áåçûìÿííûé_ãðàäèåíò_136-2" cx="1717.28" cy="192.5" r="139.49" xlink:href="#Áåçûìÿííûé_ãðàäèåíò_136"/><radialGradient id="Áåçûìÿííûé_ãðàäèåíò_536" cx="1636.1" cy="245.25" r="98.32" gradientTransform="matrix(-1, 0, 0, 1, 1931.52, 0)" gradientUnits="userSpaceOnUse"><stop offset="0" stop-color="#01c8ef"/><stop offset="0.09" stop-color="#03bee8"/><stop offset="0.24" stop-color="#08a5d7"/><stop offset="0.33" stop-color="#0c92ca"/><stop offset="0.43" stop-color="#107cbc"/><stop offset="0.45" stop-color="#1177b8"/><stop offset="1" stop-color="#112564"/></radialGradient><radialGradient id="Áåçûìÿííûé_ãðàäèåíò_536-2" cx="294.78" cy="290.32" r="75.2" gradientTransform="matrix(1, 0, 0, 1, 0, 0)" xlink:href="#Áåçûìÿííûé_ãðàäèåíò_536"/><radialGradient id="Áåçûìÿííûé_ãðàäèåíò_536-3" cx="1634.63" cy="298.73" r="100.61" xlink:href="#Áåçûìÿííûé_ãðàäèåíò_536"/><radialGradient id="Áåçûìÿííûé_ãðàäèåíò_536-4" cx="1551.73" cy="306.05" r="84.15" xlink:href="#Áåçûìÿííûé_ãðàäèåíò_536"/><radialGradient id="Áåçûìÿííûé_ãðàäèåíò_536-5" cx="303.35" cy="298.89" r="151.4" gradientTransform="matrix(1, 0, 0, 1, 0, 0)" xlink:href="#Áåçûìÿííûé_ãðàäèåíò_536"/><radialGradient id="Áåçûìÿííûé_ãðàäèåíò_343" cx="236.86" cy="292.59" r="218.25" gradientTransform="matrix(1, 0, 0, 1, 0, 0)" xlink:href="#Áåçûìÿííûé_ãðàäèåíò_536"/><radialGradient id="Áåçûìÿííûé_ãðàäèåíò_242-6" cx="1674.4" cy="212.6" r="172.91" gradientTransform="matrix(-1, 0, 0, 1, 1931.52, 0)" xlink:href="#Áåçûìÿííûé_ãðàäèåíò_242"/><radialGradient id="Áåçûìÿííûé_ãðàäèåíò_537-2" cx="1724.8" cy="261.73" r="292.07" gradientTransform="matrix(-1, 0, 0, 1, 1931.52, 0)" xlink:href="#Áåçûìÿííûé_ãðàäèåíò_537"/><linearGradient id="Áåçûìÿííûé_ãðàäèåíò_92" x1="392.54" y1="227.77" x2="380.25" y2="226.95" gradientUnits="userSpaceOnUse"><stop offset="0" stop-color="#56c5dd"/><stop offset="0.1" stop-color="#67cae0"/><stop offset="0.46" stop-color="#a4deea"/><stop offset="0.63" stop-color="#bce5ee"/><stop offset="0.64" stop-color="#bde5ee"/><stop offset="0.86" stop-color="#d6eef2"/><stop offset="1" stop-color="#e0f1f4"/></linearGradient><linearGradient id="Áåçûìÿííûé_ãðàäèåíò_515" x1="391.65" y1="221.49" x2="381.38" y2="218.73" gradientUnits="userSpaceOnUse"><stop offset="0" stop-color="#b6246e"/><stop offset="1" stop-color="#f9636b"/></linearGradient><radialGradient id="Áåçûìÿííûé_ãðàäèåíò_47-3" cx="391.56" cy="221.99" r="7.65" gradientTransform="matrix(1, 0, 0, 1, 0, 0)" xlink:href="#Áåçûìÿííûé_ãðàäèåíò_47"/><linearGradient id="Áåçûìÿííûé_ãðàäèåíò_89" x1="384.06" y1="218.87" x2="394.95" y2="218.87" gradientUnits="userSpaceOnUse"><stop offset="0" stop-color="#a31c5a"/><stop offset="1" stop-color="#f9636b"/></linearGradient><linearGradient id="Áåçûìÿííûé_ãðàäèåíò_515-2" x1="392.98" y1="220.75" x2="382.63" y2="219.16" xlink:href="#Áåçûìÿííûé_ãðàäèåíò_515"/><linearGradient id="Áåçûìÿííûé_ãðàäèåíò_515-3" x1="382.43" y1="211.76" x2="439.11" y2="211.76" gradientTransform="matrix(-1, 0, 0, 1, 751.4, 0)" xlink:href="#Áåçûìÿííûé_ãðàäèåíò_515"/><radialGradient id="Áåçûìÿííûé_ãðàäèåíò_90" cx="408.66" cy="212.36" r="23.15" gradientTransform="matrix(-1, 0, 0, 1, 751.4, 0)" xlink:href="#Áåçûìÿííûé_ãðàäèåíò_515"/><radialGradient id="Áåçûìÿííûé_ãðàäèåíò_47-4" cx="438.29" cy="175.52" r="56.04" gradientTransform="matrix(-1, 0, 0, 1, 751.4, 0)" xlink:href="#Áåçûìÿííûé_ãðàäèåíò_47"/><radialGradient id="Áåçûìÿííûé_ãðàäèåíò_47-5" cx="374.28" cy="221.59" r="9.85" gradientTransform="matrix(-1, 0, 0, 1, 751.4, 0)" xlink:href="#Áåçûìÿííûé_ãðàäèåíò_47"/><radialGradient id="Áåçûìÿííûé_ãðàäèåíò_47-6" cx="311.01" cy="192.39" r="46.93" gradientTransform="matrix(1, 0, 0, 1, 0, 0)" xlink:href="#Áåçûìÿííûé_ãðàäèåíò_47"/></defs><path class="cls-2" d="M392.64,340.44a12,12,0,0,1-5.88-1.36l-127-73.32a4.21,4.21,0,0,1-2.43-3.55c0-1.65,1.23-3.31,3.38-4.55l59.41-34.3c4-2.3,10.05-2.54,13.52-.55l127,73.33a4.2,4.2,0,0,1,2.42,3.54c0,1.66-1.23,3.31-3.37,4.55l-59.41,34.3A15.69,15.69,0,0,1,392.64,340.44ZM327.75,222a15.17,15.17,0,0,0-7.38,1.85L261,258.1c-2,1.14-3.13,2.64-3.13,4.11a3.73,3.73,0,0,0,2.18,3.11l127,73.33c3.32,1.92,9.17,1.67,13-.55l59.41-34.3c2-1.15,3.12-2.65,3.12-4.12a3.73,3.73,0,0,0-2.17-3.11l-127-73.32A11.49,11.49,0,0,0,327.75,222Z" transform="translate(-257.33 -114.48)"/><path class="cls-2" d="M470.86,280.23a20.3,20.3,0,0,1-9.92-2.37c-2.69-1.56-4.18-3.64-4.18-5.87s1.49-4.32,4.18-5.87c5.47-3.16,14.37-3.16,19.84,0,2.69,1.56,4.18,3.64,4.18,5.87s-1.49,4.31-4.18,5.87h0A20.3,20.3,0,0,1,470.86,280.23Zm0-16a19.78,19.78,0,0,0-9.67,2.31c-2.53,1.46-3.93,3.39-3.93,5.44s1.4,4,3.93,5.43c5.33,3.08,14,3.08,19.34,0h0c2.53-1.46,3.93-3.39,3.93-5.43s-1.4-4-3.93-5.44A19.78,19.78,0,0,0,470.86,264.24Z" transform="translate(-257.33 -114.48)"/><path class="cls-3" d="M480.13,256.06a17.56,17.56,0,0,0-1.85-.89h0l-3.56-1.58.27.63a23,23,0,0,0-8.36-.09l.17-.69-4.19,1.85h0a16.26,16.26,0,0,0-1.57.76c-5.26,3-5.26,8,0,11s13.8,3,19.06,0S485.39,259.1,480.13,256.06Z" transform="translate(-257.33 -114.48)"/><path class="cls-4" d="M475.07,258.93a9.89,9.89,0,0,1-8.93,0c-2.47-1.42-2.47-3.73,0-5.16a9.89,9.89,0,0,1,8.93,0C477.53,255.2,477.53,257.51,475.07,258.93Z" transform="translate(-257.33 -114.48)"/><path class="cls-5" d="M476.49,257.67,472,255.08l-2.7,1.84,4.46,2.57,5.37,8.09c.34-.16.68-.33,1-.52a10.54,10.54,0,0,0,1.51-1.05h0Z" transform="translate(-257.33 -114.48)"/><path class="cls-6" d="M470.6,257.33h0a2.15,2.15,0,0,1-2.15-2.14V228.06h4.3v27.13A2.14,2.14,0,0,1,470.6,257.33Z" transform="translate(-257.33 -114.48)"/><path class="cls-7" d="M472.11,229a3.45,3.45,0,0,1-3.1,0,1,1,0,0,1,0-1.79,3.45,3.45,0,0,1,3.1,0C473,227.75,473,228.55,472.11,229Z" transform="translate(-257.33 -114.48)"/><path class="cls-8" d="M470.6,229h0a1.74,1.74,0,0,1-1.74-1.74V201.74h3.48v25.51A1.74,1.74,0,0,1,470.6,229Z" transform="translate(-257.33 -114.48)"/><path class="cls-9" d="M461.08,214.67v-1l-1.41-.21-1.58-1.18a1.07,1.07,0,0,0-1,0l-1.16.68-1.16-.17v1h0c0,.12.09.23.26.31l3.68,1.63a1.15,1.15,0,0,0,1,0l1.23-.71a.36.36,0,0,0,.21-.3Z" transform="translate(-257.33 -114.48)"/><g class="cls-10"><rect class="cls-11" x="197.3" y="96.59" width="6.52" height="3.76"/><path class="cls-11" d="M460.1,215c-3.46,1.65-8.45,1.49-11.14-.36h4.68v-4.57h7.83v-1.41C464.16,210.52,463.55,213.35,460.1,215Z" transform="translate(-257.33 -114.48)"/><path class="cls-12" d="M460.1,215c-3.46,1.65-8.45,1.49-11.14-.36h4.68v-4.57h7.83v-1.41C464.16,210.52,463.55,213.35,460.1,215Z" transform="translate(-257.33 -114.48)"/><path class="cls-13" d="M460.1,215c-3.46,1.65-8.45,1.49-11.14-.36h4.68v-4.57h7.83v-1.41C464.16,210.52,463.55,213.35,460.1,215Z" transform="translate(-257.33 -114.48)"/><path class="cls-14" d="M460.1,215c-3.46,1.65-8.45,1.49-11.14-.36h4.68v-4.57h7.83v-1.41C464.16,210.52,463.55,213.35,460.1,215Z" transform="translate(-257.33 -114.48)"/><path class="cls-15" d="M460.1,215c-3.46,1.65-8.45,1.49-11.14-.36h4.68v-4.57h7.83v-1.41C464.16,210.52,463.55,213.35,460.1,215Z" transform="translate(-257.33 -114.48)"/><path class="cls-16" d="M460.1,215c-3.46,1.65-8.45,1.49-11.14-.36h4.68v-4.57h7.83v-1.41C464.16,210.52,463.55,213.35,460.1,215Z" transform="translate(-257.33 -114.48)"/><path class="cls-17" d="M460.1,215c-3.46,1.65-8.45,1.49-11.14-.36h4.68v-4.57h7.83v-1.41C464.16,210.52,463.55,213.35,460.1,215Z" transform="translate(-257.33 -114.48)"/><path class="cls-18" d="M460.1,215c-3.46,1.65-8.45,1.49-11.14-.36h4.68v-4.57h7.83v-1.41C464.16,210.52,463.55,213.35,460.1,215Z" transform="translate(-257.33 -114.48)"/><path class="cls-19" d="M460.1,215c-3.46,1.65-8.45,1.49-11.14-.36h4.68v-4.57h7.83v-1.41C464.16,210.52,463.55,213.35,460.1,215Z" transform="translate(-257.33 -114.48)"/><path class="cls-20" d="M460.1,215c-3.46,1.65-8.45,1.49-11.14-.36h4.68v-4.57h7.83v-1.41C464.16,210.52,463.55,213.35,460.1,215Z" transform="translate(-257.33 -114.48)"/><path class="cls-21" d="M460.1,215c-3.46,1.65-8.45,1.49-11.14-.36h4.68v-4.57h7.83v-1.41C464.16,210.52,463.55,213.35,460.1,215Z" transform="translate(-257.33 -114.48)"/><path class="cls-22" d="M460.1,215c-3.46,1.65-8.45,1.49-11.14-.36h4.68v-4.57h7.83v-1.41C464.16,210.52,463.55,213.35,460.1,215Z" transform="translate(-257.33 -114.48)"/><path class="cls-23" d="M460.1,215c-3.46,1.65-8.45,1.49-11.14-.36h4.68v-4.57h7.83v-1.41C464.16,210.52,463.55,213.35,460.1,215Z" transform="translate(-257.33 -114.48)"/><path class="cls-24" d="M460.1,215c-3.46,1.65-8.45,1.49-11.14-.36h4.68v-4.57h7.83v-1.41C464.16,210.52,463.55,213.35,460.1,215Z" transform="translate(-257.33 -114.48)"/><path class="cls-25" d="M460.1,215c-3.46,1.65-8.45,1.49-11.14-.36h4.68v-4.57h7.83v-1.41C464.16,210.52,463.55,213.35,460.1,215Z" transform="translate(-257.33 -114.48)"/><path class="cls-26" d="M460.1,215c-3.46,1.65-8.45,1.49-11.14-.36h4.68v-4.57h7.83v-1.41C464.16,210.52,463.55,213.35,460.1,215Z" transform="translate(-257.33 -114.48)"/><path class="cls-26" d="M460.1,215c-3.46,1.65-8.45,1.49-11.14-.36h4.68v-4.57h7.83v-1.41C464.16,210.52,463.55,213.35,460.1,215Z" transform="translate(-257.33 -114.48)"/><path class="cls-27" d="M460.07,215c-3.44,1.64-8.39,1.48-11.07-.36h4.64v-4.55h7.79v-1.39C464.11,210.52,463.5,213.34,460.07,215Z" transform="translate(-257.33 -114.48)"/><path class="cls-28" d="M460,215c-3.41,1.63-8.33,1.47-11-.36h4.6v-4.53h7.75V208.7C464.05,210.53,463.44,213.33,460,215Z" transform="translate(-257.33 -114.48)"/><path class="cls-29" d="M460,214.94c-3.39,1.62-8.28,1.46-10.92-.36h4.56v-4.51h7.71v-1.35C464,210.54,463.39,213.32,460,214.94Z" transform="translate(-257.33 -114.48)"/><path class="cls-30" d="M460,214.92c-3.36,1.61-8.23,1.45-10.85-.36h4.52v-4.49h7.67v-1.33C463.94,210.54,463.34,213.31,460,214.92Z" transform="translate(-257.33 -114.48)"/><path class="cls-31" d="M459.94,214.9c-3.34,1.59-8.17,1.43-10.78-.36h4.48v-4.47h7.63v-1.31C463.88,210.55,463.28,213.3,459.94,214.9Z" transform="translate(-257.33 -114.48)"/><path class="cls-32" d="M459.91,214.88c-3.32,1.58-8.12,1.42-10.71-.36h4.44v-4.45h7.59v-1.29C463.82,210.56,463.23,213.29,459.91,214.88Z" transform="translate(-257.33 -114.48)"/><path class="cls-33" d="M459.88,214.85c-3.3,1.58-8.07,1.42-10.64-.35h4.4v-4.43h7.55V208.8C463.76,210.57,463.18,213.28,459.88,214.85Z" transform="translate(-257.33 -114.48)"/><path class="cls-34" d="M459.85,214.83c-3.28,1.57-8,1.41-10.57-.35h4.36v-4.41h7.51v-1.25C463.71,210.57,463.12,213.27,459.85,214.83Z" transform="translate(-257.33 -114.48)"/><path class="cls-35" d="M459.82,214.81c-3.26,1.56-8,1.4-10.5-.35h4.32v-4.39h7.47v-1.24C463.65,210.58,463.07,213.26,459.82,214.81Z" transform="translate(-257.33 -114.48)"/><path class="cls-36" d="M459.78,214.79c-3.23,1.54-7.9,1.39-10.42-.34h4.28v-4.38h7.43v-1.22C463.59,210.59,463,213.25,459.78,214.79Z" transform="translate(-257.33 -114.48)"/><path class="cls-37" d="M459.75,214.77c-3.21,1.53-7.85,1.38-10.35-.34h4.24v-4.36H461v-1.2C463.53,210.59,463,213.23,459.75,214.77Z" transform="translate(-257.33 -114.48)"/><path class="cls-38" d="M459.72,214.75c-3.19,1.52-7.79,1.37-10.28-.34h4.2v-4.34H461v-1.18C463.48,210.6,462.91,213.22,459.72,214.75Z" transform="translate(-257.33 -114.48)"/><path class="cls-39" d="M459.69,214.73c-3.17,1.51-7.74,1.36-10.21-.34h4.16v-4.32H461v-1.16C463.42,210.61,462.86,213.21,459.69,214.73Z" transform="translate(-257.33 -114.48)"/><path class="cls-40" d="M459.66,214.7c-3.15,1.51-7.69,1.36-10.14-.33h4.12v-4.3h7.27v-1.14C463.36,210.62,462.8,213.2,459.66,214.7Z" transform="translate(-257.33 -114.48)"/><path class="cls-41" d="M459.63,214.68c-3.13,1.49-7.63,1.34-10.07-.33h4.08v-4.28h7.23V209C463.31,210.62,462.75,213.19,459.63,214.68Z" transform="translate(-257.33 -114.48)"/><path class="cls-42" d="M459.6,214.66c-3.1,1.48-7.58,1.33-10-.33h4v-4.26h7.19V209C463.25,210.63,462.7,213.18,459.6,214.66Z" transform="translate(-257.33 -114.48)"/><path class="cls-43" d="M459.57,214.64c-3.08,1.47-7.53,1.32-9.93-.33h4v-4.24h7.15V209C463.19,210.64,462.64,213.17,459.57,214.64Z" transform="translate(-257.33 -114.48)"/><path class="cls-44" d="M459.53,214.62c-3,1.46-7.47,1.31-9.85-.33h4v-4.22h7.11V209C463.13,210.65,462.59,213.16,459.53,214.62Z" transform="translate(-257.33 -114.48)"/><path class="cls-45" d="M459.5,214.6c-3,1.45-7.41,1.3-9.78-.33h3.92v-4.2h7.07v-1C463.08,210.65,462.54,213.15,459.5,214.6Z" transform="translate(-257.33 -114.48)"/><path class="cls-46" d="M459.47,214.58c-3,1.43-7.36,1.29-9.71-.33h3.88v-4.18h7v-1C463,210.66,462.49,213.14,459.47,214.58Z" transform="translate(-257.33 -114.48)"/><path class="cls-47" d="M459.44,214.55c-3,1.43-7.31,1.29-9.64-.31h3.84v-4.17h7v-1C463,210.67,462.43,213.13,459.44,214.55Z" transform="translate(-257.33 -114.48)"/><path class="cls-48" d="M459.41,214.53c-3,1.42-7.26,1.28-9.57-.31h3.8v-4.15h6.95v-1C462.91,210.67,462.38,213.11,459.41,214.53Z" transform="translate(-257.33 -114.48)"/><path class="cls-49" d="M459.38,214.51c-2.95,1.41-7.2,1.27-9.5-.31h3.76v-4.13h6.91v-1C462.85,210.68,462.33,213.1,459.38,214.51Z" transform="translate(-257.33 -114.48)"/><path class="cls-50" d="M459.35,214.49c-2.93,1.4-7.15,1.26-9.43-.31h3.72v-4.11h6.87v-.95C462.79,210.69,462.27,213.09,459.35,214.49Z" transform="translate(-257.33 -114.48)"/><path class="cls-51" d="M459.32,214.47c-2.91,1.38-7.1,1.25-9.36-.31h3.68v-4.09h6.83v-.93C462.73,210.7,462.22,213.08,459.32,214.47Z" transform="translate(-257.33 -114.48)"/><path class="cls-52" d="M459.28,214.45c-2.88,1.37-7,1.23-9.28-.31h3.64v-4.07h6.79v-.91C462.68,210.7,462.17,213.07,459.28,214.45Z" transform="translate(-257.33 -114.48)"/><path class="cls-53" d="M459.25,214.42c-2.85,1.37-7,1.23-9.21-.3h3.6v-4.05h6.75v-.89C462.62,210.71,462.11,213.06,459.25,214.42Z" transform="translate(-257.33 -114.48)"/><path class="cls-54" d="M459.22,214.4c-2.83,1.36-6.93,1.22-9.14-.3h3.56v-4h6.71v-.87C462.56,210.72,462.06,213.05,459.22,214.4Z" transform="translate(-257.33 -114.48)"/><path class="cls-55" d="M459.19,214.38c-2.81,1.35-6.88,1.21-9.07-.3h3.52v-4h6.67v-.85C462.5,210.73,462,213,459.19,214.38Z" transform="translate(-257.33 -114.48)"/><path class="cls-56" d="M459.16,214.36c-2.79,1.33-6.82,1.2-9-.3h3.48v-4h6.63v-.83C462.45,210.73,462,213,459.16,214.36Z" transform="translate(-257.33 -114.48)"/><path class="cls-57" d="M459.13,214.34c-2.77,1.32-6.77,1.19-8.93-.3h3.44v-4h6.59v-.82C462.39,210.74,461.9,213,459.13,214.34Z" transform="translate(-257.33 -114.48)"/><path class="cls-58" d="M459.1,214.32c-2.75,1.31-6.72,1.18-8.86-.29h3.4v-4h6.55v-.8C462.33,210.75,461.85,213,459.1,214.32Z" transform="translate(-257.33 -114.48)"/><path class="cls-59" d="M459.07,214.3c-2.73,1.3-6.67,1.17-8.79-.29h3.36v-3.94h6.51v-.78C462.28,210.75,461.79,213,459.07,214.3Z" transform="translate(-257.33 -114.48)"/><path class="cls-60" d="M459,214.27c-2.7,1.3-6.6,1.17-8.71-.28h3.32v-3.92h6.47v-.76C462.22,210.76,461.74,213,459,214.27Z" transform="translate(-257.33 -114.48)"/><path class="cls-61" d="M459,214.25c-2.68,1.28-6.55,1.16-8.64-.28h3.28v-3.9h6.43v-.74C462.16,210.77,461.69,213,459,214.25Z" transform="translate(-257.33 -114.48)"/><path class="cls-62" d="M459,214.23c-2.66,1.27-6.5,1.15-8.57-.28h3.24v-3.88H460v-.72C462.1,210.78,461.63,213,459,214.23Z" transform="translate(-257.33 -114.48)"/><path class="cls-63" d="M458.94,214.21c-2.64,1.26-6.44,1.13-8.5-.28h3.2v-3.86H460v-.7C462.05,210.78,461.58,213,458.94,214.21Z" transform="translate(-257.33 -114.48)"/><path class="cls-64" d="M458.91,214.19c-2.62,1.25-6.39,1.12-8.43-.28h3.16v-3.84H460v-.68C462,210.79,461.53,212.94,458.91,214.19Z" transform="translate(-257.33 -114.48)"/><path class="cls-65" d="M458.88,214.17c-2.59,1.24-6.34,1.11-8.36-.28h3.12v-3.82h6.27v-.66C461.93,210.8,461.47,212.93,458.88,214.17Z" transform="translate(-257.33 -114.48)"/><path class="cls-66" d="M458.85,214.15c-2.57,1.22-6.29,1.1-8.29-.28h3.08v-3.8h6.23v-.64C461.88,210.81,461.42,212.92,458.85,214.15Z" transform="translate(-257.33 -114.48)"/><path class="cls-67" d="M458.82,214.12c-2.55,1.22-6.23,1.1-8.22-.27h3v-3.78h6.19v-.62C461.82,210.81,461.37,212.91,458.82,214.12Z" transform="translate(-257.33 -114.48)"/><path class="cls-68" d="M458.78,214.1c-2.52,1.21-6.17,1.09-8.14-.27h3v-3.76h6.15v-.61C461.76,210.82,461.31,212.9,458.78,214.1Z" transform="translate(-257.33 -114.48)"/><path class="cls-69" d="M458.75,214.08c-2.5,1.2-6.12,1.08-8.07-.26h3v-3.75h6.11v-.59C461.7,210.83,461.26,212.89,458.75,214.08Z" transform="translate(-257.33 -114.48)"/><path class="cls-70" d="M458.72,214.06c-2.48,1.19-6.07,1.07-8-.26h2.92v-3.73h6.07v-.57C461.65,210.83,461.21,212.87,458.72,214.06Z" transform="translate(-257.33 -114.48)"/><path class="cls-71" d="M458.69,214c-2.46,1.17-6,1.06-7.93-.26h2.88v-3.71h6v-.55C461.59,210.84,461.15,212.86,458.69,214Z" transform="translate(-257.33 -114.48)"/><path class="cls-72" d="M458.66,214c-2.44,1.16-6,1-7.86-.26h2.84v-3.69h6v-.53C461.53,210.85,461.1,212.85,458.66,214Z" transform="translate(-257.33 -114.48)"/><path class="cls-73" d="M458.63,214c-2.42,1.15-5.91,1-7.79-.26h2.8v-3.67h5.95v-.51C461.47,210.86,461.05,212.84,458.63,214Z" transform="translate(-257.33 -114.48)"/><path class="cls-74" d="M458.6,214c-2.4,1.15-5.85,1-7.72-.25h2.76v-3.65h5.91v-.49C461.42,210.86,461,212.83,458.6,214Z" transform="translate(-257.33 -114.48)"/><path class="cls-75" d="M458.57,214c-2.38,1.14-5.8,1-7.65-.25h2.72v-3.63h5.87v-.47C461.36,210.87,460.94,212.82,458.57,214Z" transform="translate(-257.33 -114.48)"/><path class="cls-76" d="M458.54,213.93c-2.36,1.12-5.75,1-7.58-.25h2.68v-3.61h5.83v-.45C461.3,210.88,460.89,212.81,458.54,213.93Z" transform="translate(-257.33 -114.48)"/><path class="cls-77" d="M458.5,213.91c-2.32,1.11-5.69,1-7.51-.25h2.65v-3.59h5.79v-.43C461.25,210.88,460.83,212.8,458.5,213.91Z" transform="translate(-257.33 -114.48)"/><path class="cls-78" d="M458.47,213.89c-2.3,1.1-5.63,1-7.44-.25h2.61v-3.57h5.75v-.41C461.19,210.89,460.78,212.79,458.47,213.89Z" transform="translate(-257.33 -114.48)"/><path class="cls-79" d="M458.44,213.87c-2.28,1.09-5.58,1-7.37-.25h2.57v-3.55h5.71v-.4C461.13,210.9,460.73,212.78,458.44,213.87Z" transform="translate(-257.33 -114.48)"/><path class="cls-80" d="M458.41,213.85c-2.26,1.08-5.53,1-7.3-.24h2.53v-3.54h5.67v-.38C461.07,210.91,460.67,212.77,458.41,213.85Z" transform="translate(-257.33 -114.48)"/><path class="cls-81" d="M458.38,213.82c-2.24,1.07-5.48,1-7.23-.23h2.49v-3.52h5.63v-.36C461,210.91,460.62,212.75,458.38,213.82Z" transform="translate(-257.33 -114.48)"/><path class="cls-82" d="M458.35,213.8a8,8,0,0,1-7.16-.23h2.45v-3.5h5.59v-.34C461,210.92,460.57,212.74,458.35,213.8Z" transform="translate(-257.33 -114.48)"/><path class="cls-83" d="M458.32,213.78a7.88,7.88,0,0,1-7.09-.23h2.41v-3.48h5.55v-.32C460.9,210.93,460.51,212.73,458.32,213.78Z" transform="translate(-257.33 -114.48)"/><path class="cls-84" d="M458.29,213.76a7.83,7.83,0,0,1-7-.23h2.37v-3.46h5.51v-.3C460.85,210.94,460.46,212.72,458.29,213.76Z" transform="translate(-257.33 -114.48)"/><path class="cls-85" d="M458.25,213.74a7.73,7.73,0,0,1-6.94-.23h2.33v-3.44h5.47v-.28C460.79,210.94,460.41,212.71,458.25,213.74Z" transform="translate(-257.33 -114.48)"/><path class="cls-86" d="M458.22,213.72a7.67,7.67,0,0,1-6.87-.23h2.29v-3.42h5.43v-.26C460.73,211,460.35,212.7,458.22,213.72Z" transform="translate(-257.33 -114.48)"/><path class="cls-87" d="M458.19,213.7a7.59,7.59,0,0,1-6.8-.23h2.25v-3.4H459v-.24C460.67,211,460.3,212.69,458.19,213.7Z" transform="translate(-257.33 -114.48)"/><path class="cls-88" d="M458.16,213.67a7.47,7.47,0,0,1-6.73-.22h2.21v-3.38H459v-.22C460.62,211,460.25,212.68,458.16,213.67Z" transform="translate(-257.33 -114.48)"/><path class="cls-89" d="M458.13,213.65a7.39,7.39,0,0,1-6.66-.22h2.17v-3.36H459v-.2C460.56,211,460.19,212.67,458.13,213.65Z" transform="translate(-257.33 -114.48)"/><path class="cls-90" d="M458.1,213.63a7.3,7.3,0,0,1-6.59-.22h2.13v-3.34h5.27v-.19C460.5,211,460.14,212.66,458.1,213.63Z" transform="translate(-257.33 -114.48)"/><path class="cls-91" d="M458.07,213.61a7.28,7.28,0,0,1-6.52-.21h2.09v-3.33h5.23v-.17C460.44,211,460.09,212.65,458.07,213.61Z" transform="translate(-257.33 -114.48)"/><path class="cls-92" d="M458,213.59a7.2,7.2,0,0,1-6.45-.21h2.05v-3.31h5.19v-.15C460.39,211,460,212.63,458,213.59Z" transform="translate(-257.33 -114.48)"/><path class="cls-93" d="M458,213.57a7.09,7.09,0,0,1-6.37-.21h2v-3.29h5.15v-.13C460.33,211,460,212.62,458,213.57Z" transform="translate(-257.33 -114.48)"/><path class="cls-93" d="M458,213.55a7,7,0,0,1-6.3-.21h2v-3.27h5.11V210C460.27,211,459.93,212.61,458,213.55Z" transform="translate(-257.33 -114.48)"/><path class="cls-94" d="M457.94,213.52a6.93,6.93,0,0,1-6.22-.2h1.92v-3.25h5.06V210C460.21,211,459.87,212.6,457.94,213.52Z" transform="translate(-257.33 -114.48)"/><path class="cls-95" d="M457.9,213.5a6.83,6.83,0,0,1-6.14-.2h1.88v-3.23h5V210C460.15,211,459.81,212.59,457.9,213.5Z" transform="translate(-257.33 -114.48)"/><path class="cls-96" d="M457.87,213.48a6.79,6.79,0,0,1-6.06-.2h1.83v-3.21h5v0C460.09,211,459.75,212.58,457.87,213.48Z" transform="translate(-257.33 -114.48)"/><path class="cls-97" d="M457.84,213.45a6.64,6.64,0,0,1-6-.2h1.79v-3.18h4.93v0C460,211,459.69,212.57,457.84,213.45Z" transform="translate(-257.33 -114.48)"/><path class="cls-98" d="M457.8,213.43a6.57,6.57,0,0,1-5.91-.2h1.75v-3.16h4.89C460,211.05,459.64,212.55,457.8,213.43Z" transform="translate(-257.33 -114.48)"/><path class="cls-99" d="M457.77,213.41a6.49,6.49,0,0,1-5.83-.2h1.7v-3.14l-1-.18a6.51,6.51,0,0,1,5.84.2C459.9,211.06,459.58,212.54,457.77,213.41Z" transform="translate(-257.33 -114.48)"/><path class="cls-100" d="M457.73,213.38a6.39,6.39,0,0,1-5.75-.19h1.66v-3.12l-.95-.15a6.36,6.36,0,0,1,5.75.19C459.84,211.06,459.52,212.53,457.73,213.38Z" transform="translate(-257.33 -114.48)"/><path class="cls-101" d="M457.7,213.36a6.3,6.3,0,0,1-5.68-.19h1.62v-3.1l-.92-.13a6.3,6.3,0,0,1,5.68.19C459.77,211.07,459.46,212.52,457.7,213.36Z" transform="translate(-257.33 -114.48)"/><path class="cls-102" d="M457.67,213.34a6.26,6.26,0,0,1-5.6-.19h1.57v-3.08l-.88-.11a6.21,6.21,0,0,1,5.59.19C459.71,211.08,459.4,212.51,457.67,213.34Z" transform="translate(-257.33 -114.48)"/><path class="cls-103" d="M457.63,213.31a6.13,6.13,0,0,1-5.52-.18h1.53v-3.06l-.85-.08a6.13,6.13,0,0,1,5.52.18C459.65,211.09,459.34,212.49,457.63,213.31Z" transform="translate(-257.33 -114.48)"/><path class="cls-104" d="M457.6,213.29a6.1,6.1,0,0,1-5.45-.18h1.49v-3l-.82-.06a6,6,0,0,1,5.45.18C459.59,211.1,459.29,212.48,457.6,213.29Z" transform="translate(-257.33 -114.48)"/><path class="cls-105" d="M457.56,213.26a6,6,0,0,1-5.36-.17h1.44v-3l-.78,0a6,6,0,0,1,5.36.18C459.52,211.1,459.23,212.47,457.56,213.26Z" transform="translate(-257.33 -114.48)"/><path class="cls-106" d="M457.53,213.24a5.89,5.89,0,0,1-5.29-.17h1.4v-3h-.75a5.86,5.86,0,0,1,5.29.17C459.46,211.11,459.17,212.46,457.53,213.24Z" transform="translate(-257.33 -114.48)"/><path class="cls-107" d="M457.5,213.22a5.82,5.82,0,0,1-5.21-.17h1.35v-3h-.71a5.82,5.82,0,0,1,5.21.17C459.4,211.12,459.11,212.45,457.5,213.22Z" transform="translate(-257.33 -114.48)"/><path class="cls-108" d="M457.46,213.19a5.71,5.71,0,0,1-5.13-.16h1.31V210.1H453a5.71,5.71,0,0,1,5.13.17C459.34,211.13,459.05,212.43,457.46,213.19Z" transform="translate(-257.33 -114.48)"/><path class="cls-109" d="M457.43,213.17a5.63,5.63,0,0,1-5.06-.17h1.27v-2.87H453a5.63,5.63,0,0,1,5.06.16C459.27,211.13,459,212.42,457.43,213.17Z" transform="translate(-257.33 -114.48)"/><path class="cls-110" d="M457.39,213.15a5.53,5.53,0,0,1-5-.17h1.22v-2.83H453a5.53,5.53,0,0,1,5,.17C459.21,211.14,458.94,212.41,457.39,213.15Z" transform="translate(-257.33 -114.48)"/><path class="cls-111" d="M457.36,213.12a5.42,5.42,0,0,1-4.9-.16h1.18v-2.79h-.58a5.45,5.45,0,0,1,4.9.17C459.15,211.15,458.88,212.4,457.36,213.12Z" transform="translate(-257.33 -114.48)"/><path class="cls-112" d="M457.33,213.1a5.4,5.4,0,0,1-4.83-.16h1.14V210.2h-.54a5.35,5.35,0,0,1,4.82.16C459.09,211.16,458.82,212.39,457.33,213.1Z" transform="translate(-257.33 -114.48)"/><path class="cls-113" d="M457.29,213.08a5.27,5.27,0,0,1-4.74-.16h1.09v-2.7h-.51a5.27,5.27,0,0,1,4.74.16C459,211.17,458.76,212.38,457.29,213.08Z" transform="translate(-257.33 -114.48)"/><path class="cls-114" d="M457.26,213.05a5.19,5.19,0,0,1-4.67-.15h1.05v-2.66h-.47a5.17,5.17,0,0,1,4.66.16C459,211.17,458.7,212.36,457.26,213.05Z" transform="translate(-257.33 -114.48)"/><path class="cls-115" d="M457.22,213a5.09,5.09,0,0,1-4.58-.15h1v-2.61h-.44a5.11,5.11,0,0,1,4.59.15C458.9,211.18,458.65,212.35,457.22,213Z" transform="translate(-257.33 -114.48)"/><path class="cls-116" d="M457.19,213a5,5,0,0,1-4.51-.15h1v-2.57h-.41a5,5,0,0,1,4.51.15C458.84,211.19,458.59,212.34,457.19,213Z" transform="translate(-257.33 -114.48)"/><path class="cls-117" d="M457.15,213a4.94,4.94,0,0,1-4.43-.14h.92v-2.53h-.37a4.93,4.93,0,0,1,4.43.15C458.77,211.2,458.53,212.33,457.15,213Z" transform="translate(-257.33 -114.48)"/><path class="cls-118" d="M457.12,213a4.83,4.83,0,0,1-4.35-.14h.87v-2.48h-.34a4.85,4.85,0,0,1,4.36.14C458.71,211.21,458.47,212.32,457.12,213Z" transform="translate(-257.33 -114.48)"/><path class="cls-119" d="M457.09,212.94a4.78,4.78,0,0,1-4.28-.14h.83v-2.44h-.3a4.76,4.76,0,0,1,4.27.14C458.65,211.21,458.41,212.3,457.09,212.94Z" transform="translate(-257.33 -114.48)"/><path class="cls-120" d="M457.05,212.91a4.67,4.67,0,0,1-4.2-.13h.79v-2.4h-.27a4.7,4.7,0,0,1,4.2.14C458.59,211.22,458.35,212.29,457.05,212.91Z" transform="translate(-257.33 -114.48)"/><path class="cls-121" d="M457,212.89a4.57,4.57,0,0,1-4.12-.14h.74v-2.34h-.24a4.6,4.6,0,0,1,4.12.13C458.52,211.23,458.3,212.28,457,212.89Z" transform="translate(-257.33 -114.48)"/><path class="cls-122" d="M457,212.87a4.46,4.46,0,0,1-4-.14h.7v-2.3h-.2a4.46,4.46,0,0,1,4,.14C458.46,211.24,458.24,212.27,457,212.87Z" transform="translate(-257.33 -114.48)"/><path class="cls-123" d="M457,212.84a4.41,4.41,0,0,1-4-.13h.66v-2.25h-.17a4.41,4.41,0,0,1,4,.13C458.4,211.25,458.18,212.26,457,212.84Z" transform="translate(-257.33 -114.48)"/><path class="cls-124" d="M456.92,212.82a4.3,4.3,0,0,1-3.89-.13h.61v-2.21h-.13a4.28,4.28,0,0,1,3.88.13C458.34,211.25,458.12,212.24,456.92,212.82Z" transform="translate(-257.33 -114.48)"/><path class="cls-125" d="M456.88,212.8a4.26,4.26,0,0,1-3.81-.13h.57V210.5h-.1a4.23,4.23,0,0,1,3.81.13C458.27,211.26,458.06,212.23,456.88,212.8Z" transform="translate(-257.33 -114.48)"/><path class="cls-126" d="M456.85,212.77a4.12,4.12,0,0,1-3.73-.12h.52v-2.12h-.07a4.15,4.15,0,0,1,3.74.12C458.21,211.27,458,212.22,456.85,212.77Z" transform="translate(-257.33 -114.48)"/><path class="cls-127" d="M456.81,212.75a4.05,4.05,0,0,1-3.65-.12h.48v-2.08h0a4.05,4.05,0,0,1,3.65.12C458.15,211.28,458,212.21,456.81,212.75Z" transform="translate(-257.33 -114.48)"/><path class="cls-128" d="M456.78,212.73a4,4,0,0,1-3.58-.12c-.86-.6-.67-1.51.44-2a4,4,0,0,1,3.58.12C458.09,211.29,457.89,212.2,456.78,212.73Z" transform="translate(-257.33 -114.48)"/><path class="cls-129" d="M456.75,212.7a3.89,3.89,0,0,1-3.5-.11c-.85-.58-.66-1.48.43-2a3.9,3.9,0,0,1,3.5.11C458,211.29,457.83,212.18,456.75,212.7Z" transform="translate(-257.33 -114.48)"/><path class="cls-130" d="M456.71,212.68a3.79,3.79,0,0,1-3.42-.11c-.83-.57-.64-1.44.42-1.95a3.79,3.79,0,0,1,3.42.11C458,211.3,457.77,212.17,456.71,212.68Z" transform="translate(-257.33 -114.48)"/><path class="cls-131" d="M456.68,212.66a3.77,3.77,0,0,1-3.35-.11c-.81-.56-.62-1.41.41-1.91a3.77,3.77,0,0,1,3.35.11C457.9,211.31,457.71,212.16,456.68,212.66Z" transform="translate(-257.33 -114.48)"/><path class="cls-132" d="M456.64,212.63a3.58,3.58,0,0,1-3.26-.11c-.79-.54-.61-1.37.4-1.85a3.61,3.61,0,0,1,3.26.1C457.84,211.32,457.66,212.15,456.64,212.63Z" transform="translate(-257.33 -114.48)"/><path class="cls-133" d="M456.61,212.61a3.56,3.56,0,0,1-3.19-.11c-.77-.53-.6-1.34.39-1.81a3.56,3.56,0,0,1,3.19.1C457.77,211.32,457.6,212.14,456.61,212.61Z" transform="translate(-257.33 -114.48)"/><path class="cls-134" d="M456.57,212.59a3.45,3.45,0,0,1-3.11-.11c-.75-.51-.58-1.31.39-1.77a3.45,3.45,0,0,1,3.11.11C457.71,211.33,457.54,212.13,456.57,212.59Z" transform="translate(-257.33 -114.48)"/><path class="cls-135" d="M456.54,212.56a3.35,3.35,0,0,1-3-.1c-.74-.5-.57-1.27.37-1.72a3.35,3.35,0,0,1,3,.1C457.65,211.34,457.48,212.11,456.54,212.56Z" transform="translate(-257.33 -114.48)"/><path class="cls-136" d="M456.51,212.54a3.29,3.29,0,0,1-3-.1c-.71-.49-.55-1.24.37-1.68a3.27,3.27,0,0,1,2.95.1C457.59,211.35,457.42,212.1,456.51,212.54Z" transform="translate(-257.33 -114.48)"/><path class="cls-137" d="M456.47,212.52a3.2,3.2,0,0,1-2.87-.1c-.7-.48-.54-1.21.35-1.64a3.22,3.22,0,0,1,2.88.1C457.52,211.36,457.36,212.09,456.47,212.52Z" transform="translate(-257.33 -114.48)"/><path class="cls-138" d="M456.44,212.49a3.08,3.08,0,0,1-2.8-.09c-.68-.47-.52-1.18.34-1.59a3.08,3.08,0,0,1,2.8.09C457.46,211.36,457.31,212.08,456.44,212.49Z" transform="translate(-257.33 -114.48)"/><path class="cls-139" d="M456.4,212.47a3,3,0,0,1-2.72-.09c-.66-.45-.51-1.15.34-1.55a3,3,0,0,1,2.72.09C457.4,211.37,457.25,212.07,456.4,212.47Z" transform="translate(-257.33 -114.48)"/><path class="cls-140" d="M456.37,212.45a2.94,2.94,0,0,1-2.64-.09c-.64-.44-.5-1.12.32-1.51a3,3,0,0,1,2.65.09C457.34,211.38,457.19,212.05,456.37,212.45Z" transform="translate(-257.33 -114.48)"/><path class="cls-141" d="M456.34,212.42a2.88,2.88,0,0,1-2.57-.08c-.62-.43-.48-1.08.32-1.46a2.83,2.83,0,0,1,2.56.08C457.27,211.39,457.13,212,456.34,212.42Z" transform="translate(-257.33 -114.48)"/><path class="cls-142" d="M456.3,212.4a2.78,2.78,0,0,1-2.49-.08c-.6-.42-.46-1,.31-1.42a2.78,2.78,0,0,1,2.49.08C457.21,211.4,457.07,212,456.3,212.4Z" transform="translate(-257.33 -114.48)"/><path class="cls-143" d="M456.27,212.38a2.7,2.7,0,0,1-2.41-.08c-.59-.41-.45-1,.29-1.38a2.7,2.7,0,0,1,2.41.08C457.15,211.4,457,212,456.27,212.38Z" transform="translate(-257.33 -114.48)"/><path class="cls-144" d="M456.23,212.35a2.57,2.57,0,0,1-2.33-.08c-.56-.38-.44-1,.29-1.32a2.6,2.6,0,0,1,2.33.07C457.09,211.41,457,212,456.23,212.35Z" transform="translate(-257.33 -114.48)"/><path class="cls-145" d="M456.2,212.33a2.51,2.51,0,0,1-2.26-.08c-.54-.37-.42-.95.28-1.28a2.55,2.55,0,0,1,2.26.07C457,211.42,456.9,212,456.2,212.33Z" transform="translate(-257.33 -114.48)"/><path class="cls-146" d="M456.17,212.3a2.38,2.38,0,0,1-2.18-.07c-.53-.36-.41-.91.27-1.24a2.39,2.39,0,0,1,2.17.08C457,211.43,456.84,212,456.17,212.3Z" transform="translate(-257.33 -114.48)"/><path class="cls-147" d="M456.13,212.28a2.34,2.34,0,0,1-2.1-.07c-.51-.35-.39-.88.26-1.19a2.34,2.34,0,0,1,2.1.07C456.9,211.44,456.78,212,456.13,212.28Z" transform="translate(-257.33 -114.48)"/><path class="cls-148" d="M456.1,212.26a2.23,2.23,0,0,1-2-.07c-.49-.33-.38-.85.24-1.15a2.25,2.25,0,0,1,2,.07C456.84,211.44,456.72,212,456.1,212.26Z" transform="translate(-257.33 -114.48)"/><path class="cls-149" d="M456.06,212.23a2.16,2.16,0,0,1-1.94-.06c-.47-.32-.36-.82.24-1.11a2.16,2.16,0,0,1,1.94.07C456.77,211.45,456.67,212,456.06,212.23Z" transform="translate(-257.33 -114.48)"/><path class="cls-150" d="M456,212.21a2.07,2.07,0,0,1-1.87-.06c-.45-.31-.35-.79.23-1.06a2.07,2.07,0,0,1,1.87.06C456.71,211.46,456.61,211.93,456,212.21Z" transform="translate(-257.33 -114.48)"/><path class="cls-150" d="M456,212.19a2,2,0,0,1-1.79-.06c-.44-.3-.34-.75.22-1a2,2,0,0,1,1.79.06C456.65,211.47,456.55,211.92,456,212.19Z" transform="translate(-257.33 -114.48)"/><path class="cls-151" d="M456,212.16a1.89,1.89,0,0,1-1.71,0c-.41-.29-.32-.72.21-1a1.92,1.92,0,0,1,1.71.06C456.59,211.48,456.49,211.91,456,212.16Z" transform="translate(-257.33 -114.48)"/><path class="cls-152" d="M455.93,212.14a1.84,1.84,0,0,1-1.64,0c-.39-.27-.3-.69.2-.93a1.84,1.84,0,0,1,1.64.05C456.52,211.48,456.43,211.9,455.93,212.14Z" transform="translate(-257.33 -114.48)"/><path class="cls-153" d="M455.89,212.12a1.75,1.75,0,0,1-1.55-.05c-.38-.26-.29-.66.19-.89a1.71,1.71,0,0,1,1.55,0C456.46,211.49,456.38,211.89,455.89,212.12Z" transform="translate(-257.33 -114.48)"/><path class="cls-154" d="M455.86,212.09a1.66,1.66,0,0,1-1.48,0c-.36-.25-.27-.63.18-.85a1.7,1.7,0,0,1,1.48.05C456.4,211.5,456.32,211.88,455.86,212.09Z" transform="translate(-257.33 -114.48)"/><path class="cls-155" d="M455.82,212.07a1.51,1.51,0,0,1-1.39,0c-.34-.23-.27-.58.17-.79a1.56,1.56,0,0,1,1.4,0C456.34,211.51,456.26,211.86,455.82,212.07Z" transform="translate(-257.33 -114.48)"/><path class="cls-156" d="M455.79,212.05a1.48,1.48,0,0,1-1.32-.05c-.32-.22-.25-.55.16-.75a1.52,1.52,0,0,1,1.32,0C456.27,211.51,456.2,211.85,455.79,212.05Z" transform="translate(-257.33 -114.48)"/><path class="cls-156" d="M455.76,212a1.37,1.37,0,0,1-1.25,0c-.3-.2-.23-.52.16-.71a1.38,1.38,0,0,1,1.24,0C456.21,211.52,456.14,211.84,455.76,212Z" transform="translate(-257.33 -114.48)"/><path class="cls-157" d="M455.72,212a1.27,1.27,0,0,1-1.16,0c-.29-.19-.22-.49.14-.66a1.3,1.3,0,0,1,1.17,0C456.15,211.53,456.08,211.83,455.72,212Z" transform="translate(-257.33 -114.48)"/><path class="cls-158" d="M455.69,212a1.22,1.22,0,0,1-1.09,0c-.26-.18-.2-.46.13-.62a1.22,1.22,0,0,1,1.09,0C456.09,211.54,456,211.82,455.69,212Z" transform="translate(-257.33 -114.48)"/><path class="cls-159" d="M455.65,212a1.12,1.12,0,0,1-1,0c-.24-.17-.19-.43.13-.58a1.15,1.15,0,0,1,1,0C456,211.55,456,211.8,455.65,212Z" transform="translate(-257.33 -114.48)"/><path class="cls-159" d="M455.62,211.93a1,1,0,0,1-.93,0c-.23-.16-.18-.39.11-.53a1,1,0,0,1,.93,0C456,211.55,455.91,211.79,455.62,211.93Z" transform="translate(-257.33 -114.48)"/><path class="cls-160" d="M455.59,211.91a1,1,0,0,1-.86,0c-.21-.14-.16-.36.11-.49a1,1,0,0,1,.85,0C455.9,211.56,455.85,211.78,455.59,211.91Z" transform="translate(-257.33 -114.48)"/><path class="cls-161" d="M455.55,211.88a.85.85,0,0,1-.78,0c-.18-.13-.14-.33.1-.44a.85.85,0,0,1,.78,0C455.84,211.57,455.79,211.77,455.55,211.88Z" transform="translate(-257.33 -114.48)"/><path class="cls-161" d="M455.52,211.86a.81.81,0,0,1-.7,0c-.17-.12-.13-.3.08-.4a.78.78,0,0,1,.7,0C455.77,211.58,455.73,211.76,455.52,211.86Z" transform="translate(-257.33 -114.48)"/><path class="cls-162" d="M455.48,211.84a.71.71,0,0,1-.62,0c-.15-.11-.11-.27.08-.36a.71.71,0,0,1,.62,0C455.71,211.59,455.68,211.74,455.48,211.84Z" transform="translate(-257.33 -114.48)"/><path class="cls-162" d="M455.45,211.81a.6.6,0,0,1-.54,0c-.14-.1-.11-.23.06-.31a.59.59,0,0,1,.55,0C455.65,211.59,455.62,211.73,455.45,211.81Z" transform="translate(-257.33 -114.48)"/><path class="cls-163" d="M455.42,211.79a.51.51,0,0,1-.47,0c-.11-.07-.09-.19.06-.26a.53.53,0,0,1,.46,0C455.59,211.6,455.56,211.72,455.42,211.79Z" transform="translate(-257.33 -114.48)"/><path class="cls-164" d="M455.38,211.77a.44.44,0,0,1-.39,0c-.09-.06-.07-.16.05-.22a.41.41,0,0,1,.39,0C455.52,211.61,455.5,211.71,455.38,211.77Z" transform="translate(-257.33 -114.48)"/><path class="cls-164" d="M455.35,211.74a.34.34,0,0,1-.31,0c-.08,0-.06-.13,0-.17a.33.33,0,0,1,.32,0C455.46,211.62,455.44,211.7,455.35,211.74Z" transform="translate(-257.33 -114.48)"/><path class="cls-165" d="M455.31,211.72a.26.26,0,0,1-.23,0c-.06,0,0-.1,0-.13a.23.23,0,0,1,.23,0C455.4,211.63,455.39,211.68,455.31,211.72Z" transform="translate(-257.33 -114.48)"/><path class="cls-166" d="M455.28,211.7a.18.18,0,0,1-.16,0s0-.06,0-.09a.18.18,0,0,1,.16,0S455.33,211.67,455.28,211.7Z" transform="translate(-257.33 -114.48)"/><path class="cls-166" d="M455.25,211.67a.11.11,0,0,1-.08,0s0,0,0,0a.06.06,0,0,1,.07,0A0,0,0,0,1,455.25,211.67Z" transform="translate(-257.33 -114.48)"/></g><path class="cls-167" d="M465.72,218.22a2.4,2.4,0,0,1-1.14-.28l-4.41-2.55a.51.51,0,0,1-.18-.7.51.51,0,0,1,.69-.18l4.41,2.54a1.46,1.46,0,0,0,1.26,0l3.45-2a.51.51,0,1,1,.51.88l-3.45,2A2.4,2.4,0,0,1,465.72,218.22Z" transform="translate(-257.33 -114.48)"/><polygon class="cls-168" points="191.24 94.85 198.32 90.73 194.35 88.94 190.96 91.35 191.24 94.85"/><path class="cls-169" d="M494.05,203.22a10.45,10.45,0,0,1-1.19-.74l-15.09-11.06c-2.72-2-5.53-2.52-7.7-1.42l-.16.1h0l-20.84,12.09,1.87.62,7.3,3.31,9.93,7,7.84,4.16.36.07c1.82-1.54,3.87-2.86,5-5.1,1.94-3.4,7.34-4.37,10.52-7.12.32.2.64.39,1,.56A7,7,0,0,0,494.05,203.22Z" transform="translate(-257.33 -114.48)"/><path class="cls-170" d="M500.67,198.23a1.35,1.35,0,0,0-.85.3h0l-20.39,11.81.74,3,.77-.36c-1.17,1.82-3,3-4.58,4.38l2.3.49,20-11.62.27-.12a5,5,0,0,0,.77-.49l0,0h0a7,7,0,0,0,2.37-5.77v-.24A1.4,1.4,0,0,0,500.67,198.23Z" transform="translate(-257.33 -114.48)"/><path class="cls-171" d="M472.74,189.44a8.55,8.55,0,0,1,4,1.3A8.55,8.55,0,0,0,472.74,189.44Z" transform="translate(-257.33 -114.48)"/><path class="cls-171" d="M482,211.28V211a1.4,1.4,0,1,0-2.8,0v.24c0,1.87-.6,3.25-1.64,3.78s-3,.15-4.77-1.18l-15.09-11c-2.33-1.71-4.71-2.32-6.7-1.79l12.46-7.23-14.44,8.38,1.87.62,7.3,3.31,9.93,7,7.84,4.16.36.07c1.82-1.54,3.87-2.86,5-5.1a5.29,5.29,0,0,1,.69-.94Z" transform="translate(-257.33 -114.48)"/><path class="cls-135" d="M476,218.58a9.06,9.06,0,0,1-5.25-2l-15.09-11.06c-1.82-1.33-3.6-1.77-4.78-1.17s-1.63,1.9-1.63,3.77a1.4,1.4,0,1,1-2.8,0c0-3,1.15-5.25,3.17-6.27s5-.59,7.7,1.41l15.09,11.06c1.81,1.33,3.6,1.76,4.77,1.17s1.64-1.9,1.64-3.78v-.24a1.4,1.4,0,0,1,2.8,0v.24c0,3-1.16,5.26-3.17,6.28A5.38,5.38,0,0,1,476,218.58Z" transform="translate(-257.33 -114.48)"/><path class="cls-172" d="M423.29,241a5.68,5.68,0,0,1,.61,2.81c-.23,1.11-2.91,4.94-3.7,7.06s-4.81,5.29-7.06,5.28-4.34-.93-3.26-3.44a16.81,16.81,0,0,1,2.9-4.6,21.18,21.18,0,0,0,2.89-5.81C415.92,240.93,423.29,241,423.29,241Z" transform="translate(-257.33 -114.48)"/><path class="cls-172" d="M412.23,230.66a8.77,8.77,0,0,1,0,3c-.33.81-1,1.53-3.05,2.11a23.07,23.07,0,0,0-7.18,2.76c-3.32,2-7.86,2.82-9.22.65s3.36-5.42,5.09-6.27,4.43-1.28,5.88-2.58,1.7-1,1.7-1Z" transform="translate(-257.33 -114.48)"/><path class="cls-173" d="M424.35,191.5s-1.64,14.76-1.15,19.94,3.81,14.81,2.72,21.28-2.38,9.19-2.38,9.19-4.45,4.56-7.86.48c0,0,1.43-2.62,1.24-9.43-.1-3.46-.17-5.45-.21-6.56A5.06,5.06,0,0,0,416,224a60.18,60.18,0,0,1-4.8-10.18s.77,9.57.71,13.88a10.33,10.33,0,0,0,.18,2,4.89,4.89,0,0,1,.06,1.83c-.23,1.11-4.2,5.31-7.44,1.94,0,0-1.26-.84-1-3.48a52.81,52.81,0,0,0-.65-8.64,19.92,19.92,0,0,0-2.13-6.81,56.65,56.65,0,0,1-2.28-6.85c-1.06-3.23-5-18.68-5.1-22.19s4.27-6,4.27-6,9.95,4.86,9.76,5.39,12.46,5.85,12.46,5.85Z" transform="translate(-257.33 -114.48)"/><path class="cls-5" d="M397.85,179.5s9.95,4.86,9.76,5.39,12.46,5.85,12.46,5.85l4.28.76s-1.64,14.76-1.15,19.94,3.81,14.81,2.72,21.28-2.38,9.19-2.38,9.19a9,9,0,0,1-1.81,1.36c.58-1.91,2.51-8.63,2.45-14.5-.07-6.86-3.05-17.92-3.21-21.48a3.6,3.6,0,0,0-3.34-3.54c-2.89-.13-7.13-.6-10-2.24.92,3.83,3.62,12.33,3.62,12.33s.82,10.23.7,14.3a5,5,0,0,0,.12,1.22,5.63,5.63,0,0,1,.13,2.19,4.6,4.6,0,0,1-1.5,1.91c-.09-4.21-.92-14.86-1.22-17.31-.34-2.73-3.23-13.69-3.23-13.69-1.52-1.18-2.26-4-2.55-5.4-1.29-2.77-1.48-5.39-3.88-5.44-.2,0-3.18,3.67-5.16.77a56.53,56.53,0,0,1-1.05-6.87C393.52,182,397.85,179.5,397.85,179.5Z" transform="translate(-257.33 -114.48)"/><path class="cls-174" d="M394.08,186l.54,1.87s.86.12,2-1.2a1.94,1.94,0,0,0,.06-2.59l-2.22.49Z" transform="translate(-257.33 -114.48)"/><path class="cls-175" d="M401.79,135.05a4.45,4.45,0,0,0-2,.71c-1.4.75-3.18,2.72-4.18,7.46s-5.2,17.16-5.53,19.46.46,16.9,1.84,23.15a.8.8,0,0,0,1,.61,18.57,18.57,0,0,0,4.6-2.18c1.76-1.35,1.44-12,1.44-12l-1.19-13.64,1.94-11.16s2.76-8.82,2.36-9.39S401.79,135.05,401.79,135.05Z" transform="translate(-257.33 -114.48)"/><path class="cls-176" d="M432.25,148.62s1.93,3.7-.61,8.6-8.74,15.06-8.74,15.06,2,14.13,1.72,17.59-2.86,7.51-3.52,8.81-6,4.57-12.26,1.45-6.73-7.34-7.35-11.95-.42-4.33-.42-4.33-2.89,9.1-4.62,7.39c-.75-.73-.8-3-.6-5.32a115.43,115.43,0,0,0,.35-15c0-.18,0-.33,0-.46,0-1.58-.29-16.07.13-20s-.17-10,1.88-12.57a10.4,10.4,0,0,1,3.59-2.9l2.89-.15s16.84-1.38,18.3.77a18.51,18.51,0,0,1,2,3.54s5.08,5.32,7.29,9.41Z" transform="translate(-257.33 -114.48)"/><path class="cls-177" d="M418.91,133.25a2.33,2.33,0,0,1,1,1.18,21.62,21.62,0,0,0,1.57,3.58s-7.45,7.05-10.23,10.67a22.59,22.59,0,0,0-3.68,6.6l-3.86-4.53,1.2-1.33.65-3,1.15-3.38.82-3.33,9.24-5.25Z" transform="translate(-257.33 -114.48)"/><path class="cls-178" d="M411.52,142.84a5.89,5.89,0,0,1,2,2.4,10,10,0,0,0-1.88-1.1,9.73,9.73,0,0,0-1.27,1.46,29.55,29.55,0,0,0,0,4.22l-.52.78-.61.07s-.07-2.72-.14-2.86a15.79,15.79,0,0,1-.14-2.49c0-.17,2-2,2-2l.69-.46Z" transform="translate(-257.33 -114.48)"/><path class="cls-179" d="M407.61,142a3.22,3.22,0,0,1,1.57-.3A8,8,0,0,1,411.7,143c.25.32-.07.74-1,1.47s-1.05,1.17-1.05,1.17a18.77,18.77,0,0,1,.23,5,31,31,0,0,0-2.4,5.22c-.42,1.7-2.19-5.47-2.19-5.47s.61-2.29.89-2.87,1.38-3.67,1.1-4.21S407.61,142,407.61,142Z" transform="translate(-257.33 -114.48)"/><path class="cls-180" d="M424.41,139.67l-1.27,2.64-2.23-.12.27,2.32S412,150.64,408.47,157l.22.68a42.86,42.86,0,0,1,13-12.43l.29-.18-.45-2.25,2,.37Z" transform="translate(-257.33 -114.48)"/><path class="cls-181" d="M409.24,140.38a2,2,0,0,0,1.59,1.24c1.19.1,7.6-2.39,8.54-6.14,0,0-.39-1.8-.43-2.12a1.69,1.69,0,0,0,.54-.93,15.54,15.54,0,0,1,.76-2.22,3,3,0,0,0,.3-1.75s1.91-10.45-3.83-12.25-9.9,0-11.78,5.87c0,0-.45,1.6-.82,2.78a4.13,4.13,0,0,0,0,2.31,3.63,3.63,0,0,1,.19,1.17,15.8,15.8,0,0,0-.11,4.41s-.46,1.11.3,1.52.59,3.7.59,3.7l2.13,2.19S407.63,140.64,409.24,140.38Z" transform="translate(-257.33 -114.48)"/><path class="cls-182" d="M420.58,129s4.11-9.31-2.51-13.09c-5.18-3-11.63-1.53-13.5,5.18,0,0-.48,1.74,1.85,2.57s5.31,1.74,6.66,1.71,2.05.73,2.07,2.52a3.43,3.43,0,0,0,.24,1.58.87.87,0,0,1,.14.55v.34a.56.56,0,0,0,.35.52c.33.1.7,0,.71-.07h0a3.78,3.78,0,0,1,1.67-2.7C419.26,127.49,420.43,127.15,420.58,129Z" transform="translate(-257.33 -114.48)"/><path class="cls-183" d="M406.17,147.48c.29-.58,1.38-3.67,1.1-4.21s.34-1.26.34-1.26a3.22,3.22,0,0,1,1.57-.3l.22.06v0s-.8,1.43-1,1.78-.92,4-1.32,4.79a33.17,33.17,0,0,0-1.17,3.64l-.24-.13c-.24-.87-.4-1.53-.4-1.53S405.89,148.06,406.17,147.48Z" transform="translate(-257.33 -114.48)"/><path class="cls-174" d="M406.78,138.17a8,8,0,0,1,1.09,2.25,1.32,1.32,0,0,1-.7-.26l-.84-.87C406.56,138.7,406.78,138.17,406.78,138.17Z" transform="translate(-257.33 -114.48)"/><path class="cls-181" d="M400,152.07a6.91,6.91,0,0,1-1.1-3.29,20.78,20.78,0,0,1,.45-3.28s-.85,0-.8-1.23a4.33,4.33,0,0,1,.83-2.76,1.17,1.17,0,0,1,.87-.23s.31-1,1.22-.88a1.64,1.64,0,0,1,.8-1.17.87.87,0,0,1,1.26.27s.31-1.1.62-1.28A2.51,2.51,0,0,1,405,138s1.48-.19,1.74.2a29,29,0,0,1,.93,4.85c-.06.22-.41,2.4-.63,3.09s-1.92,2.46-2.19,3.31-3,3.57-3,3.57S400,152.07,400,152.07Z" transform="translate(-257.33 -114.48)"/><path class="cls-180" d="M401.07,183.85s.08-14.74,2.53-21.27l-1.27,2.11a83.55,83.55,0,0,0-1.61,20.19Z" transform="translate(-257.33 -114.48)"/><path class="cls-180" d="M401.46,160.73s11,9.86,11,10,16.05-9.89,16.05-9.89l.49,1.12c-2.78,4.86-6.13,10.34-6.13,10.34s.24,1.71.55,4.08c0,0-7.91,8.44-12.84,7.36-4.25-.93-8.8-15.05-9.94-18.85a3,3,0,0,1,0-1.86Z" transform="translate(-257.33 -114.48)"/><path class="cls-174" d="M399.37,150.59a13.24,13.24,0,0,1,4.43-1.21l-3.33,2.92-.44-.23a9,9,0,0,1-.72-1.44Z" transform="translate(-257.33 -114.48)"/><path class="cls-184" d="M419.65,154.66a25.32,25.32,0,0,1,6.2-5.24c2-1.3,4.2-2.29,5.39-1.47,2.58,1.79,2,5.06.83,8.35s-12.29,21.89-20,21.48c0,0-5.6-5.8-8.17-10.34-2.16-3.81-5.68-10.39-6.73-12.35a.84.84,0,0,1,.18-1c1.51-1.37,6.16-5.44,7.54-4.76,0,0,3.16,8,6.33,11.92l2.48,2.36a67.5,67.5,0,0,1,3.7-6C418,156.84,418.84,155.71,419.65,154.66Z" transform="translate(-257.33 -114.48)"/><path class="cls-174" d="M410.83,141.62a2,2,0,0,1-1.59-1.24s6.59-2.64,7.29-6.66c0,0,.05,4.24-1.69,6.47A10.53,10.53,0,0,1,410.83,141.62Z" transform="translate(-257.33 -114.48)"/><path class="cls-185" d="M411.22,213.84v.1A.41.41,0,0,1,411.22,213.84Z" transform="translate(-257.33 -114.48)"/><path class="cls-5" d="M417,243.53a5.16,5.16,0,0,1-1.3-1.14s1.43-2.62,1.24-9.43c-.1-3.45-.17-5.44-.21-6.56A4.93,4.93,0,0,0,416,224a62.12,62.12,0,0,1-4.55-9.53.24.24,0,0,0,0-.08c1.12,2,6.16,8,6.82,12.59S417.47,240.69,417,243.53Z" transform="translate(-257.33 -114.48)"/><path class="cls-185" d="M411.44,214.41l0-.06-.19-.51C411.25,213.71,411.33,213.93,411.44,214.41Z" transform="translate(-257.33 -114.48)"/><path class="cls-180" d="M398,153.44s10.06,21.74,14.65,22.6,16.93-15.12,16.93-15.12V161c-4,6.57-11.73,17.11-17.57,16.8,0,0-5.6-5.8-8.17-10.34-2.16-3.81-5.68-10.39-6.73-12.35a.84.84,0,0,1,.18-1Z" transform="translate(-257.33 -114.48)"/><path class="cls-180" d="M413.66,163.6a23.18,23.18,0,0,1,1.74,3.32l-1.51-3.73Z" transform="translate(-257.33 -114.48)"/><path class="cls-183" d="M420.58,129a17.19,17.19,0,0,0,1.26-5.8,2,2,0,0,1-.8,1.39c-1.13.75-5.86,4-5.86,4a2,2,0,0,0,.21.92.87.87,0,0,1,.14.55v.34a.56.56,0,0,0,.35.52c.33.1.7,0,.71-.07h0a3.78,3.78,0,0,1,1.67-2.69C419.26,127.49,420.43,127.15,420.58,129Z" transform="translate(-257.33 -114.48)"/><path class="cls-186" d="M381.65,242.22a3.74,3.74,0,0,1,.8-3.77c1.61-1.62,10.09-5.19,10.71-5.57s3.66-2.63,3.66-2.63l.93-2.08s-17.22,1.68-17.45,2-8.06,7.29-7.83,7.6a46.9,46.9,0,0,0,5.4,1.56l1,1.36Z" transform="translate(-257.33 -114.48)"/><path class="cls-187" d="M289.91,213.39v51.24a1.72,1.72,0,0,0,2.89,1.67l40.56-23.42a8.77,8.77,0,0,0,3.91-6.77V184.87h2v51.24a10.75,10.75,0,0,1-4.93,8.54l-40.56,23.41a5,5,0,0,1-2.48.75,3.31,3.31,0,0,1-.55-.05l.25.2-1-.39h0a3,3,0,0,1-.4-.2,4.05,4.05,0,0,1-1.81-3.74V213.39Z" transform="translate(-257.33 -114.48)"/><path class="cls-188" d="M292.42,269.25a5.06,5.06,0,0,0,2.48-.74l40.56-23.42a10.77,10.77,0,0,0,4.93-8.54V185.31h-2v51.24a8.77,8.77,0,0,1-3.91,6.77l-40.56,23.42a1.72,1.72,0,0,1-2.89-1.67V213.83h-2v51.24a4.08,4.08,0,0,0,1.81,3.75A3.26,3.26,0,0,0,292.42,269.25Z" transform="translate(-257.33 -114.48)"/><path class="cls-135" d="M290.38,234.68l92.84,53.6V291l-92.84-53.6Z" transform="translate(-257.33 -114.48)"/><path class="cls-189" d="M289.48,235.16l93.74,54.13V292l-93.74-54.12Z" transform="translate(-257.33 -114.48)"/><path class="cls-190" d="M383.8,267.77V319a2.2,2.2,0,0,0,.79,2,2.17,2.17,0,0,0,2.1-.31l40.56-23.41a8.81,8.81,0,0,0,3.91-6.78V239.25h2v51.24a10.74,10.74,0,0,1-4.93,8.54l-40.56,23.42a5,5,0,0,1-2.48.74,4.91,4.91,0,0,1-.55,0l.25.2-1-.39h0a2.93,2.93,0,0,1-.4-.19,4.06,4.06,0,0,1-1.81-3.75V267.77Z" transform="translate(-257.33 -114.48)"/><path class="cls-191" d="M386.3,323.64a5,5,0,0,0,2.49-.75l40.56-23.41a10.77,10.77,0,0,0,4.93-8.54V239.7h-2v51.24a8.79,8.79,0,0,1-3.91,6.77l-40.56,23.41a1.71,1.71,0,0,1-2.89-1.66V268.22h-2v51.24a4.07,4.07,0,0,0,1.8,3.74A3.32,3.32,0,0,0,386.3,323.64Z" transform="translate(-257.33 -114.48)"/><polygon class="cls-135" points="16.86 96.46 77.44 61.53 195.47 133.54 134.8 168.51 16.86 96.46"/><path class="cls-192" d="M453.46,246.44a4.69,4.69,0,0,0-2-3.76L336.07,176.11c-1.09-.63-2,0-2,1.49a4.73,4.73,0,0,0,2,3.77l111.85,64.5-60,34.57,4.18,2.55,60.66-35h0A1.75,1.75,0,0,0,453.46,246.44Z" transform="translate(-257.33 -114.48)"/><path class="cls-193" d="M275.39,216.35l115.42,66.56c1.09.63,2,0,2-1.49h0a4.69,4.69,0,0,0-2-3.76L275.39,211.09c-1.09-.63-2,0-2,1.49h0A4.73,4.73,0,0,0,275.39,216.35Z" transform="translate(-257.33 -114.48)"/><path class="cls-194" d="M391.6,278.34a2.93,2.93,0,0,0-.79-.68L275.39,211.09a1.28,1.28,0,0,0-1.19-.14h0L334.78,176h0a1.25,1.25,0,0,1,1.28.09l115.42,66.57a3.11,3.11,0,0,1,.79.68Z" transform="translate(-257.33 -114.48)"/><path class="cls-195" d="M275.72,210.06l115,66.35a3.37,3.37,0,0,1,1,.59l59.65-34.39.12.07a3.11,3.11,0,0,1,.79.68l-60.68,35a2.93,2.93,0,0,0-.79-.68L275.39,211.09a1.28,1.28,0,0,0-1.19-.14h0Z" transform="translate(-257.33 -114.48)"/><polygon class="cls-5" points="123.35 142.67 100.77 129.64 115.39 121.2 137.97 134.23 123.35 142.67"/><polygon class="cls-196" points="120.81 141.24 98.24 128.21 112.86 119.77 135.43 132.8 120.81 141.24"/><polygon class="cls-195" points="120.81 140.68 98.24 127.64 112.86 119.2 135.43 132.24 120.81 140.68"/><polygon class="cls-196" points="120.81 140.11 98.24 127.08 112.86 118.64 135.43 131.67 120.81 140.11"/><polygon class="cls-195" points="120.81 139.54 98.24 126.51 112.86 118.07 135.43 131.1 120.81 139.54"/><path class="cls-196" d="M374.67,247.36a2.85,2.85,0,0,1-1.44-.38l-5.36-3.1a.68.68,0,0,1-.35-.6.69.69,0,0,1,.35-.6l5.36-3.09.06.1-.06-.1a2.9,2.9,0,0,1,2.88,0l5.37,3.09a.7.7,0,0,1,.34.6.69.69,0,0,1-.34.6l-5.37,3.1A2.82,2.82,0,0,1,374.67,247.36Zm0-7.91a2.65,2.65,0,0,0-1.31.35L368,242.9a.43.43,0,0,0-.22.38.44.44,0,0,0,.22.39l5.36,3.1a2.7,2.7,0,0,0,2.64,0l5.36-3.1a.44.44,0,0,0,.22-.39.43.43,0,0,0-.22-.38L376,239.8A2.69,2.69,0,0,0,374.67,239.45Z" transform="translate(-257.33 -114.48)"/><path class="cls-196" d="M374.64,245.1l2.78-1.61a.66.66,0,0,1,.58,0,.18.18,0,0,1,0,.34l-2.78,1.6a.6.6,0,0,1-.58,0A.17.17,0,0,1,374.64,245.1Z" transform="translate(-257.33 -114.48)"/><path class="cls-197" d="M373.42,244.73a.17.17,0,0,1,0-.33l2.37-1.38a.65.65,0,0,1,.59,0,.17.17,0,0,1,0,.33L374,244.73A.66.66,0,0,1,373.42,244.73Z" transform="translate(-257.33 -114.48)"/><path class="cls-196" d="M372.2,243.69l.86-.49a.6.6,0,0,1,.58,0,.17.17,0,0,1,0,.33l-.86.5a.66.66,0,0,1-.58,0A.18.18,0,0,1,372.2,243.69Z" transform="translate(-257.33 -114.48)"/><path class="cls-196" d="M371,243l2.43-1.4a.66.66,0,0,1,.58,0c.16.09.16.24,0,.34l-2.43,1.39a.6.6,0,0,1-.58,0A.17.17,0,0,1,371,243Z" transform="translate(-257.33 -114.48)"/><path class="cls-196" d="M376.27,241.68c.16.09.16.24,0,.34l-1.57.9a.66.66,0,0,1-.58,0c-.16-.09-.16-.24,0-.34l1.57-.9A.66.66,0,0,1,376.27,241.68Z" transform="translate(-257.33 -114.48)"/><path class="cls-5" d="M400.79,236.34a1,1,0,0,0-.49-1.48h0L391,230.58l-5.39,3.11,7.45,5.22.05,0,.07.05h0a3.85,3.85,0,0,0,2.58.28C397.93,238.93,400.2,237.62,400.79,236.34Z" transform="translate(-257.33 -114.48)"/><path class="cls-198" d="M393.17,221h-10l.93,10.86h0a2,2,0,0,0,1.2,1.67,6.38,6.38,0,0,0,5.77,0,2,2,0,0,0,1.2-1.67Z" transform="translate(-257.33 -114.48)"/><path class="cls-199" d="M393.17,221h-10l.15,1.79a4,4,0,0,0,.93.83,8.4,8.4,0,0,0,7.24.6l-.33,7.95a1.61,1.61,0,0,1-.36.94,3.66,3.66,0,0,1-2.16,1.09,5.73,5.73,0,0,0,2.43-.67,2,2,0,0,0,1.2-1.67l.75-8.71h0Z" transform="translate(-257.33 -114.48)"/><path class="cls-5" d="M391.7,223.08a7.84,7.84,0,0,1-7.09,0c-2-1.13-2-3,0-4.1a7.84,7.84,0,0,1,7.09,0C393.66,220.11,393.66,222,391.7,223.08Z" transform="translate(-257.33 -114.48)"/><path class="cls-5" d="M391.21,221.77a6.72,6.72,0,0,1-6.11,0c-1.69-1-1.69-2.55,0-3.52a6.72,6.72,0,0,1,6.11,0C392.9,219.22,392.9,220.8,391.21,221.77Z" transform="translate(-257.33 -114.48)"/><path class="cls-200" d="M393.47,220.89h0v0l-.1-1h0a2.66,2.66,0,0,0-1.53-2,8.18,8.18,0,0,0-7.37,0,2.63,2.63,0,0,0-1.53,2.09h0l-.09.87a.2.2,0,0,1,0,.07h0a2.6,2.6,0,0,0,1.56,2.29,8.3,8.3,0,0,0,7.52,0A2.59,2.59,0,0,0,393.47,220.89Z" transform="translate(-257.33 -114.48)"/><path class="cls-201" d="M391.21,221.82a6.72,6.72,0,0,1-6.11,0c-1.69-1-1.69-2.55,0-3.52a6.72,6.72,0,0,1,6.11,0C392.9,219.27,392.9,220.85,391.21,221.82Z" transform="translate(-257.33 -114.48)"/><path class="cls-5" d="M385.61,218.62a6.72,6.72,0,0,1,6.11,0l.06,0a2.78,2.78,0,0,0-.57-.41,6.72,6.72,0,0,0-6.11,0c-1.66,1-1.68,2.51-.06,3.48C384,220.77,384.15,219.46,385.61,218.62Z" transform="translate(-257.33 -114.48)"/><path class="cls-202" d="M385.1,218.68a6.72,6.72,0,0,1,6.11,0,2.28,2.28,0,0,1,1.25,1.55,2,2,0,0,0-1.25-2,6.72,6.72,0,0,0-6.11,0,2,2,0,0,0-1.25,2A2.28,2.28,0,0,1,385.1,218.68Z" transform="translate(-257.33 -114.48)"/><path class="cls-203" d="M391.88,217.91a8.2,8.2,0,0,0-7.41-.07c-2.05,1.16-2.07,3.08,0,4.27a8.18,8.18,0,0,0,7.4.07C393.89,221,393.91,219.1,391.88,217.91Zm-.67,3.86a5.53,5.53,0,0,1-2,.65l-.08-.26a.25.25,0,0,0-.24-.17h-1.55a.26.26,0,0,0-.24.17l-.07.26a5.65,5.65,0,0,1-2-.65c-1.69-1-1.69-2.55,0-3.52a6.72,6.72,0,0,1,6.11,0C392.9,219.22,392.9,220.8,391.21,221.77Z" transform="translate(-257.33 -114.48)"/><rect class="cls-204" x="130.24" y="107.83" width="1.16" height="0.25" rx="0.12"/><path class="cls-205" d="M388.62,222.3h-.93a.12.12,0,0,0-.11.12v.05a.13.13,0,0,1,.11-.09h.93a.12.12,0,0,1,.11.09v-.05A.13.13,0,0,0,388.62,222.3Z" transform="translate(-257.33 -114.48)"/><path class="cls-206" d="M388.5,222.47s3.46-1.16,2.06-5.15-4.14-5.19-3-8.38a6.43,6.43,0,0,0-.12,6.07c1.61,3.49,2,3.09,1.95,4.76a3,3,0,0,1-1.62,2.7Z" transform="translate(-257.33 -114.48)"/><path class="cls-206" d="M388.81,209a6.44,6.44,0,0,1,1.94-5s-2.05,4.57-1.38,6.83A11.56,11.56,0,0,1,388.81,209Z" transform="translate(-257.33 -114.48)"/><path class="cls-207" d="M312.29,205.9l1.9,1,19-11a1.4,1.4,0,0,1,1.24.05l32.79,18.93c.31-.17,1.74-.86,1.74-.86l-.69,1.81h0a.39.39,0,0,1-.19.22l-20,11.56a1.39,1.39,0,0,1-1.24-.05l-33.55-19.37a.63.63,0,0,1-.29-.3h0Z" transform="translate(-257.33 -114.48)"/><path class="cls-5" d="M314.46,208.88l34.39,19.85a1.4,1.4,0,0,0,1.27.06l20.52-11.85c.33-.19.29-.52-.09-.73l-34.39-19.86a1.43,1.43,0,0,0-1.27,0l-20.52,11.85C314.05,208.34,314.09,208.66,314.46,208.88Z" transform="translate(-257.33 -114.48)"/><path class="cls-208" d="M312.58,206.21,347,226.06a1.4,1.4,0,0,0,1.27.05l20.52-11.84c.33-.19.29-.52-.09-.74l-34.38-19.85a1.42,1.42,0,0,0-1.28-.05l-20.52,11.84C312.17,205.66,312.21,206,312.58,206.21Z" transform="translate(-257.33 -114.48)"/><path class="cls-195" d="M368.67,213.53l-34.38-19.85a1.48,1.48,0,0,0-.92-.16,1.18,1.18,0,0,1,.49.16l34.39,19.85c.38.22.42.55.09.74l-20.52,11.84a.8.8,0,0,1-.35.11,1.22,1.22,0,0,0,.77-.11l20.52-11.84C369.09,214.08,369.05,213.75,368.67,213.53Z" transform="translate(-257.33 -114.48)"/><polygon class="cls-209" points="67.19 89.04 90.48 102.48 91.58 101.84 68.3 88.4 67.19 89.04"/><polygon class="cls-5" points="65.43 90.05 92.84 105.88 93.95 105.24 66.54 89.42 65.43 90.05"/><polygon class="cls-5" points="63.67 91.07 91.08 106.9 92.19 106.26 64.77 90.43 63.67 91.07"/><polygon class="cls-209" points="61.91 92.09 89.32 107.92 90.42 107.28 63.01 91.45 61.91 92.09"/><polygon class="cls-5" points="97.53 102.15 71 86.84 69.9 87.47 96.22 102.67 97.33 103.31 98.43 102.67 97.53 102.15"/><polygon class="cls-5" points="89.14 101.7 94.62 104.87 95.72 104.23 90.2 101.05 89.14 101.7"/><path class="cls-210" d="M312.35,205.39l4.34-25.79-.35-.15.53-.3h0a.37.37,0,0,1,.4,0L352,199.24a1,1,0,0,1,.45.88l-4.38,26a.33.33,0,0,1-.18.27h0l-.51.3-.09-.48h0L312.8,206.27A1,1,0,0,1,312.35,205.39Z" transform="translate(-257.33 -114.48)"/><path class="cls-211" d="M351.82,199.94l.57-.25a.75.75,0,0,1,.07.43l-4.38,26a.33.33,0,0,1-.18.27h0l-.51.3-.09-.48h0l-1.75-1Z" transform="translate(-257.33 -114.48)"/><path class="cls-212" d="M312.25,206.58,347,226.64c.27.15.5.06.55-.21l4.38-26a1,1,0,0,0-.45-.88l-34.74-20.06c-.27-.15-.5-.06-.55.21l-4.38,26A1,1,0,0,0,312.25,206.58Z" transform="translate(-257.33 -114.48)"/><path class="cls-195" d="M351.47,199.55l-34.74-20.06c-.21-.12-.39-.09-.49.06a.47.47,0,0,1,.24.07l34.74,20.06a1,1,0,0,1,.45.88l-4.38,26a.34.34,0,0,1-.06.16.29.29,0,0,0,.31-.28l4.38-26A1,1,0,0,0,351.47,199.55Z" transform="translate(-257.33 -114.48)"/><path class="cls-2" d="M448.41,332.7a9,9,0,0,1-4.53-1.21l-16-9.25.25-.44,16,9.26a8.59,8.59,0,0,0,8.55,0l57.54-33.22a2.31,2.31,0,0,0,0-4l-28.7-16.57.25-.44,28.7,16.57a2.82,2.82,0,0,1,0,4.88l-57.54,33.22A9,9,0,0,1,448.41,332.7Z" transform="translate(-257.33 -114.48)"/></svg>