<svg id="OBJECTS" xmlns="http://www.w3.org/2000/svg" viewBox="0 0 566.16 375.32"><defs><style>.cls-1{fill:#f291e0;}.cls-2{fill:#e89595;}.cls-3{fill:#ff8383;}.cls-4{fill:#cc6262;}.cls-5{fill:#661e4a;}.cls-6{fill:#7f2a2a;}.cls-7{fill:#ffd4d4;}.cls-8{fill:#260f0f;}.cls-14,.cls-9{fill:#e84646;}.cls-10{fill:#f4dfdf;}.cls-11{fill:#cc6e6e;}.cls-12{fill:#fff;}.cls-13,.cls-15{fill:none;}.cls-13{stroke:#661e4a;stroke-miterlimit:10;stroke-width:0.83px;}.cls-13,.cls-14,.cls-15{stroke-linecap:round;}.cls-14,.cls-15{stroke:#e84646;stroke-linejoin:round;}.cls-14{stroke-width:2.76px;}.cls-15{stroke-width:0.66px;}</style></defs><path class="cls-1" d="M528.61,246.38a3.86,3.86,0,1,1-3.86-3.86A3.86,3.86,0,0,1,528.61,246.38Zm-1.91,0a1.95,1.95,0,1,0-2,2A1.94,1.94,0,0,0,526.7,246.38Z" transform="translate(-91.92 -59.6)"/><path class="cls-1" d="M593.45,105.15H571.61a1,1,0,1,0,0,1.91h21.84a1,1,0,1,0,0-1.91Z" transform="translate(-91.92 -59.6)"/><path class="cls-1" d="M564.65,105.14h-4.27a1,1,0,0,0,0,1.92h4.27a1,1,0,1,0,0-1.92Z" transform="translate(-91.92 -59.6)"/><path class="cls-1" d="M583.19,112.76a1,1,0,0,1-1,1H579.5a1,1,0,0,1,0-1.92h2.73A1,1,0,0,1,583.19,112.76Zm-7.51,0a1,1,0,0,1-1,1h-4.78a1,1,0,0,1,0-1.92h4.78A1,1,0,0,1,575.68,112.76Zm-9.56,0a1,1,0,0,1-1,1h-4.77a1,1,0,0,1,0-1.92h4.77A1,1,0,0,1,566.12,112.76Z" transform="translate(-91.92 -59.6)"/><path class="cls-1" d="M239,169a1,1,0,0,0-.95,1v2.21a1,1,0,1,0,1.91,0V170A1,1,0,0,0,239,169Z" transform="translate(-91.92 -59.6)"/><path class="cls-1" d="M236.5,166.82h-2.22a1,1,0,0,0,0,1.91h2.22a1,1,0,1,0,0-1.91Z" transform="translate(-91.92 -59.6)"/><path class="cls-1" d="M239,162.22a1,1,0,0,0-.95,1v2.21a1,1,0,1,0,1.91,0v-2.21A1,1,0,0,0,239,162.22Z" transform="translate(-91.92 -59.6)"/><path class="cls-1" d="M243.72,166.66H241.5a1,1,0,0,0,0,1.92h2.22a1,1,0,0,0,0-1.92Z" transform="translate(-91.92 -59.6)"/><path class="cls-1" d="M479.4,107.08a.94.94,0,0,0-.95,1v2.22a1,1,0,0,0,1.91,0V108A1,1,0,0,0,479.4,107.08Z" transform="translate(-91.92 -59.6)"/><path class="cls-1" d="M476.9,104.85h-2.22a1,1,0,0,0,0,1.91h2.22a1,1,0,1,0,0-1.91Z" transform="translate(-91.92 -59.6)"/><path class="cls-1" d="M479.4,100.26a1,1,0,0,0-.95.95v2.22a1,1,0,1,0,1.91,0v-2.22A1,1,0,0,0,479.4,100.26Z" transform="translate(-91.92 -59.6)"/><path class="cls-1" d="M484.12,104.7H481.9a1,1,0,0,0,0,1.91h2.22a1,1,0,1,0,0-1.91Z" transform="translate(-91.92 -59.6)"/><path class="cls-1" d="M390.3,59.6H368.45a1,1,0,1,0,0,1.92H390.3a1,1,0,0,0,0-1.92Z" transform="translate(-91.92 -59.6)"/><path class="cls-1" d="M361.5,59.6h-4.27a1,1,0,1,0,0,1.91h4.27a1,1,0,0,0,0-1.91Z" transform="translate(-91.92 -59.6)"/><path class="cls-1" d="M380,67.22a1,1,0,0,1-.95,1h-2.74a1,1,0,0,1,0-1.91h2.74A1,1,0,0,1,380,67.22Zm-7.51,0a1,1,0,0,1-.95,1h-4.78a1,1,0,1,1,0-1.91h4.78A1,1,0,0,1,372.52,67.22Zm-9.56,0a1,1,0,0,1-.95,1h-4.78a1,1,0,1,1,0-1.91H362A1,1,0,0,1,363,67.22Z" transform="translate(-91.92 -59.6)"/><path class="cls-1" d="M625.13,159.73a3.38,3.38,0,1,0,3.37-3.37A3.37,3.37,0,0,0,625.13,159.73Z" transform="translate(-91.92 -59.6)"/><path class="cls-1" d="M182.7,325.09h21.85a1,1,0,0,0,0-1.91H182.7a1,1,0,0,0,0,1.91Z" transform="translate(-91.92 -59.6)"/><path class="cls-1" d="M171.48,325.1h4.27a1,1,0,0,0,0-1.91h-4.27a1,1,0,1,0,0,1.91Z" transform="translate(-91.92 -59.6)"/><path class="cls-1" d="M595.51,340.64s1.3,9.31-9.57,9.09c0,0,9.34.1,9.09,8.83,0,0,.84-6.87,9.42-8.41C604.45,350.15,597.2,351.82,595.51,340.64Z" transform="translate(-91.92 -59.6)"/><path class="cls-1" d="M647.43,209.32s1.3,9.31-9.57,9.1c0,0,9.34.09,9.09,8.83,0,0,.84-6.87,9.41-8.41C656.36,218.84,649.12,220.5,647.43,209.32Z" transform="translate(-91.92 -59.6)"/><path class="cls-1" d="M302.52,83.28s1.31,9.31-9.57,9.09c0,0,9.34.1,9.1,8.84,0,0,.84-6.88,9.41-8.41C311.46,92.8,304.22,94.46,302.52,83.28Z" transform="translate(-91.92 -59.6)"/><path class="cls-1" d="M208.91,109s1.3,9.31-9.57,9.1c0,0,9.34.09,9.1,8.83,0,0,.84-6.88,9.41-8.41C217.85,118.51,210.6,120.17,208.91,109Z" transform="translate(-91.92 -59.6)"/><path class="cls-1" d="M265.65,69.2s.45,3.24-3.34,3.17c0,0,3.26,0,3.17,3.08a3.7,3.7,0,0,1,3.28-2.93S266.24,73.1,265.65,69.2Z" transform="translate(-91.92 -59.6)"/><path class="cls-1" d="M435.94,181.07s.45,3.24-3.33,3.17c0,0,3.25,0,3.16,3.08a3.7,3.7,0,0,1,3.29-2.93S436.53,185,435.94,181.07Z" transform="translate(-91.92 -59.6)"/><path class="cls-1" d="M120.42,236.53s.45,3.25-3.34,3.17c0,0,3.26,0,3.17,3.08a3.69,3.69,0,0,1,3.28-2.93S121,240.43,120.42,236.53Z" transform="translate(-91.92 -59.6)"/><path class="cls-1" d="M403.56,324s.46,3.25-3.33,3.17c0,0,3.25,0,3.17,3.08a3.69,3.69,0,0,1,3.28-2.93S404.15,327.91,403.56,324Z" transform="translate(-91.92 -59.6)"/><path class="cls-1" d="M274.72,271.71H253.51a4.92,4.92,0,0,1-.16-9.84,7.62,7.62,0,0,1,14-4,5.54,5.54,0,0,1,6.14,4h1.24a4.92,4.92,0,0,1,0,9.84Zm-21.21-8.38a3.47,3.47,0,1,0,0,6.93h21.21a3.47,3.47,0,0,0,0-6.93h-2.45l-.1-.62a4.07,4.07,0,0,0-5-3.35l-.53.13-.27-.48a6.16,6.16,0,0,0-11.55,3c0,.18,0,.36,0,.54l.07.79Z" transform="translate(-91.92 -59.6)"/><path class="cls-1" d="M653.16,92.19H632a4.92,4.92,0,0,1-.16-9.84,7.61,7.61,0,0,1,14-4,5.53,5.53,0,0,1,6.14,4h1.24a4.92,4.92,0,1,1,0,9.84ZM632,83.8a3.47,3.47,0,1,0,0,6.93h21.21a3.47,3.47,0,0,0,0-6.93h-2.45l-.1-.61a4.07,4.07,0,0,0-5-3.35l-.53.12-.27-.48a6.17,6.17,0,0,0-11.55,3c0,.18,0,.36,0,.53l.07.79Z" transform="translate(-91.92 -59.6)"/><path class="cls-1" d="M324.69,146.35H303.48a4.92,4.92,0,0,1-.16-9.84,7.62,7.62,0,0,1,14-4,5.52,5.52,0,0,1,6.13,4h1.24a4.92,4.92,0,1,1,0,9.84ZM303.48,138a3.47,3.47,0,1,0,0,6.93h21.21a3.47,3.47,0,1,0,0-6.93h-2.45l-.09-.61a4.07,4.07,0,0,0-5-3.35l-.54.13-.27-.49a6.16,6.16,0,0,0-11.54,3c0,.18,0,.36,0,.53l.07.79Z" transform="translate(-91.92 -59.6)"/><path class="cls-2" d="M391.13,418.29h0A17.14,17.14,0,0,1,370,406.46l-13.61-48.07a17.15,17.15,0,0,1,11.83-21.17h0a17.15,17.15,0,0,1,21.17,11.83L403,397.13A17.14,17.14,0,0,1,391.13,418.29Z" transform="translate(-91.92 -59.6)"/><path class="cls-2" d="M371.72,417.89h0a17.15,17.15,0,0,1-.24-24.25l35-35.67a17.14,17.14,0,0,1,24.24-.24h0A17.15,17.15,0,0,1,431,382l-35,35.67A17.14,17.14,0,0,1,371.72,417.89Z" transform="translate(-91.92 -59.6)"/><path class="cls-3" d="M441.34,349.38a15,15,0,1,1-20.83-4.18A15,15,0,0,1,441.34,349.38Z" transform="translate(-91.92 -59.6)"/><path class="cls-3" d="M418.77,355.54h0a3.92,3.92,0,0,1-4.77-2.81l-1.33-5.17a3.91,3.91,0,0,1,2.82-4.77h0a3.91,3.91,0,0,1,4.76,2.81l1.34,5.17A3.93,3.93,0,0,1,418.77,355.54Z" transform="translate(-91.92 -59.6)"/><path class="cls-3" d="M433.84,337.74l-5.32,13.48a4.07,4.07,0,0,1-5.28,2.28h0a4.06,4.06,0,0,1-2.28-5.27l5.32-13.47a4.06,4.06,0,0,1,5.27-2.29h0A4.06,4.06,0,0,1,433.84,337.74Z" transform="translate(-91.92 -59.6)"/><path class="cls-3" d="M443.22,340.57l-6.43,13a4.06,4.06,0,0,1-5.44,1.84h0a4.07,4.07,0,0,1-1.84-5.45l6.43-13a4.06,4.06,0,0,1,5.44-1.84h0A4.07,4.07,0,0,1,443.22,340.57Z" transform="translate(-91.92 -59.6)"/><path class="cls-3" d="M450.2,347.8l-9,11.37a4.07,4.07,0,0,1-5.71.67h0a4.07,4.07,0,0,1-.67-5.71l9-11.37a4.07,4.07,0,0,1,5.71-.67h0A4.07,4.07,0,0,1,450.2,347.8Z" transform="translate(-91.92 -59.6)"/><path class="cls-3" d="M341.84,282.17h20a0,0,0,0,1,0,0v31a7.1,7.1,0,0,1-7.1,7.1h-5.83a7.1,7.1,0,0,1-7.1-7.1v-31A0,0,0,0,1,341.84,282.17Z" transform="translate(-79.81 -73.2) rotate(2.25)"/><path class="cls-4" d="M362.61,281.49l-20-.79-.31,7.86c-.3,7.7,6,14.46,13.66,13.91q.72-.06,1.44-.18a14.11,14.11,0,0,0,4.47-1.64Z" transform="translate(-91.92 -59.6)"/><ellipse class="cls-5" cx="349.93" cy="260.76" rx="24.96" ry="19.22" transform="translate(-149.69 45.52) rotate(-15.8)"/><ellipse class="cls-5" cx="365.43" cy="259.81" rx="22.17" ry="14.43" transform="translate(-130.27 5.27) rotate(-9.64)"/><ellipse class="cls-5" cx="353.1" cy="251.92" rx="22.17" ry="14.43" transform="translate(-169.12 247) rotate(-42.75)"/><path class="cls-3" d="M374.2,276.52c2,11-3.81,21.31-12.9,22.93h0c-9.1,1.63-18.07-6-20-17.05l-1.55-8.69c-2-11,3.81-21.3,12.9-22.93h0c9.1-1.62,18.07,6,20,17.06Z" transform="translate(-91.92 -59.6)"/><path class="cls-5" d="M354.77,249.47c-5-4.55-13.79-2.35-19.56,4.92s-6.37,16.86-1.33,21.41,13.78,2.35,19.55-4.92S359.8,254,354.77,249.47Z" transform="translate(-91.92 -59.6)"/><path class="cls-6" d="M358.09,274.07a.91.91,0,0,1-.52-1.66,5.91,5.91,0,0,1,6.09-.26.91.91,0,0,1-.92,1.58,4.09,4.09,0,0,0-4.14.18A.86.86,0,0,1,358.09,274.07Z" transform="translate(-91.92 -59.6)"/><path class="cls-6" d="M373.87,274.07a.91.91,0,0,1-.52-.16h0a4.06,4.06,0,0,0-4.13-.18.9.9,0,0,1-1.25-.33.91.91,0,0,1,.32-1.25,5.9,5.9,0,0,1,6.1.26.91.91,0,0,1-.52,1.66Z" transform="translate(-91.92 -59.6)"/><path class="cls-6" d="M362.22,276.53a1,1,0,1,1-.92-1A1,1,0,0,1,362.22,276.53Z" transform="translate(-91.92 -59.6)"/><path class="cls-6" d="M371.37,276.89a1,1,0,1,1-.92-1A1,1,0,0,1,371.37,276.89Z" transform="translate(-91.92 -59.6)"/><path class="cls-7" d="M373.59,283.53h-.3a7.27,7.27,0,1,1,.3,0Zm0-13.74a6.25,6.25,0,0,0-6.23,6,6.24,6.24,0,0,0,6,6.48,6.31,6.31,0,0,0,4.48-1.66,6.23,6.23,0,0,0-4-10.81Z" transform="translate(-91.92 -59.6)"/><path class="cls-7" d="M357.47,283.82h-.34a8.43,8.43,0,0,1-5.39-14.61,8.26,8.26,0,0,1,6.05-2.23,8.43,8.43,0,0,1-.32,16.85Zm0-15.43a7,7,0,0,0-7,6.73h0a7,7,0,0,0,6.72,7.27,7,7,0,0,0,.55-14Z" transform="translate(-91.92 -59.6)"/><path class="cls-7" d="M364.43,276.71l3.1.12a.66.66,0,0,0,.68-.63h0a.66.66,0,0,0-.63-.68l-3.1-.12a.65.65,0,0,0-.67.63h0A.65.65,0,0,0,364.43,276.71Z" transform="translate(-91.92 -59.6)"/><path class="cls-6" d="M370.64,281.1c-.09,1.09-1.35,2.08-2.82,2.22s-2.6-.64-2.51-1.73,1.36-2.08,2.83-2.22S370.73,280,370.64,281.1Z" transform="translate(-91.92 -59.6)"/><path class="cls-6" d="M370,287a4.78,4.78,0,0,1-5.14,4.38c-2.74-.11-4.32-2.82-4.22-5.35A23.79,23.79,0,0,1,370,287Z" transform="translate(-91.92 -59.6)"/><path class="cls-7" d="M365.28,288.54c-2.17-.25-3.5-1-3.63-2.62a23.6,23.6,0,0,1,7.9.88C369.18,288.27,367.4,288.79,365.28,288.54Z" transform="translate(-91.92 -59.6)"/><path class="cls-8" d="M358.88,292.35H353.5a8.78,8.78,0,0,1-5.87-2.26l-3.37-3a.64.64,0,0,1,0-.92.65.65,0,0,1,.92-.05l3.37,3a7.42,7.42,0,0,0,5,1.92h5.38a.66.66,0,0,1,.65.66A.65.65,0,0,1,358.88,292.35Z" transform="translate(-91.92 -59.6)"/><path class="cls-7" d="M358.88,293h-2.19a1.31,1.31,0,1,1,0-2.61h2.18a1.31,1.31,0,0,1,0,2.61Z" transform="translate(-91.92 -59.6)"/><circle class="cls-9" cx="341.35" cy="280.28" r="10.94" transform="translate(-130.33 446.19) rotate(-70.09)"/><ellipse class="cls-1" cx="339.75" cy="280.22" rx="9.34" ry="8.54" transform="translate(-45.52 549.1) rotate(-87.75)"/><path class="cls-10" d="M341.09,280.27c-.09,2.09-1.47,3.73-3.09,3.66s-2.86-1.8-2.78-3.89,1.46-3.73,3.08-3.67S341.17,278.18,341.09,280.27Z" transform="translate(-91.92 -59.6)"/><path class="cls-2" d="M367.78,433l-52.33,1.47a15.81,15.81,0,0,1-15.17-16.42l3.3-87.57a10.88,10.88,0,0,1,7.58-9.94l39-12.43,31.18,14.95a10.86,10.86,0,0,1,6.17,10.24l-3.32,84.52A15.81,15.81,0,0,1,367.78,433Z" transform="translate(-91.92 -59.6)"/><path class="cls-11" d="M387.52,333.31c.18,9.13.08,18.26-.07,27.37s-.45,18.23-.77,27.35-.78,18.22-1.38,27.32a24,24,0,0,1-1.08,7A15.87,15.87,0,0,1,367.78,433a15.88,15.88,0,0,0,11.77-5.53,14.8,14.8,0,0,0,3.1-5.67,22.9,22.9,0,0,0,.65-6.54c.12-9.12.44-18.24.77-27.35s.78-18.21,1.38-27.32S386.63,342.4,387.52,333.31Z" transform="translate(-91.92 -59.6)"/><path class="cls-2" d="M340.67,303.19H361.4a3.79,3.79,0,0,1,3.79,3.79V323.8a0,0,0,0,1,0,0h-28.3a0,0,0,0,1,0,0V307a3.79,3.79,0,0,1,3.79-3.79Z" transform="translate(-71.01 -81.54) rotate(3.69)"/><path class="cls-2" d="M280.35,407.34h0a17.16,17.16,0,0,1-9.26-22.41l19.17-46.14a17.14,17.14,0,0,1,22.41-9.26h0a17.14,17.14,0,0,1,9.25,22.41l-19.16,46.14A17.15,17.15,0,0,1,280.35,407.34Z" transform="translate(-91.92 -59.6)"/><path class="cls-11" d="M312.67,329.53a16.9,16.9,0,0,1,7.92,5.56,17.73,17.73,0,0,1,3.6,9.26c.45,3.36-.63,6.93-1.86,9.82l-3.62,8.91c-2.48,5.9-5,11.81-7.65,17.63l-4,8.74c-1.43,2.87-2.78,5.78-4.28,8.63.95-3.07,2.07-6.08,3.09-9.12l3.35-9c2.24-6,4.67-11.94,7.1-17.86l3.75-8.85a25.41,25.41,0,0,0,1.62-4.31,16.3,16.3,0,0,0,.52-4.46A17.41,17.41,0,0,0,312.67,329.53Z" transform="translate(-91.92 -59.6)"/><path class="cls-6" d="M360.15,383.15l-8.74-.56a6,6,0,0,1-5.55-6.32l.26-3.93a5.94,5.94,0,0,1,6.31-5.55l8.73.56Zm-8-12.45a2,2,0,0,0-2.15,1.89l-.26,3.94a2,2,0,0,0,1.9,2.15l4.82.31.51-8Z" transform="translate(-91.92 -59.6)"/><path class="cls-4" d="M368.63,395.71l-7.55-.49a8.31,8.31,0,0,1-7.76-8.84l1.56-24.27c.18-2.71,24.33-1.15,24.16,1.56l-1.57,24.27A8.31,8.31,0,0,1,368.63,395.71Z" transform="translate(-91.92 -59.6)"/><path class="cls-6" d="M376.63,364.33c-.06,1-4.55,1.48-10,1.12s-9.86-1.43-9.79-2.4,4.54-1.48,10-1.13S376.69,363.35,376.63,364.33Z" transform="translate(-91.92 -59.6)"/><path class="cls-2" d="M270.85,391.92h0a17.14,17.14,0,0,1,17.41-16.87l50,.79a17.14,17.14,0,0,1,16.87,17.41h0a17.14,17.14,0,0,1-17.41,16.87l-50-.79A17.14,17.14,0,0,1,270.85,391.92Z" transform="translate(-91.92 -59.6)"/><path class="cls-11" d="M288.26,375.05c6.42-.44,12.83-.59,19.24-.7s12.82-.07,19.22,0l9.61.22c3.14,0,6.85.45,9.75,2.2a17.74,17.74,0,0,1,7.06,7,16.82,16.82,0,0,1,1.95,9.48,17.41,17.41,0,0,0-9.91-14.68,16.73,16.73,0,0,0-4.29-1.3,25.46,25.46,0,0,0-4.6-.23l-9.61-.08c-6.41-.13-12.81-.27-19.21-.61S294.66,375.69,288.26,375.05Z" transform="translate(-91.92 -59.6)"/><circle class="cls-3" cx="357.38" cy="389.5" r="15.02" transform="translate(-262.5 356.21) rotate(-50.32)"/><path class="cls-3" d="M349.61,382.31h0a3.59,3.59,0,0,1-2.22-4.57l1.6-4.63a3.59,3.59,0,0,1,4.57-2.22h0a3.59,3.59,0,0,1,2.22,4.57l-1.6,4.62A3.6,3.6,0,0,1,349.61,382.31Z" transform="translate(-91.92 -59.6)"/><path class="cls-3" d="M378.37,384.27,365,385.51a3.77,3.77,0,0,1-4.09-3.39h0a3.76,3.76,0,0,1,3.39-4.09l13.34-1.24a3.75,3.75,0,0,1,4.08,3.39h0A3.74,3.74,0,0,1,378.37,384.27Z" transform="translate(-91.92 -59.6)"/><path class="cls-3" d="M375.55,396.53l-13.36-.86a3.77,3.77,0,0,1-3.51-4h0a3.76,3.76,0,0,1,4-3.51L376,389a3.77,3.77,0,0,1,3.51,4h0A3.77,3.77,0,0,1,375.55,396.53Z" transform="translate(-91.92 -59.6)"/><path class="cls-9" d="M511.42,351a1.6,1.6,0,0,1-1.11-.46,1.58,1.58,0,0,1,0-2.22l15-15a1.57,1.57,0,1,1,2.21,2.22l-15,15A1.56,1.56,0,0,1,511.42,351Z" transform="translate(-91.92 -59.6)"/><path class="cls-9" d="M500.77,341.8a1.57,1.57,0,0,1-1.57-1.57V319.08a1.57,1.57,0,1,1,3.13,0v21.15A1.56,1.56,0,0,1,500.77,341.8Z" transform="translate(-91.92 -59.6)"/><path class="cls-9" d="M541.75,361.63H520.59a1.57,1.57,0,0,1,0-3.13h21.16a1.57,1.57,0,1,1,0,3.13Z" transform="translate(-91.92 -59.6)"/><path class="cls-11" d="M353.85,427.43H483.29c3.61,0,4.72-2.92,4.72-6.54H347.31A6.54,6.54,0,0,0,353.85,427.43Z" transform="translate(-91.92 -59.6)"/><path class="cls-11" d="M346.34,420.89h45.88c0,3.62-3.32,6.54-7.42,6.54H346.15C341.92,427.37,342.11,420.89,346.34,420.89Z" transform="translate(-91.92 -59.6)"/><path class="cls-10" d="M395.09,422.8H488a5.74,5.74,0,0,0,5.64-4.68l12.53-53.74a5.75,5.75,0,0,0-5.64-6.82H407.61a5.73,5.73,0,0,0-5.64,4.68L389.44,416A5.75,5.75,0,0,0,395.09,422.8Z" transform="translate(-91.92 -59.6)"/><path class="cls-11" d="M402,362.24a5.74,5.74,0,0,1,2.29-3.6,5.73,5.73,0,0,1,2.29,5.74L394,418.12a5.78,5.78,0,0,1-2.29,3.59,5.73,5.73,0,0,1-2.3-5.73Z" transform="translate(-91.92 -59.6)"/><path class="cls-12" d="M460.41,397H445.17a5.65,5.65,0,0,1-5.66-5.66h0a5.66,5.66,0,0,1,5.66-5.66h15.24a5.66,5.66,0,0,1,5.66,5.66h0A5.65,5.65,0,0,1,460.41,397Z" transform="translate(-91.92 -59.6)"/><path class="cls-11" d="M360.2,422.7h-4.58a1.63,1.63,0,0,1-1.63-1.64h0a1.63,1.63,0,0,1,1.63-1.63h4.58a1.63,1.63,0,0,1,1.63,1.63h0A1.63,1.63,0,0,1,360.2,422.7Z" transform="translate(-91.92 -59.6)"/><path class="cls-11" d="M369.12,422.7h-4.57a1.63,1.63,0,0,1-1.63-1.64h0a1.63,1.63,0,0,1,1.63-1.63h4.57a1.63,1.63,0,0,1,1.63,1.63h0A1.63,1.63,0,0,1,369.12,422.7Z" transform="translate(-91.92 -59.6)"/><path class="cls-11" d="M378.05,422.7h-4.57a1.63,1.63,0,0,1-1.64-1.64h0a1.63,1.63,0,0,1,1.64-1.63h4.57a1.63,1.63,0,0,1,1.63,1.63h0A1.63,1.63,0,0,1,378.05,422.7Z" transform="translate(-91.92 -59.6)"/><path class="cls-11" d="M387,422.7H382.4a1.63,1.63,0,0,1-1.63-1.64h0a1.63,1.63,0,0,1,1.63-1.63H387a1.64,1.64,0,0,1,1.64,1.63h0A1.64,1.64,0,0,1,387,422.7Z" transform="translate(-91.92 -59.6)"/><path class="cls-5" d="M557.29,434.92h-391a3.92,3.92,0,0,1-3.92-3.92h0a3.91,3.91,0,0,1,3.92-3.92h391a3.92,3.92,0,0,1,3.92,3.92h0A3.93,3.93,0,0,1,557.29,434.92Z" transform="translate(-91.92 -59.6)"/><path class="cls-13" d="M224.82,403s-2.88-21.62-8.09-26.93" transform="translate(-91.92 -59.6)"/><path class="cls-7" d="M217.57,363.18c1.39,4.61,1.11,8.77-.64,9.3s-4.28-2.78-5.67-7.39a.74.74,0,0,1,0-.14c-1.18-4.1,5-6,6.31-1.9Z" transform="translate(-91.92 -59.6)"/><path class="cls-7" d="M225.84,373.48c-4.61,1.39-8.77,1.11-9.3-.63s2.78-4.29,7.39-5.68l.14,0c4.1-1.18,6,5,1.91,6.31Z" transform="translate(-91.92 -59.6)"/><path class="cls-7" d="M210.07,378.24c4.61-1.39,7.92-3.93,7.39-5.67s-4.68-2-9.29-.64l-.14,0c-4.07,1.29-2.2,7.49,1.91,6.31Z" transform="translate(-91.92 -59.6)"/><path class="cls-7" d="M217.83,383.48c1.3-4.64.92-8.79-.83-9.28s-4.22,2.87-5.52,7.51c0,0,0,.09,0,.14-1.09,4.12,5.15,5.87,6.35,1.77C217.8,383.57,217.82,383.53,217.83,383.48Z" transform="translate(-91.92 -59.6)"/><path class="cls-7" d="M222.28,382.14c-3.65-3.15-5.64-6.81-4.45-8.19s5.11.05,8.75,3.19l.11.1c3.2,2.83-1,7.74-4.3,5Z" transform="translate(-91.92 -59.6)"/><path class="cls-4" d="M219.11,373.08a2.26,2.26,0,1,1-2.81-1.5A2.25,2.25,0,0,1,219.11,373.08Z" transform="translate(-91.92 -59.6)"/><path class="cls-9" d="M216.32,389.09c6,4.71,9.39,10.37,7.61,12.64s-8.09.27-14.07-4.44-7.61-12.64-7.61-12.64S210.33,384.37,216.32,389.09Z" transform="translate(-91.92 -59.6)"/><path class="cls-9" d="M237.34,396.23c-6.31,5.93-13.26,8.8-15.5,6.41s1.06-9.14,7.37-15.07,15.51-6.42,15.51-6.42S243.66,390.29,237.34,396.23Z" transform="translate(-91.92 -59.6)"/><polygon class="cls-5" points="140.78 368.78 120.1 368.78 116.48 342.77 144.4 342.77 140.78 368.78"/><rect class="cls-5" x="113.93" y="339.77" width="33.01" height="9.67" rx="1.47"/><polygon class="cls-9" points="193.52 148.34 203.77 159.34 281.93 126.74 193.52 148.34"/><polygon class="cls-1" points="197.17 112.06 189.45 123.7 194.67 135.11 182.96 137.1 172.61 159.82 284.43 125.98 197.17 112.06"/><polygon class="cls-9" points="194.67 135.11 189.45 123.7 250.01 126.53 194.67 135.11"/><path class="cls-9" d="M280.7,307.57l-2.58,0a1.56,1.56,0,0,1-1.55-1.58,1.54,1.54,0,0,1,1.58-1.55c4.06.05,8.09,0,12.51-.2h.07a1.57,1.57,0,0,1,.06,3.13C287.25,307.5,284,307.57,280.7,307.57ZM265.56,307h-.14c-4.32-.37-8.56-.93-12.62-1.65a1.56,1.56,0,0,1-1.27-1.82,1.6,1.6,0,0,1,1.82-1.27c4,.71,8.12,1.25,12.34,1.61a1.58,1.58,0,0,1,1.43,1.7A1.57,1.57,0,0,1,265.56,307Zm-24.74-4.52a1.51,1.51,0,0,1-.46-.07,92.42,92.42,0,0,1-11.94-4.59,1.57,1.57,0,1,1,1.33-2.84,88.1,88.1,0,0,0,11.53,4.43,1.56,1.56,0,0,1,1,2A1.58,1.58,0,0,1,240.82,302.43Zm-22.7-10.69a1.51,1.51,0,0,1-.86-.27,82.18,82.18,0,0,1-10.09-7.92,1.56,1.56,0,0,1,2.12-2.3,80.42,80.42,0,0,0,9.71,7.62,1.57,1.57,0,0,1-.88,2.87Zm-18.47-17a1.58,1.58,0,0,1-1.23-.59,83.54,83.54,0,0,1-7.19-10.62A1.57,1.57,0,0,1,194,262a80.86,80.86,0,0,0,6.93,10.22,1.56,1.56,0,0,1-1.23,2.54ZM187.24,253a1.57,1.57,0,0,1-1.47-1,76.35,76.35,0,0,1-3.52-12.35,1.56,1.56,0,1,1,3.07-.6,74.56,74.56,0,0,0,3.38,11.85,1.56,1.56,0,0,1-.91,2A1.52,1.52,0,0,1,187.24,253Zm-5-24.59a1.57,1.57,0,0,1-1.56-1.47c-.17-2.56-.25-5.26-.25-8v-.64c0-1.36,0-2.72.07-4.09a1.58,1.58,0,0,1,1.57-1.52h.05a1.57,1.57,0,0,1,1.52,1.62c0,1.34-.07,2.67-.08,4v.63c0,2.69.09,5.31.24,7.81a1.56,1.56,0,0,1-1.46,1.66Z" transform="translate(-91.92 -59.6)"/><path class="cls-9" d="M195.42,203.51c-2.4,0-4.75,0-7.07-.08a1.57,1.57,0,0,1,0-3.14h0q6.07.15,12.53,0a1.47,1.47,0,0,1,1.59,1.53,1.56,1.56,0,0,1-1.53,1.6C199.13,203.49,197.26,203.51,195.42,203.51Zm18.15-.52a1.57,1.57,0,0,1-.09-3.13c4.06-.23,8.27-.54,12.52-.91a1.57,1.57,0,1,1,.27,3.12c-4.28.38-8.52.69-12.61.91Zm-37.75-.2h-.13c-4.36-.33-8.61-.8-12.62-1.37a1.57,1.57,0,0,1-1.32-1.78,1.59,1.59,0,0,1,1.77-1.33c3.94.57,8.12,1,12.42,1.36a1.57,1.57,0,0,1-.12,3.13Zm62.84-2a1.57,1.57,0,0,1-.18-3.12c4.07-.48,8.22-1,12.45-1.62a1.57,1.57,0,0,1,.45,3.11c-4.26.6-8.44,1.15-12.54,1.62Zm-87.76-1.6a2.09,2.09,0,0,1-.34,0c-3-.68-6-1.45-8.78-2.28-1.19-.35-2.36-.72-3.51-1.1a1.57,1.57,0,0,1,1-3c1.12.37,2.26.73,3.41,1.08,2.73.81,5.61,1.55,8.57,2.22a1.57,1.57,0,0,1-.34,3.1Zm-23.8-8.05a1.7,1.7,0,0,1-.69-.16,76.86,76.86,0,0,1-11.06-6.52,1.57,1.57,0,1,1,1.82-2.55,74.46,74.46,0,0,0,10.61,6.25,1.57,1.57,0,0,1-.68,3Zm54-1.41a1.56,1.56,0,0,1-1.57-1.56v-.56c0-3.95-.16-8-.47-11.94a1.56,1.56,0,0,1,3.12-.24c.32,4.05.48,8.15.48,12.18v.56A1.56,1.56,0,0,1,181.06,189.72Zm-74.23-13.29a1.57,1.57,0,0,1-1.16-.51,54.42,54.42,0,0,1-7.53-10.51,1.57,1.57,0,1,1,2.75-1.51,51.47,51.47,0,0,0,7.1,9.91,1.56,1.56,0,0,1-.1,2.21A1.54,1.54,0,0,1,106.83,176.43ZM179,164.59a1.58,1.58,0,0,1-1.55-1.3,105.16,105.16,0,0,0-2.76-12.11,1.56,1.56,0,1,1,3-.89,109.29,109.29,0,0,1,2.86,12.47,1.58,1.58,0,0,1-1.28,1.81Zm-84.23-10a1.57,1.57,0,0,1-1.51-1.15q-.28-1.06-.54-2.13a30.19,30.19,0,0,1-.84-7,26.8,26.8,0,0,1,.3-4,1.57,1.57,0,1,1,3.1.47,23.18,23.18,0,0,0-.27,3.55,27.18,27.18,0,0,0,.76,6.22c.16.68.33,1.36.51,2a1.55,1.55,0,0,1-1.09,1.93A1.52,1.52,0,0,1,94.81,154.58Zm77-14.06a1.57,1.57,0,0,1-1.41-.89,53.07,53.07,0,0,0-6.43-10.37,1.57,1.57,0,1,1,2.44-2,56.32,56.32,0,0,1,6.81,11,1.56,1.56,0,0,1-.73,2.09A1.51,1.51,0,0,1,171.77,140.52ZM98.7,130.69a1.61,1.61,0,0,1-1-.31,1.57,1.57,0,0,1-.29-2.2,35.3,35.3,0,0,1,9.81-8.67,1.57,1.57,0,1,1,1.64,2.67,32.34,32.34,0,0,0-9,7.9A1.57,1.57,0,0,1,98.7,130.69Zm57.22-9.32a1.59,1.59,0,0,1-.86-.25,35.47,35.47,0,0,0-11-4.76,1.57,1.57,0,1,1,.75-3,38.34,38.34,0,0,1,11.95,5.18,1.56,1.56,0,0,1-.86,2.87Zm-36.32-4a1.57,1.57,0,0,1-.44-3.07,58.59,58.59,0,0,1,12.32-2.23l.47,0a1.67,1.67,0,0,1,1.6,1.54,1.56,1.56,0,0,1-1.53,1.6h-.35a55.74,55.74,0,0,0-11.62,2.1A1.41,1.41,0,0,1,119.6,117.38Z" transform="translate(-91.92 -59.6)"/><path class="cls-9" d="M496.75,128.05h83.79a19,19,0,0,1,19,19v43.22a19,19,0,0,1-19,19H525.75L506,226.58V209.19h-9.29a19,19,0,0,1-19-19V147A19,19,0,0,1,496.75,128.05Z" transform="translate(-91.92 -59.6)"/><path class="cls-1" d="M508.94,154.8h59.41a2.38,2.38,0,0,0,0-4.76H508.94a2.38,2.38,0,1,0,0,4.76Z" transform="translate(-91.92 -59.6)"/><path class="cls-1" d="M508.94,170.64h59.41a2.38,2.38,0,0,0,0-4.76H508.94a2.38,2.38,0,0,0,0,4.76Z" transform="translate(-91.92 -59.6)"/><path class="cls-1" d="M559.63,186.48h8.72a2.38,2.38,0,0,0,0-4.76h-8.72a2.38,2.38,0,0,0,0,4.76Z" transform="translate(-91.92 -59.6)"/><path class="cls-1" d="M539.83,186.48h8.71a2.38,2.38,0,0,0,0-4.76h-8.71a2.38,2.38,0,0,0,0,4.76Z" transform="translate(-91.92 -59.6)"/><path class="cls-1" d="M508.94,186.48h19.8a2.38,2.38,0,0,0,0-4.76h-19.8a2.38,2.38,0,0,0,0,4.76Z" transform="translate(-91.92 -59.6)"/><path class="cls-1" d="M486.15,214.35H422a11.42,11.42,0,0,0-11.42,11.42v37a11.41,11.41,0,0,0,10.58,11.38L408,295.8l34.85-21.63h43.34a11.42,11.42,0,0,0,11.42-11.42v-37A11.42,11.42,0,0,0,486.15,214.35Z" transform="translate(-91.92 -59.6)"/><circle class="cls-14" cx="454.09" cy="235.29" r="7.59" transform="translate(-125.29 330.4) rotate(-45)"/><path class="cls-14" d="M472,260.83H436.14a11.5,11.5,0,0,1,11.5-11.51h12.89A11.5,11.5,0,0,1,472,260.83Z" transform="translate(-91.92 -59.6)"/><path class="cls-9" d="M408.74,154.2a31.16,31.16,0,0,1-6.32-.64,1.57,1.57,0,0,1-1.22-1.85,1.6,1.6,0,0,1,1.85-1.22,28.31,28.31,0,0,0,9.84.27,1.57,1.57,0,1,1,.47,3.1A30.93,30.93,0,0,1,408.74,154.2ZM423,150.54a1.57,1.57,0,0,1-.77-2.94,27.73,27.73,0,0,0,7.64-6.21,1.57,1.57,0,0,1,2.37,2.05,31.2,31.2,0,0,1-8.48,6.91A1.64,1.64,0,0,1,423,150.54Zm-29.88-.84a1.59,1.59,0,0,1-.83-.24,30.88,30.88,0,0,1-8.09-7.37,1.57,1.57,0,1,1,2.48-1.91,28.21,28.21,0,0,0,7.28,6.63,1.57,1.57,0,0,1-.84,2.89ZM436.31,135a1.47,1.47,0,0,1-.54-.1,1.57,1.57,0,0,1-.93-2,27.69,27.69,0,0,0,1.74-9.69,1.57,1.57,0,0,1,3.13,0A30.82,30.82,0,0,1,437.78,134,1.56,1.56,0,0,1,436.31,135Zm-55.67-1.55a1.58,1.58,0,0,1-1.5-1.11,30.93,30.93,0,0,1-1.37-9.13c0-.59,0-1.16.05-1.74a1.6,1.6,0,0,1,1.65-1.47,1.57,1.57,0,0,1,1.48,1.65c0,.51-.05,1-.05,1.55a28.41,28.41,0,0,0,1.23,8.22,1.56,1.56,0,0,1-1,2A1.83,1.83,0,0,1,380.64,133.48Zm56.64-15.77a1.58,1.58,0,0,1-1.52-1.19,27.55,27.55,0,0,0-4-9,1.57,1.57,0,0,1,2.59-1.77,30.5,30.5,0,0,1,4.48,10,1.56,1.56,0,0,1-1.14,1.9A1.28,1.28,0,0,1,437.28,117.71Zm-55.5-4.66a1.6,1.6,0,0,1-.63-.14,1.57,1.57,0,0,1-.81-2.06,31,31,0,0,1,6.09-9.1,1.57,1.57,0,1,1,2.26,2.18,27.48,27.48,0,0,0-5.47,8.18A1.58,1.58,0,0,1,381.78,113.05Zm44-12.24a1.54,1.54,0,0,1-.91-.29,27.41,27.41,0,0,0-8.9-4.18,1.58,1.58,0,0,1-1.11-1.92,1.56,1.56,0,0,1,1.92-1.11A30.83,30.83,0,0,1,426.65,98a1.57,1.57,0,0,1-.91,2.85ZM396,98.31a1.57,1.57,0,0,1-.68-3,30.68,30.68,0,0,1,10.55-2.93,1.58,1.58,0,0,1,1.7,1.42,1.56,1.56,0,0,1-1.41,1.7,27.85,27.85,0,0,0-9.48,2.63A1.51,1.51,0,0,1,396,98.31Z" transform="translate(-91.92 -59.6)"/><path class="cls-9" d="M408.74,108.35c-11.35,0-20.55,6.08-20.55,13.58v0c0,2,1.56,3.3,3,2.68l5.39-2.3a3.24,3.24,0,0,0,1.35-4l-.66-1.81a81.64,81.64,0,0,0,22.87,0l-.67,2.32a3.25,3.25,0,0,0,1.25,3.72l5.33,2.91c1.3.71,2.81-.24,3.11-2a9.64,9.64,0,0,0,.13-1.52C429.29,114.43,420.09,108.35,408.74,108.35Z" transform="translate(-91.92 -59.6)"/><path class="cls-1" d="M423,138.12H394.49l4.22-13.22a6,6,0,0,1,5.7-4.16h8.65a6,6,0,0,1,5.69,4.16Z" transform="translate(-91.92 -59.6)"/><path class="cls-9" d="M592.28,315.25a31,31,0,0,1-6.32-.65,1.56,1.56,0,0,1-1.22-1.85,1.59,1.59,0,0,1,1.85-1.22,28.08,28.08,0,0,0,9.84.27,1.57,1.57,0,0,1,.47,3.11A32.11,32.11,0,0,1,592.28,315.25Zm14.23-3.66a1.57,1.57,0,0,1-.76-2.94,28.21,28.21,0,0,0,7.63-6.21,1.57,1.57,0,0,1,2.38,2.05,31.06,31.06,0,0,1-8.49,6.9A1.54,1.54,0,0,1,606.51,311.59Zm-29.87-.84a1.54,1.54,0,0,1-.83-.24,31.23,31.23,0,0,1-8.09-7.37,1.57,1.57,0,0,1,2.48-1.92,27.67,27.67,0,0,0,7.27,6.63,1.57,1.57,0,0,1-.83,2.9Zm43.21-14.67a1.47,1.47,0,0,1-.54-.1,1.55,1.55,0,0,1-.92-2,28,28,0,0,0,1.73-9.69,1.57,1.57,0,0,1,3.13,0,30.82,30.82,0,0,1-1.93,10.78A1.56,1.56,0,0,1,619.85,296.08Zm-55.67-1.56a1.57,1.57,0,0,1-1.5-1.11,30.88,30.88,0,0,1-1.37-9.13c0-.58,0-1.16.05-1.73a1.64,1.64,0,0,1,1.65-1.48,1.57,1.57,0,0,1,1.48,1.65c0,.52,0,1,0,1.56a28.06,28.06,0,0,0,1.23,8.21,1.57,1.57,0,0,1-1,2A1.47,1.47,0,0,1,564.18,294.52Zm56.65-15.76a1.56,1.56,0,0,1-1.52-1.19,27.76,27.76,0,0,0-4-9,1.57,1.57,0,0,1,2.59-1.77,30.92,30.92,0,0,1,4.48,10,1.59,1.59,0,0,1-1.52,1.95Zm-55.51-4.67a1.53,1.53,0,0,1-.62-.13,1.56,1.56,0,0,1-.81-2.06,30.84,30.84,0,0,1,6.09-9.1,1.56,1.56,0,1,1,2.25,2.17,27.86,27.86,0,0,0-5.47,8.18A1.57,1.57,0,0,1,565.32,274.09Zm44-12.23a1.52,1.52,0,0,1-.91-.29,27.61,27.61,0,0,0-8.9-4.18,1.57,1.57,0,0,1,.81-3A30.84,30.84,0,0,1,610.2,259a1.56,1.56,0,0,1-.91,2.84Zm-29.77-2.51a1.57,1.57,0,0,1-.68-3,31,31,0,0,1,10.55-2.93,1.57,1.57,0,0,1,.29,3.13,27.41,27.41,0,0,0-9.48,2.63A1.64,1.64,0,0,1,579.52,259.35Z" transform="translate(-91.92 -59.6)"/><rect class="cls-1" x="481.89" y="219.1" width="36.45" height="20.67"/><path class="cls-9" d="M605.26,277.07v-2.53a3.38,3.38,0,0,1,3.38-3.38h0a3.37,3.37,0,0,1,3.37,3.38v4.19h-6.75" transform="translate(-91.92 -59.6)"/><path class="cls-10" d="M605.33,274.49V296H580.48V274.49a3.37,3.37,0,0,1,3.37-3.37h24.57l-.68.14A3.37,3.37,0,0,0,605.33,274.49Z" transform="translate(-91.92 -59.6)"/><rect class="cls-9" x="490.1" y="215.01" width="5.51" height="5.66"/><line class="cls-15" x1="497.3" y1="214.98" x2="511.31" y2="214.98"/><line class="cls-15" x1="497.3" y1="216.89" x2="511.31" y2="216.89"/><line class="cls-15" x1="497.3" y1="218.79" x2="511.31" y2="218.79"/><line class="cls-15" x1="497.43" y1="220.7" x2="511.44" y2="220.7"/><line class="cls-15" x1="490.1" y1="222.58" x2="511.31" y2="222.58"/><line class="cls-15" x1="490.1" y1="224.48" x2="511.31" y2="224.48"/><line class="cls-15" x1="490.1" y1="226.34" x2="511.31" y2="226.34"/><line class="cls-15" x1="490.1" y1="228.25" x2="500.41" y2="228.25"/><polygon class="cls-9" points="509.39 239.77 481.89 239.77 481.89 219.1 509.39 239.77"/><polygon class="cls-9" points="490.85 239.77 518.34 239.77 518.34 219.1 490.85 239.77"/><path class="cls-9" d="M610.26,299.37H573.81l16.37-8.74a3.27,3.27,0,0,1,3.71,0Z" transform="translate(-91.92 -59.6)"/></svg>