<svg id="Слой_1" data-name="Слой 1" xmlns="http://www.w3.org/2000/svg" viewBox="0 0 2000 2000"><defs><style>.cls-1{fill:#fff;}.cls-2{fill:#d7e9f4;}.cls-3{fill:#0e2549;}.cls-4{fill:#d2ebfc;}.cls-5{fill:#a1c5e2;}.cls-6{fill:#2e6b99;}.cls-7{fill:#e2474b;}.cls-8{fill:#1e5272;}</style></defs><path class="cls-2" d="M242.7,1717.08S-24.71,1559.37,64.29,1295.65c83.27-246.73,290.87-213.72,328.4-414.6s86.89-503.16,344.62-567.64,535.88,51.75,819.76,340.92c331,337.15,472.31,522.17,357.29,829.7-30.9,82.59-96.77,189.65-307.09,233.58l-1364.57-.53Z"/><ellipse class="cls-1" cx="433.01" cy="1396.66" rx="215.69" ry="225.63"/><ellipse class="cls-1" cx="1568.38" cy="1086.37" rx="178.73" ry="171.72"/><path class="cls-3" d="M1590.73,927.93l-40.07,29.72a6.37,6.37,0,0,1-8.92-1.32l-116.2-156.64,50.3-37.32L1592.05,919A6.38,6.38,0,0,1,1590.73,927.93Z"/><polygon class="cls-4" points="1364.78 716.08 1524.23 647.32 1629.59 505.84 1749.36 783.59 1574.15 763.08 1414.69 831.84 1364.78 716.08"/><path class="cls-3" d="M1413.91,833.81l-51.1-118.51,160.46-69.2,106.67-143.24,121.82,282.52-177.38-20.76Zm-47.16-116.94,48.73,113,158.45-68.32.4,0L1747,781.79l-117.7-273-104,139.72Z"/><path class="cls-3" d="M1696.24,756.88a1.49,1.49,0,0,1-1.39-.94l-82.24-202.09a1.5,1.5,0,1,1,2.78-1.13l82.24,202.09a1.51,1.51,0,0,1-.83,2A1.59,1.59,0,0,1,1696.24,756.88Z"/><path class="cls-3" d="M1696.24,579.84a1.51,1.51,0,0,1-1.07-2.56l58.07-58.4a1.5,1.5,0,0,1,2.12,2.12l-58.06,58.4A1.51,1.51,0,0,1,1696.24,579.84Z"/><path class="cls-3" d="M1756.5,624.33a1.5,1.5,0,0,1-.52-2.91l98.78-36.95a1.5,1.5,0,0,1,1,2.81l-98.78,37A1.39,1.39,0,0,1,1756.5,624.33Z"/><path class="cls-3" d="M1835.74,720l-.26,0L1754,705.4a1.5,1.5,0,1,1,.52-2.95L1836,717a1.5,1.5,0,0,1-.26,3Z"/><path class="cls-4" d="M423.65,905.39A113.82,113.82,0,0,1,388.24,988a88.89,88.89,0,0,0-23.91,39.43,93.68,93.68,0,0,0-3.67,30.91c.09,1.94.13,3.88.13,5.85,0,43.74-23,54.37-51.27,54.37s-51.29-10.63-51.29-54.37q0-3.51.21-7a87.32,87.32,0,0,0-3.5-29.8,90.28,90.28,0,0,0-24.26-39.53,113.82,113.82,0,0,1-35.3-82.85c.18-62,50.54-112.93,112.51-113.8A114.15,114.15,0,0,1,423.65,905.39Z"/><path class="cls-3" d="M309.52,1120.08c-36,0-52.79-17.75-52.79-55.87,0-2.36.07-4.73.21-7a85.47,85.47,0,0,0-3.44-29.29A88.92,88.92,0,0,0,229.64,989a114.6,114.6,0,0,1-35.76-83.93c.18-62.7,51.32-114.42,114-115.3A115.63,115.63,0,0,1,389.28,989.1a87.67,87.67,0,0,0-23.51,38.77,92,92,0,0,0-3.61,30.42c.09,2,.13,3.94.13,5.92C362.29,1102.33,345.52,1120.08,309.52,1120.08Zm0-327.32h-1.61c-61,.86-110.85,51.24-111,112.31a111.58,111.58,0,0,0,34.84,81.75A92,92,0,0,1,256.38,1027a88.72,88.72,0,0,1,3.56,30.32c-.14,2.26-.21,4.57-.21,6.87,0,36.57,15.36,52.87,49.79,52.87s49.77-16.3,49.77-52.87c0-1.93,0-3.87-.13-5.78a95.06,95.06,0,0,1,3.73-31.41,90.69,90.69,0,0,1,24.32-40.09,112.63,112.63,0,0,0-77.69-194.17Z"/><path class="cls-3" d="M360.66,1058.36c.09,1.94.13,3.88.13,5.85,0,43.74-23,54.37-51.27,54.37s-51.29-10.63-51.29-54.37q0-3.51.21-7a87.32,87.32,0,0,0-3.5-29.8H364.33A93.68,93.68,0,0,0,360.66,1058.36Z"/><path class="cls-5" d="M343.54,1106.76a1.5,1.5,0,0,1-1-.34l-82.66-67.82a1.5,1.5,0,0,1,1.91-2.31l82.65,67.81a1.5,1.5,0,0,1,.21,2.11A1.45,1.45,0,0,1,343.54,1106.76Z"/><path class="cls-5" d="M352.2,1089.91a1.5,1.5,0,0,1-.95-.34l-68.08-55.86a1.5,1.5,0,1,1,1.91-2.32l68.08,55.86a1.5,1.5,0,0,1-1,2.66Z"/><path class="cls-5" d="M355.72,1070.89a1.5,1.5,0,0,1-1-.34L310.18,1034a1.5,1.5,0,1,1,1.9-2.32l44.59,36.58a1.51,1.51,0,0,1,.21,2.12A1.49,1.49,0,0,1,355.72,1070.89Z"/><path class="cls-5" d="M357.19,1050.12a1.5,1.5,0,0,1-.95-.34l-20.68-17a1.5,1.5,0,1,1,1.9-2.32l20.69,17a1.5,1.5,0,0,1-1,2.66Z"/><path class="cls-5" d="M324,1115.82a1.5,1.5,0,0,1-1-.36l-63.15-53.6a1.5,1.5,0,1,1,1.95-2.28L325,1113.17a1.5,1.5,0,0,1,.17,2.12A1.47,1.47,0,0,1,324,1115.82Z"/><path class="cls-5" d="M290.46,1113.54a1.51,1.51,0,0,1-1-.35l-24.55-20.85a1.5,1.5,0,1,1,1.94-2.28l24.56,20.84a1.51,1.51,0,0,1,.17,2.12A1.5,1.5,0,0,1,290.46,1113.54Z"/><path class="cls-3" d="M324.28,1033.15a1.51,1.51,0,0,1-1.5-1.44c-2-50,8.21-82.23,17.09-100.48l1.09-2.18a292.61,292.61,0,0,1-36.17,2.32,242.86,242.86,0,0,1-24.34-1.08l.46.94c8.88,18.25,19.06,50.5,17.1,100.48a1.55,1.55,0,0,1-1.56,1.44,1.51,1.51,0,0,1-1.44-1.56c2-49.93-8.18-82.27-18.21-101.69-19.32-2.28-34.54-7.39-34.58-16.59,0-5.52,1.54-9.28,4.64-11.19,5.41-3.33,13.28.62,13.61.79l.24.15c.39.3,9.1,7.15,18.1,24.05a229.77,229.77,0,0,0,26,1.26,272.29,272.29,0,0,0,37.91-2.6c8.73-15.92,17-22.42,17.38-22.71l.25-.16c.5-.24,12.21-5.93,18.74-1.88,2.75,1.72,4.15,4.79,4.15,9.13,0,9.49-17.67,15.31-38.61,18.39-.71,1.35-1.43,2.75-2.15,4.23-8.67,17.92-18.61,49.61-16.68,98.82a1.51,1.51,0,0,1-1.44,1.56ZM252,903.78a6.84,6.84,0,0,0-3.62.9c-2.14,1.32-3.21,4.22-3.2,8.62,0,6.11,11.45,10.93,29.84,13.36-7.79-14-15.1-20.33-16.08-21.14A18,18,0,0,0,252,903.78Zm109.76,1.74c-.94.77-7.84,6.69-15.32,19.66,20.18-3.32,33.74-8.89,33.74-15,0-3.28-.9-5.44-2.74-6.58C373.3,901,364.89,904,361.8,905.52Z"/><path class="cls-3" d="M312.72,754.05a1.5,1.5,0,0,1-1.5-1.5V702.88a1.5,1.5,0,0,1,3,0v49.67A1.5,1.5,0,0,1,312.72,754.05Z"/><path class="cls-3" d="M205.57,788a1.48,1.48,0,0,1-1-.43L168.88,753a1.51,1.51,0,0,1,0-2.12,1.49,1.49,0,0,1,2.12,0l35.64,34.61a1.5,1.5,0,0,1-1,2.58Z"/><path class="cls-3" d="M159.71,884.86l-.2,0-49.25-6.55a1.5,1.5,0,1,1,.4-3l49.25,6.55a1.5,1.5,0,0,1-.2,3Z"/><path class="cls-3" d="M123.78,1007.54a1.5,1.5,0,0,1-.75-2.8l43.05-24.8a1.5,1.5,0,0,1,1.5,2.6l-43.05,24.8A1.46,1.46,0,0,1,123.78,1007.54Z"/><path class="cls-5" d="M736.62,1440.34l-.24-75.49a18.06,18.06,0,0,0-18.11-18l-49.41.16a2.24,2.24,0,0,1-2.18-1.74,248.86,248.86,0,0,0-30.31-74.11,2.22,2.22,0,0,1,.32-2.74l35-35.28a18.05,18.05,0,0,0-.08-25.53l-53.55-53.22a18.07,18.07,0,0,0-25.54.08l-34.44,34.67a2.22,2.22,0,0,1-2.77.31,248.82,248.82,0,0,0-77.18-31.81,2.24,2.24,0,0,1-1.75-2.17l-.16-50.11a18.06,18.06,0,0,0-18.11-18l-75.49.24a18.07,18.07,0,0,0-18,18.12l.16,50.74a2.24,2.24,0,0,1-1.71,2.18,248.83,248.83,0,0,0-71.77,30,2.22,2.22,0,0,1-2.75-.31L253,1153a18.06,18.06,0,0,0-25.54.09l-53.21,53.55a18.05,18.05,0,0,0,.08,25.53l35.28,35a2.24,2.24,0,0,1,.32,2.77,248.79,248.79,0,0,0-31.45,76.85,2.22,2.22,0,0,1-2.17,1.75l-49.59.16a18.05,18.05,0,0,0-18,18.11l.24,75.5a18,18,0,0,0,18.11,18l50.44-.16a2.25,2.25,0,0,1,2.18,1.71,248.89,248.89,0,0,0,32.85,75.92,2.24,2.24,0,0,1-.28,2.8l-34.1,34.3a18.06,18.06,0,0,0,.09,25.54l53.55,53.21a18.05,18.05,0,0,0,25.53-.08l35.48-35.71a2.22,2.22,0,0,1,2.72-.34,248.94,248.94,0,0,0,69.15,27.85,2.22,2.22,0,0,1,1.72,2.16l.16,50.45a18.05,18.05,0,0,0,18.11,18l75.5-.24a18.06,18.06,0,0,0,18-18.11l-.16-49.81a2.23,2.23,0,0,1,1.73-2.18,249.07,249.07,0,0,0,78.2-33.08,2.21,2.21,0,0,1,2.78.29l34.54,34.31a18,18,0,0,0,25.53-.08L674,1593.53a18,18,0,0,0-.08-25.53l-35.61-35.39a2.24,2.24,0,0,1-.34-2.73,248.74,248.74,0,0,0,28.25-69.55,2.24,2.24,0,0,1,2.16-1.72l50.26-.16A18,18,0,0,0,736.62,1440.34ZM424.47,1603.68c-114,.36-206.79-91.79-207.15-205.84s91.79-206.78,205.83-207.15,206.79,91.8,207.16,205.84S538.51,1603.32,424.47,1603.68Z"/><path class="cls-5" d="M1832.52,1107.9l-5.67-59.17a14.21,14.21,0,0,0-15.51-12.79l-38.72,3.71a1.76,1.76,0,0,1-1.84-1.21,196,196,0,0,0-29.15-55.89,1.74,1.74,0,0,1,0-2.17l24.92-30.21a14.21,14.21,0,0,0-1.92-20l-45.85-37.83a14.22,14.22,0,0,0-20,1.92l-24.49,29.68a1.75,1.75,0,0,1-2.15.45A196,196,0,0,0,1609.37,905a1.75,1.75,0,0,1-1.53-1.57l-3.77-39.27a14.22,14.22,0,0,0-15.51-12.79l-59.17,5.67a14.22,14.22,0,0,0-12.79,15.51l3.82,39.77a1.78,1.78,0,0,1-1.19,1.83A196.15,196.15,0,0,0,1465.15,943a1.76,1.76,0,0,1-2.18,0l-30.49-25.16a14.22,14.22,0,0,0-20,1.92l-37.83,45.85a14.21,14.21,0,0,0,1.92,20l30.2,24.92a1.75,1.75,0,0,1,.45,2.15,196.06,196.06,0,0,0-19.06,62.53,1.75,1.75,0,0,1-1.57,1.53l-38.88,3.73a14.22,14.22,0,0,0-12.79,15.51l5.67,59.17a14.22,14.22,0,0,0,15.51,12.79l39.54-3.79a1.76,1.76,0,0,1,1.83,1.18,195.88,195.88,0,0,0,31.27,57.13,1.76,1.76,0,0,1,0,2.21L1404.47,1254a14.23,14.23,0,0,0,1.92,20l45.85,37.83a14.24,14.24,0,0,0,20-1.92l25.22-30.58a1.74,1.74,0,0,1,2.1-.46,196.18,196.18,0,0,0,56.24,16.81,1.75,1.75,0,0,1,1.51,1.57l3.79,39.54a14.22,14.22,0,0,0,15.51,12.79l59.16-5.67a14.22,14.22,0,0,0,12.8-15.51l-3.75-39a1.78,1.78,0,0,1,1.21-1.84,195.86,195.86,0,0,0,58.9-31.61,1.73,1.73,0,0,1,2.2,0l29.57,24.4a14.23,14.23,0,0,0,20-1.92l37.83-45.86a14.23,14.23,0,0,0-1.92-20l-30.49-25.15a1.74,1.74,0,0,1-.47-2.11,195.84,195.84,0,0,0,17.09-56.58,1.76,1.76,0,0,1,1.57-1.51l39.39-3.77A14.21,14.21,0,0,0,1832.52,1107.9ZM1596.6,1234.79A134.92,134.92,0,1,1,1718,1087.61,134.92,134.92,0,0,1,1596.6,1234.79Z"/><path class="cls-3" d="M1340.8,538.22a47.4,47.4,0,1,1,4.61-.22C1343.87,538.15,1342.33,538.22,1340.8,538.22Zm.17-91.74q-2.16,0-4.32.21a44.16,44.16,0,1,0,4.32-.21Z"/><path class="cls-3" d="M1339,570.9a6,6,0,0,1-6-5.41l-1.12-11.73a62.88,62.88,0,0,1-16.75-5l-7.49,9.08a6,6,0,0,1-8.42.8l-14.46-11.92a6,6,0,0,1-.8-8.42l7.15-8.68a63.21,63.21,0,0,1-9.38-17.15L1270,513.59a6,6,0,0,1-6.52-5.39l-1.79-18.65a5.9,5.9,0,0,1,1.34-4.38,6,6,0,0,1,4-2.15l11.51-1.1a63.18,63.18,0,0,1,5.72-18.77l-8.94-7.38a6,6,0,0,1-.81-8.42l11.92-14.46a6,6,0,0,1,8.43-.81l9,7.46a62.9,62.9,0,0,1,16.16-8.6l-1.13-11.8a6,6,0,0,1,5.38-6.52l18.66-1.79a6,6,0,0,1,6.52,5.38l1.12,11.64a62.92,62.92,0,0,1,18.86,5.8l7.24-8.78a6,6,0,0,1,8.42-.8L1399.67,436a6,6,0,0,1,.81,8.42l-7.39,9a62.94,62.94,0,0,1,8.73,16.73l11.46-1.1a6,6,0,0,1,6.53,5.39L1421.6,493a6,6,0,0,1-5.38,6.53l-11.69,1.12a63.39,63.39,0,0,1-5.09,16.87l9,7.46a6,6,0,0,1,.81,8.42l-11.92,14.45a6,6,0,0,1-8.42.81l-8.74-7.21A63.14,63.14,0,0,1,1362.5,551l1.11,11.56a6,6,0,0,1-5.38,6.52l-18.66,1.79A5.63,5.63,0,0,1,1339,570.9Zm-24.09-25.37a2.09,2.09,0,0,1,.88.2,60.12,60.12,0,0,0,17.3,5.17,2.05,2.05,0,0,1,1.76,1.84L1336,565.2a3,3,0,0,0,3.25,2.69l18.66-1.79a3,3,0,0,0,2.68-3.26l-1.18-12.3a2.06,2.06,0,0,1,1.4-2.15,59.93,59.93,0,0,0,18.12-9.73,2,2,0,0,1,2.57,0l9.32,7.69a3.05,3.05,0,0,0,2.19.67,3,3,0,0,0,2-1.07L1407,531.53a3,3,0,0,0-.4-4.2L1397,519.4a2,2,0,0,1-.54-2.47,60.09,60.09,0,0,0,5.25-17.4,2.06,2.06,0,0,1,1.84-1.76l12.42-1.19a3,3,0,0,0,2.68-3.25l-1.79-18.66a3,3,0,0,0-3.25-2.68l-12.21,1.17a2.05,2.05,0,0,1-2.15-1.4,60,60,0,0,0-9-17.19,2,2,0,0,1,.06-2.54l7.85-9.53a2.93,2.93,0,0,0,.67-2.18,2.9,2.9,0,0,0-1.07-2l-14.45-11.93a3,3,0,0,0-4.2.4l-7.72,9.36a2.06,2.06,0,0,1-2.51.53,60.12,60.12,0,0,0-19.33-5.95,2.05,2.05,0,0,1-1.78-1.84l-1.18-12.38a3,3,0,0,0-3.26-2.69l-18.65,1.79a3,3,0,0,0-2,1.07,3,3,0,0,0-.66,2.19l1.2,12.53a2.05,2.05,0,0,1-1.38,2.14,60.65,60.65,0,0,0-16.64,8.85,2,2,0,0,1-2.54-.05L1293,434.4a3,3,0,0,0-4.2.4l-11.93,14.46a3,3,0,0,0-.66,2.18,2.9,2.9,0,0,0,1.07,2l9.52,7.86a2,2,0,0,1,.53,2.5,60.37,60.37,0,0,0-5.87,19.24,2,2,0,0,1-1.84,1.78L1267.4,486a3,3,0,0,0-2.69,3.25l1.79,18.66a3,3,0,0,0,3.25,2.68l12.47-1.19a2.05,2.05,0,0,1,2.14,1.37,59.85,59.85,0,0,0,9.62,17.57,2.06,2.06,0,0,1,0,2.59l-7.64,9.26a3,3,0,0,0,.4,4.19l14.46,11.93a2.91,2.91,0,0,0,2.18.67,3,3,0,0,0,2-1.07l8-9.64A2,2,0,0,1,1314.9,545.53ZM1404.64,500Zm-2.58-29.14h0Zm11.37-.31h0ZM1304.54,440h0Zm46.22-11.42Z"/><path class="cls-3" d="M1212.67,560.27a26.67,26.67,0,1,1,20.43-9.47h0a26.46,26.46,0,0,1-18.13,9.38C1214.2,560.24,1213.44,560.27,1212.67,560.27Zm.07-50.32a23.66,23.66,0,1,0,18.07,38.92h0A23.66,23.66,0,0,0,1212.74,510Z"/><path class="cls-3" d="M1211.73,578.34a4,4,0,0,1-3.94-3.63l-.48-5.66a35.41,35.41,0,0,1-9.71-3l-3.77,4.47a4,4,0,0,1-5.58.47l-7.86-6.63a4,4,0,0,1-.47-5.58l3.83-4.54a35.33,35.33,0,0,1-4.07-7.74l-5.92.5a4,4,0,0,1-4.28-3.61l-.86-10.24a3.94,3.94,0,0,1,3.61-4.28l5.61-.48a35.4,35.4,0,0,1,2.88-9.45l-4.54-3.83a4,4,0,0,1-.47-5.58l6.63-7.86a4,4,0,0,1,5.58-.47l4.44,3.74a35.27,35.27,0,0,1,8.81-4.56l-.49-5.82a4,4,0,0,1,3.61-4.28l10.24-.87a4,4,0,0,1,4.28,3.62l.5,5.88a35.16,35.16,0,0,1,8.77,2.79l3.86-4.58a4,4,0,0,1,5.57-.47l7.86,6.63a4,4,0,0,1,.48,5.58l-3.8,4.5a35.21,35.21,0,0,1,4.58,8.87l5.69-.48a4,4,0,0,1,4.28,3.61l.87,10.25a4,4,0,0,1-3.61,4.28l-5.83.49a35.08,35.08,0,0,1-3,9l4.42,3.73a4,4,0,0,1,1.4,2.7,3.92,3.92,0,0,1-.92,2.88l-6.63,7.86a4,4,0,0,1-5.58.48l-4.53-3.82a35.64,35.64,0,0,1-7.81,4.08l.5,5.89a4,4,0,0,1-3.61,4.28l-10.25.87Zm-14.44-15.63a1.78,1.78,0,0,1,.83.2,32.22,32.22,0,0,0,10.54,3.3,1.81,1.81,0,0,1,1.56,1.63l.56,6.62a1,1,0,0,0,1,.87l10.25-.87a1,1,0,0,0,.65-.33,1,1,0,0,0,.22-.7l-.58-6.82a1.81,1.81,0,0,1,1.22-1.86,32.1,32.1,0,0,0,8.66-4.52,1.8,1.8,0,0,1,2.23.08l5.23,4.41a1,1,0,0,0,.7.23,1,1,0,0,0,.65-.34l6.63-7.86a1,1,0,0,0-.11-1.35l-5.14-4.34a1.8,1.8,0,0,1-.44-2.21,32.11,32.11,0,0,0,3.23-9.91,1.81,1.81,0,0,1,1.64-1.52l6.74-.57a1,1,0,0,0,.66-.34,1,1,0,0,0,.22-.7l-.87-10.25a1,1,0,0,0-1-.87l-6.63.56a1.79,1.79,0,0,1-1.87-1.24,32.17,32.17,0,0,0-5-9.67,1.8,1.8,0,0,1,.06-2.25l4.4-5.21a1,1,0,0,0-.11-1.36l-7.86-6.63a1,1,0,0,0-1.35.12l-4.46,5.28a1.8,1.8,0,0,1-2.19.45,32.18,32.18,0,0,0-9.65-3.07,1.8,1.8,0,0,1-1.53-1.63l-.58-6.81a.94.94,0,0,0-.33-.65,1,1,0,0,0-.7-.23l-10.25.87a1,1,0,0,0-.87,1l.57,6.75a1.8,1.8,0,0,1-1.25,1.87,32.43,32.43,0,0,0-9.59,5,1.78,1.78,0,0,1-2.25-.06l-5.17-4.35a.9.9,0,0,0-.7-.22,1,1,0,0,0-.65.33l-6.63,7.86a1,1,0,0,0-.22.7.91.91,0,0,0,.34.65l5.25,4.44a1.81,1.81,0,0,1,.45,2.18,32.38,32.38,0,0,0-3.14,10.3,1.79,1.79,0,0,1-1.64,1.57l-6.56.56a.94.94,0,0,0-.65.33,1,1,0,0,0-.23.7l.87,10.25a1,1,0,0,0,1,.87l6.83-.58a1.79,1.79,0,0,1,1.86,1.22,32.46,32.46,0,0,0,4.51,8.58,1.79,1.79,0,0,1-.07,2.23l-4.43,5.26a.89.89,0,0,0-.22.7,1,1,0,0,0,.33.65l7.86,6.63a1,1,0,0,0,.7.22,1,1,0,0,0,.66-.34l4.37-5.18A1.79,1.79,0,0,1,1197.29,562.71Zm-13-7.75h0Zm-4.93-9.39h0Zm67.75-5.16Zm1.08-1Zm-56.6-33.94Zm37.33-3.41h0Zm-26.84-2h0Zm17.31-.24h0Z"/><path class="cls-3" d="M953.05,390.14h-47.9V281h47.9Zm-44.9-3h41.9V284h-41.9Z"/><path class="cls-3" d="M1018.52,390.14h-47.9V320.2h47.9Zm-44.9-3h41.9V323.2h-41.9Z"/><path class="cls-3" d="M1082.38,390.14h-47.9V353.67h47.9Zm-44.9-3h41.9V356.67h-41.9Z"/><path class="cls-3" d="M1100.24,390.14H888.91a1.5,1.5,0,0,1,0-3h211.33a1.5,1.5,0,0,1,0,3Z"/><path class="cls-3" d="M1864.91,1282.39a44.66,44.66,0,1,1,30-77.7,1.5,1.5,0,0,1-2,2.22,41.63,41.63,0,1,0,7.93,9.78,1.5,1.5,0,0,1,2.59-1.52,44.67,44.67,0,0,1-38.54,67.22Z"/><path class="cls-3" d="M1900.81,1196a1.5,1.5,0,0,0,.71,2.92l6.68-1.64-46.08,46.21L1841,1227.56a1.51,1.51,0,0,0-2.1.3,1.49,1.49,0,0,0,.3,2.1l23.24,17.44,48.38-48.5-.68,6.75a1.5,1.5,0,0,0,1.34,1.65h.15a1.5,1.5,0,0,0,1.49-1.34l1.35-13.34Z"/><path class="cls-3" d="M500.94,665.33l-24-20.8,24-20.8a13.47,13.47,0,0,0-8.82-23.65h-35a13.47,13.47,0,0,0-8.82,23.65l24,20.8-24,20.8A13.47,13.47,0,0,0,457.15,689h35a13.47,13.47,0,0,0,8.82-23.65ZM450.3,621.47a10.47,10.47,0,0,1,6.85-18.39h35A10.48,10.48,0,0,1,499,621.47l-24.34,21.07Zm0,46.12,24.34-21.08L499,667.59a12.77,12.77,0,0,1,1.16,1.17c-4.66,1-18.42,3.44-26.79.65-9-3-21.34,1-26.2,2.86A10.25,10.25,0,0,1,450.3,667.59Zm51.63,11.57a10.27,10.27,0,0,1-9.81,6.82h-35a10.27,10.27,0,0,1-9.81-6.82,10.65,10.65,0,0,1-.67-3.47c2.43-1,16.56-6.49,25.73-3.44,10,3.33,26,0,29.43-.78A10.54,10.54,0,0,1,501.93,679.16Z"/><path class="cls-3" d="M474.64,656.5a1.5,1.5,0,0,1-1.5-1.5v-3.24a1.5,1.5,0,0,1,3,0V655A1.5,1.5,0,0,1,474.64,656.5Z"/><path class="cls-3" d="M474.64,665.89a1.5,1.5,0,0,1-1.5-1.5v-3.25a1.5,1.5,0,0,1,3,0v3.25A1.5,1.5,0,0,1,474.64,665.89Z"/><circle class="cls-6" cx="999.75" cy="1148.98" r="568.63" transform="translate(-519.63 1043.46) rotate(-45)"/><circle class="cls-1" cx="999.75" cy="1148.98" r="481.92"/><path class="cls-3" d="M999.75,1632.4a481.91,481.91,0,1,1,188.17-38A480.37,480.37,0,0,1,999.75,1632.4Zm0-963.84c-264.91,0-480.43,215.51-480.43,480.42S734.84,1629.4,999.75,1629.4s480.42-215.51,480.42-480.42S1264.66,668.56,999.75,668.56Z"/><path class="cls-6" d="M897.15,1249.26C828,1296,764.53,1322.9,755.44,1309.45s39.64-62.23,108.81-108.93,132.63-73.64,141.71-60.19S966.33,1202.56,897.15,1249.26Z"/><path class="cls-3" d="M998.11,772.83a3,3,0,0,1-3-3V691.46a3,3,0,0,1,6,0v78.37A3,3,0,0,1,998.11,772.83Z"/><path class="cls-3" d="M998.11,1599.66a3,3,0,0,1-3-3V1513.8a3,3,0,0,1,6,0v82.86A3,3,0,0,1,998.11,1599.66Z"/><path class="cls-3" d="M632.22,1142.7H545.53a3,3,0,0,1,0-6h86.69a3,3,0,0,1,0,6Z"/><path class="cls-3" d="M1450.68,1142.7h-74.4a3,3,0,0,1,0-6h74.4a3,3,0,0,1,0,6Z"/><path class="cls-3" d="M1226.31,1538a3,3,0,0,1-2.6-1.5L1184,1467.68a3,3,0,1,1,5.19-3l39.74,68.81a3,3,0,0,1-1.1,4.09A2.92,2.92,0,0,1,1226.31,1538Z"/><path class="cls-3" d="M814.53,824.74a3,3,0,0,1-2.6-1.5l-40.86-70.77a3,3,0,0,1,5.2-3l40.85,70.77a3,3,0,0,1-2.59,4.5Z"/><path class="cls-3" d="M1395.48,1363.88a3,3,0,0,1-1.43-.37l-67-36.54a3,3,0,0,1,2.87-5.27l67,36.54a3,3,0,0,1-1.44,5.64Z"/><path class="cls-3" d="M675.3,970.92a3,3,0,0,1-1.43-.36l-74.58-40.68a3,3,0,1,1,2.87-5.27l74.58,40.68a3,3,0,0,1-1.44,5.63Z"/><path class="cls-3" d="M1325.58,957.18a3,3,0,0,1-1.5-5.6l64.2-37.05a3,3,0,0,1,3,5.2l-64.2,37A3,3,0,0,1,1325.58,957.18Z"/><path class="cls-3" d="M605.73,1372.78a3,3,0,0,1-1.51-5.6l75.38-43.53a3,3,0,0,1,3,5.2l-75.38,43.52A2.89,2.89,0,0,1,605.73,1372.78Z"/><path class="cls-3" d="M780.82,1544.18a3,3,0,0,1-2.63-4.44l41-75.09a3,3,0,0,1,5.27,2.88l-41,75.08A3,3,0,0,1,780.82,1544.18Z"/><path class="cls-3" d="M1178.23,815.89a3,3,0,0,1-2.63-4.44L1211.85,745a3,3,0,0,1,5.27,2.87l-36.26,66.45A3,3,0,0,1,1178.23,815.89Z"/><path class="cls-3" d="M411,785.85a1.5,1.5,0,0,1-1-2.58l35.64-34.61a1.5,1.5,0,1,1,2.09,2.15l-35.64,34.61A1.47,1.47,0,0,1,411,785.85Z"/><path class="cls-3" d="M456.87,882.7a1.5,1.5,0,0,1-.19-3l49.24-6.55a1.5,1.5,0,1,1,.4,3l-49.25,6.55Z"/><path class="cls-3" d="M492.8,1005.38a1.48,1.48,0,0,1-.75-.2L449,980.38a1.5,1.5,0,0,1,1.5-2.6l43.05,24.8a1.5,1.5,0,0,1-.75,2.8Z"/><rect class="cls-1" x="1363.57" y="1424.26" width="454.71" height="293.2"/><path class="cls-3" d="M1818.3,1422.76H1362.07V1719h457.71v-296.2Zm-5,3-222.36,146.8-222.36-146.8ZM1365.07,1716V1427.05l225,148.56.83.55,225.85-149.11V1716Z"/><path class="cls-7" d="M1727.25,1559.33c-.17.68-.35,1.34-.53,2-7.64,27.75-20.74,36.49-27.59,33.94-2.23-.83-3.8-2.85-4.3-5.79-2.12-12.22,13.52-37.64,13.52-37.64S1737.19,1520.71,1727.25,1559.33Z"/><path class="cls-7" d="M1753.63,1582.53c-.51,3-2.22,4.92-4.62,5.48-6.47,1.54-18-6.89-24.66-31.75L1724,1555c-9.07-35.27,15.19-10,15.19-10S1755.57,1571.36,1753.63,1582.53Z"/><path class="cls-3" d="M1749,1588c-6.47,1.54-18-6.89-24.66-31.75l4.6-1.22S1729.25,1574.66,1749,1588Z"/><path class="cls-3" d="M1726.72,1561.33c-7.64,27.75-20.74,36.49-27.59,33.94,21.37-11.9,23.94-37.15,23.94-37.15Z"/><path class="cls-6" d="M1796.09,1407.7a34.38,34.38,0,0,0-13-15.06,42.32,42.32,0,0,0-4-2.3c-11.09-5.62-115.55-1.06-130.54-.38l-1.79.08a58.45,58.45,0,0,0-8.06,14.92c-1.6,4.77-2.22,9.89-.1,14.07.68,1.32,3.23,5.68,5.86,10.13L1702.81,1530l5.63,9.72-2,6.07-2.83,8.44,21.72,12.14,71.55-132.25C1799.25,1429.33,1800.74,1418.24,1796.09,1407.7Zm-72.26,86.11-3.93,11.72-2.71-8.87-21.34-69.88,6.63-3.12,16.66-7.85,18.14,12.22,7,4.73Z"/><path class="cls-8" d="M1796.09,1407.7c-33.71-4.65-52.38,12.7-58.81,20.33l-18.14-12.22-16.66,7.85c-15.3-11-43.29-16.23-63.8-18.7a58.45,58.45,0,0,1,8.06-14.92l1.79-.08c15-.68,119.45-5.24,130.54.38a42.32,42.32,0,0,1,4,2.3A34.38,34.38,0,0,1,1796.09,1407.7Z"/><path class="cls-1" d="M1700.49,1222.89s1,26.4-1.36,29.41-14.58,9.87-14.58,9.87l41.69,26.3,25-25.77s-13.4-5.87-14.66-9.35c-1.76-4.82-1.44-30.46-1.44-30.46Z"/><path class="cls-3" d="M1726.47,1290.38l-44.85-28.29,2.2-1.23c4.81-2.7,12.55-7.44,14.13-9.48,1.23-1.75,1.5-16.12,1-28.44l3-.11c.24,6.32.81,27.2-1.68,30.39-1.9,2.45-9.1,6.83-12.85,9l38.55,24.32,22.68-23.36c-4.39-2-12.34-6.12-13.51-9.33-1.8-4.94-1.56-28.34-1.53-31l3,0c-.08,7,0,26.18,1.35,29.92.64,1.78,7.69,5.8,13.85,8.5l2,.87Z"/><path class="cls-3" d="M1707.2,1169.13s-16.48,2.47-16.48,12.36c0,11.27,1.91,25.77,3,33.4a6.14,6.14,0,0,0,6.08,5.24H1734a6.15,6.15,0,0,0,6.11-5.45c1.2-10.45,3.54-32.58,2.29-35.91C1738.14,1167.41,1707.2,1169.13,1707.2,1169.13Z"/><path class="cls-1" d="M1710.19,1231.77c9.67,1.12,21.75-.71,25.1-4.06,2-2,2.76-9.74,3-18.61a.74.74,0,0,1,.38-.62c2.39-1.37,5.85-4.3,5.75-8.7-.09-3.82-3-3-5.2-1.79a.61.61,0,0,1-.9-.52c-.18-10.7-.79-20.08-.79-20.08h-43.27s.08,9.54.5,20.24a.61.61,0,0,1-.91.55c-2.29-1.32-5.44-2.41-5.54,1.6-.11,5,4.35,8.09,6.64,9.17a.72.72,0,0,1,.42.6c.5,7.55,1.22,14.07,2.26,16.38a7.24,7.24,0,0,0,3.11,3.15Z"/><path class="cls-3" d="M1716.06,1233.58a53.15,53.15,0,0,1-6-.32,1.5,1.5,0,0,1,.35-3c10.22,1.18,21.22-1,23.87-3.63.65-.65,2.19-3.66,2.54-17.59a2.2,2.2,0,0,1,1.13-1.88c1.53-.88,5.09-3.36,5-7.37,0-.91-.24-1.24-.32-1.28s-1-.15-2.67.78a2.11,2.11,0,0,1-3.11-1.82c-.14-8.14-.53-15.59-.7-18.6h-40.34c0,3.11.16,10.6.48,18.68a2.11,2.11,0,0,1-3.17,1.9c-1.88-1.08-2.77-1-3-1s-.29.37-.32,1.29c-.11,4.87,5.18,7.49,5.78,7.78a2.21,2.21,0,0,1,1.27,1.86c.72,10.78,1.56,14.58,2.14,15.86a5.77,5.77,0,0,0,2.5,2.48,1.5,1.5,0,1,1-1.52,2.59,8.68,8.68,0,0,1-3.71-3.84c-1-2.18-1.76-7.57-2.37-16.44-3.43-1.75-7.2-5.42-7.09-10.36,0-1.87.67-3.16,1.85-3.83s2.67-.58,4.54.25c-.36-10-.44-18.66-.44-18.75l0-1.52h46.19l.1,1.4c0,.09.56,8.73.76,18.76,1.76-.72,3.21-.76,4.31-.12s1.77,2,1.82,3.81c.12,5.3-4,8.51-6.14,9.82-.4,14.55-2.13,17.93-3.4,19.21C1733.19,1231.94,1724.25,1233.58,1716.06,1233.58Zm-22.82-35.9h0Zm1.33-.8h0Z"/><path class="cls-3" d="M1693.34,1178.5c6.84,8.51,37,16.88,51.34-11.48s-26.31-6-39.63-2C1699.35,1166.73,1687.48,1171.22,1693.34,1178.5Z"/><path class="cls-1" d="M1808.15,1379s-1.41.86-3.64,2.17a240.57,240.57,0,0,1-21.44,11.45,39.85,39.85,0,0,1-4,1.54c-3.15,1-6.82,1.87-10.87,2.71-27.25,5.72-71.93,8.58-93.23,2.74-1.33-.36-2.62-.73-3.89-1.12a167,167,0,0,1-22.55-8.55c-15.42-7.17-23.84-14.06-23.84-14.06a18.77,18.77,0,0,1-6.62-22l31.24-81.06,29.76-13.11a10.54,10.54,0,0,1,9,1.08c7.91,5,23.57-2.47,30.91-1.7,17.35,1.82,24.17,4.4,30.64.5a10.51,10.51,0,0,1,8.07-1.16l26.88,15,32.41,82A18.75,18.75,0,0,1,1808.15,1379Z"/><path class="cls-3" d="M1707.82,1404.33c-13.11,0-25-1-33.25-3.25-1.33-.37-2.64-.74-3.93-1.13a170.1,170.1,0,0,1-22.75-8.63c-15-7-23.39-13.64-24.11-14.23a20.25,20.25,0,0,1-7.11-23.75l31.46-81.64,30.46-13.42a12,12,0,0,1,10.26,1.24c4.43,2.78,12.13,1.1,18.91-.4,4.31-.94,8.37-1.83,11.36-1.52,4.47.47,8.19,1,11.47,1.43,9.24,1.27,13.88,1.91,18.23-.72a12.07,12.07,0,0,1,9.23-1.33l.35.14,27.35,15.25.2.5,32.41,82.05a20.2,20.2,0,0,1-9.48,25.41c-.25.16-1.6,1-3.61,2.16a244.65,244.65,0,0,1-21.59,11.52,39.66,39.66,0,0,1-4.18,1.6c-3.16,1-6.86,1.89-11,2.75C1751.26,1402,1728.07,1404.33,1707.82,1404.33Zm-57.34-130.39-31,80.48a17.29,17.29,0,0,0,6.09,20.26c.16.13,8.56,6.92,23.6,13.92a166.35,166.35,0,0,0,22.35,8.48c1.26.38,2.54.75,3.85,1.11,20.57,5.64,64.45,3.12,92.53-2.77,4-.84,7.66-1.75,10.74-2.68a36.76,36.76,0,0,0,3.84-1.47c6.63-2.91,16.18-8.37,21.28-11.37,2.21-1.3,3.61-2.15,3.62-2.16l.09,0a17.22,17.22,0,0,0,8.11-21.67l-32.22-81.55-26.24-14.63a9,9,0,0,0-6.74,1c-5.26,3.17-10.56,2.44-20.18,1.12-3.27-.45-7-1-11.38-1.42-2.5-.26-6.34.58-10.4,1.47-7.36,1.62-15.68,3.45-21.15,0a9,9,0,0,0-7.65-1Z"/><path class="cls-3" d="M1680.91,1314a1.5,1.5,0,0,0-1.92.91l-13.85,38.59-11.82-6.21a1.5,1.5,0,0,0-1.39,2.66l24.15,12.68a1.57,1.57,0,0,0,.7.17,1.5,1.5,0,0,0,.69-2.83l-9.65-5.07,14-39A1.5,1.5,0,0,0,1680.91,1314Z"/><path class="cls-3" d="M1786.24,1347.89a1.5,1.5,0,0,0-2-.63l-11.82,6.21-13.85-38.59a1.5,1.5,0,1,0-2.82,1l14,39-9.65,5.07a1.5,1.5,0,0,0,.7,2.83,1.56,1.56,0,0,0,.69-.17l24.15-12.68A1.49,1.49,0,0,0,1786.24,1347.89Z"/><polygon class="cls-7" points="1729.27 1265.86 1720.3 1259.94 1710.09 1264.97 1715.95 1273.53 1706.6 1376.1 1720.7 1402.84 1733.14 1376.1 1722.37 1274.06 1729.27 1265.86"/><polygon class="cls-4" points="1657.2 1326.66 1671.24 1395.87 1768.03 1395.87 1779.07 1326.66 1657.2 1326.66"/><path class="cls-3" d="M1769.31,1397.37H1670l-14.65-72.2h125.45Zm-96.84-3h94.28l10.56-66.2H1659Z"/><rect class="cls-5" x="1671.08" y="1395.87" width="97.12" height="7.52"/><path class="cls-3" d="M1769.7,1404.89H1669.58v-10.52H1769.7Zm-97.12-3h94.12v-4.52h-94.12Z"/><path class="cls-3" d="M1709.21,1504.05a1.51,1.51,0,0,1-1.43-1l-29.25-88.09L1711.7,1402a1.5,1.5,0,1,1,1.09,2.79l-30.52,11.9,28.36,85.39a1.49,1.49,0,0,1-1,1.89A1.33,1.33,0,0,1,1709.21,1504.05Z"/><path class="cls-3" d="M1712.25,1552.35a1.4,1.4,0,0,1-.56-.11,1.49,1.49,0,0,1-.84-1.94l51.48-129.43-32.49-16.13a1.5,1.5,0,0,1,1.34-2.69l35,17.36-52.5,132A1.5,1.5,0,0,1,1712.25,1552.35Z"/><polygon class="cls-8" points="1719.9 1505.53 1708.43 1539.73 1702.81 1530.02 1717.19 1496.66 1719.9 1505.53"/><path class="cls-3" d="M1709.42,1584a1.37,1.37,0,0,1-.62-.14l-10.3-4.73a1.5,1.5,0,0,1,1.25-2.73l10.3,4.74a1.5,1.5,0,0,1-.63,2.86Z"/><path class="cls-3" d="M1712,1576.61a1.37,1.37,0,0,1-.62-.14l-10.3-4.73a1.5,1.5,0,0,1,1.25-2.73l10.3,4.74a1.5,1.5,0,0,1-.63,2.86Z"/><path class="cls-3" d="M1714.57,1569.23a1.37,1.37,0,0,1-.62-.14l-10.3-4.73a1.5,1.5,0,1,1,1.25-2.73l10.3,4.74a1.5,1.5,0,0,1-.63,2.86Z"/><path class="cls-3" d="M1739.64,1576.61a1.5,1.5,0,0,1-.62-2.86l10.29-4.74a1.5,1.5,0,0,1,1.26,2.73l-10.3,4.73A1.41,1.41,0,0,1,1739.64,1576.61Z"/><path class="cls-3" d="M1736.46,1568.91a1.5,1.5,0,0,1-.63-2.87l10.3-4.73a1.5,1.5,0,0,1,2,.73,1.52,1.52,0,0,1-.74,2l-10.3,4.73A1.51,1.51,0,0,1,1736.46,1568.91Z"/><path class="cls-3" d="M1732.74,1561.52a1.5,1.5,0,0,1-.62-2.86l10.29-4.73a1.5,1.5,0,0,1,1.26,2.72l-10.3,4.74A1.55,1.55,0,0,1,1732.74,1561.52Z"/><circle class="cls-1" cx="1717.9" cy="1364.21" r="9.28"/><path class="cls-3" d="M1717.9,1375a10.78,10.78,0,1,1,10.78-10.78A10.79,10.79,0,0,1,1717.9,1375Zm0-18.56a7.78,7.78,0,1,0,7.78,7.78A7.79,7.79,0,0,0,1717.9,1356.43Z"/><path class="cls-3" d="M1727.49,1202.24h0a1.5,1.5,0,0,1-1.48-1.52v-1a1.49,1.49,0,0,1,1.5-1.49h0a1.51,1.51,0,0,1,1.49,1.52v1A1.51,1.51,0,0,1,1727.49,1202.24Z"/><path class="cls-3" d="M1707.43,1202.24a1.51,1.51,0,0,1-1.5-1.49v-1a1.5,1.5,0,0,1,1.48-1.52h0a1.5,1.5,0,0,1,1.5,1.49v1a1.51,1.51,0,0,1-1.49,1.52Z"/><path class="cls-3" d="M1703.12,1197.61a1.5,1.5,0,0,1-.77-2.79,11.49,11.49,0,0,1,8.31-1.18,1.5,1.5,0,0,1-.8,2.89,8.55,8.55,0,0,0-6,.87A1.5,1.5,0,0,1,1703.12,1197.61Z"/><path class="cls-3" d="M1731.74,1197.61a1.54,1.54,0,0,1-.77-.21,8.56,8.56,0,0,0-6-.87,1.5,1.5,0,0,1-.79-2.89,11.49,11.49,0,0,1,8.31,1.18,1.5,1.5,0,0,1-.77,2.79Z"/><path class="cls-3" d="M1717.14,1213a1.5,1.5,0,0,1-.24-3,20.9,20.9,0,0,0,3.49-.86,20.9,20.9,0,0,1-3.25-6,1.5,1.5,0,1,1,2.8-1.07,17.27,17.27,0,0,0,3,5.4,2.75,2.75,0,0,1,.86,2.4c-.11.63-.39,2.11-6.37,3.1A1.06,1.06,0,0,1,1717.14,1213Zm3.73-3.24h0Z"/><path class="cls-3" d="M1725.05,1214.92c.66,1-2.7,4.3-6.6,4.13-6.37-.28-8.34-4.64-6.8-4.33a19.16,19.16,0,0,0,6.73,1.52C1722.49,1216.34,1724.61,1214.27,1725.05,1214.92Z"/><path class="cls-1" d="M1681.59,1387.29a1.5,1.5,0,0,1-1.47-1.21l-9.86-50.23a1.5,1.5,0,1,1,2.94-.58l9.87,50.24a1.5,1.5,0,0,1-1.19,1.76A1.37,1.37,0,0,1,1681.59,1387.29Z"/><polygon class="cls-1" points="1718.96 1259.09 1701.87 1268.79 1678.88 1259.79 1693.98 1253.15 1718.96 1259.09"/><polygon class="cls-1" points="1718.96 1259.09 1736.91 1270.31 1755.89 1258.87 1745.62 1252.99 1718.96 1259.09"/><path class="cls-3" d="M1758.85,1258.84l-13-7.45-26.89,6.16-25.13-6-18.87,8.31,27,10.56,17-9.6,18,11.23Zm-57.1,8.29-19-7.42,11.33-5,20.79,4.94Zm43.64-12.55,7.54,4.32-16,9.65-14.09-8.81Z"/><path class="cls-7" d="M659.46,786.28c-9.3,33.86-25.3,44.51-33.66,41.39-2.71-1-4.62-3.47-5.24-7-2.59-14.91,8.36-35.07,16.49-45.9C640.83,769.67,661.87,777.48,659.46,786.28Z"/><path class="cls-3" d="M659.46,786.28c-9.32,33.85-25.3,44.51-33.66,41.39,26.06-14.5,30.27-49,30.27-49a12.27,12.27,0,0,1,3,3.49C660.27,784.88,659.46,786.28,659.46,786.28Z"/><path class="cls-3" d="M638.36,813.59a1.37,1.37,0,0,1-.62-.14l-12.56-5.77a1.5,1.5,0,1,1,1.25-2.73L639,810.73a1.5,1.5,0,0,1-.63,2.86Z"/><path class="cls-3" d="M641.48,804.59a1.58,1.58,0,0,1-.63-.13l-12.55-5.78a1.5,1.5,0,1,1,1.25-2.72l12.56,5.77a1.5,1.5,0,0,1-.63,2.86Z"/><path class="cls-1" d="M675.36,659.57s-19.8,116.17-21.75,122.21S644,795.51,641.07,796c-5.26.86-9-3.09-3.92-18.11L635.2,656.55Z"/><path class="cls-3" d="M639.76,797.6a5.9,5.9,0,0,1-4.71-2c-2.59-3-2.4-8.91.59-17.92l-2-122.71,43.43,3.26-.27,1.63C676,664.57,657,776.17,655,782.24,653,788.6,645,796.87,641.31,797.46A9.69,9.69,0,0,1,639.76,797.6Zm-3-139.43,1.92,119.93-.08.25c-3.5,10.43-2.28,14-1.24,15.27.72.85,1.9,1.14,3.5.88,2.23-.36,9.51-7.48,11.35-13.18,1.5-4.64,14.5-79.82,21.42-120.38Z"/><path class="cls-7" d="M627,775.77c-21.49,27.76-40.34,31.51-46.88,25.45-2.12-2-3-5-2.16-8.52,3.29-14.77,21.09-29.24,32.73-36.16C616.06,753.32,632.54,768.55,627,775.77Z"/><path class="cls-3" d="M627,775.77c-21.5,27.74-40.34,31.51-46.88,25.45,29.62-3.49,46.65-33.79,46.65-33.79a12.14,12.14,0,0,1,1.49,4.39C628.24,774.77,627,775.77,627,775.77Z"/><path class="cls-3" d="M597.62,793.1a1.54,1.54,0,0,1-1.1-.48l-9.41-10.13a1.5,1.5,0,1,1,2.2-2l9.41,10.12a1.51,1.51,0,0,1-1.1,2.53Z"/><path class="cls-3" d="M603.93,786a1.53,1.53,0,0,1-1.1-.47l-9.41-10.13a1.5,1.5,0,0,1,2.2-2L605,783.44a1.5,1.5,0,0,1-.08,2.12A1.48,1.48,0,0,1,603.93,786Z"/><path class="cls-1" d="M705.35,662.76S625.12,762.55,621,767.39s-13.22,9.21-16.11,8.54c-5.19-1.21-5.75-4.47,4.63-16.44l60.36-110.55Z"/><path class="cls-3" d="M605.53,777.49a4.13,4.13,0,0,1-1-.1c-1.62-.38-3.86-1.13-4.58-3.34-1-3,1.44-7.48,8.31-15.42L669.2,647.06l38.6,15.05-1.29,1.59c-3.27,4.08-80.28,99.86-84.36,104.66C618.3,772.9,609.75,777.49,605.53,777.49Zm65-126.68-59.8,109.54-.11.12c-7.17,8.28-8.21,11.45-7.82,12.65.07.21.27.85,2.4,1.35s10.58-3.28,14.63-8.05c3.76-4.43,72.7-90.17,83-103Z"/><path class="cls-3" d="M819.2,538.19c-3.43,12,17.36,64.22-25.74,87.1-53.31,28.3-79.68,43-79.68,43l-1.15,16.19L625.7,666s6-22.62,17.14-33.93c3.15-3.2,42.85-40.13,60.32-46.76,22.33-8.46,45.32-43,45.32-43Z"/><path class="cls-3" d="M729.25,350.33c4-3.65,17.24-5.62,25.62-4,8.72,1.65,36.68,105.21,36.68,105.21l-60.1,9.2L721.33,398S719.88,358.77,729.25,350.33Z"/><path class="cls-1" d="M739.74,399.51s9.53,26.16,8.32,29.48S742,444.9,742,444.9l31.34,44.43,40.13-15.61-11.73-35.05s-29.44-20.8-31.46-23.63c-2.81-3.92-6.44-17.88-6.44-17.88Z"/><path class="cls-3" d="M772.77,491.16l-32.49-46.05.29-.75c0-.12,4.88-12.61,6.08-15.88.52-2.07-3.82-16.1-8.32-28.46a1.5,1.5,0,0,1,2.82-1c2.92,8,9.58,27.06,8.31,30.52-1,2.83-4.74,12.42-5.81,15.19l30.21,42.81,37.7-14.67-11.12-33.23c-5.75-4.07-29.4-20.88-31.42-23.7-2.92-4.09-6.51-17.79-6.66-18.37a1.5,1.5,0,1,1,2.9-.76c1,3.81,4,14.36,6.21,17.38,1.36,1.92,19.8,15.3,31.11,23.28l.4.29,12.34,36.87Z"/><polygon class="cls-1" points="719.85 489.33 692.14 572.71 709.39 580.25 739.08 504.46 719.85 489.33"/><path class="cls-3" d="M710.22,582.25l-19.93-8.71,28.81-86.7L740.89,504ZM694,571.89l14.56,6.36L737.28,505,720.6,491.83Z"/><path class="cls-7" d="M779.78,415.29c-5.61,1.11-16.66,24.77-27.75,26.59-3.35.55-2.37-6.13-4.93-8.86-11.53-12.3-17.73,24.77-22.92,32.92-12.58,19.8-19.25,25.79-19.51,33.09-.18,5.29,14.8,5.33,18.1,9.47,21.3,26.77,21-1.37,21-1.37-1.09,7.66-4.88,25.22,2.61,35.47,1,1.3,75,0,75.19-1.58C830.52,442.92,805.37,410.21,779.78,415.29Z"/><polygon class="cls-4" points="625.8 539.75 670.09 598.52 746.39 598.52 707.46 539.75 625.8 539.75"/><path class="cls-3" d="M749.18,600H669.34L622.8,538.25h85.47Zm-78.34-3H743.6l-37-55.77H628.81Z"/><path class="cls-1" d="M792.68,539.75s-42.24,51-45.21,55.39c-2.58,3.8-10.31,9.93-19.37,6.2-15.51-6.4-1.27-6.84-.19-6.72,1.73.18,7.3-3.64,7.3-3.64s-7.74-4.09-7.34-7,11.87,2.25,11.87,2.25l30-52.6,7-62.95,24.39,26Z"/><path class="cls-3" d="M733.77,604a16.15,16.15,0,0,1-6.24-1.27c-6.27-2.58-8.6-4.52-8-6.7.84-3.31,8.51-2.9,8.59-2.89a15.74,15.74,0,0,0,4.26-2.07c-2.82-1.75-6.33-4.52-5.94-7.25a2.32,2.32,0,0,1,1.21-1.76c2.26-1.25,8.1.87,11.5,2.3l29.15-51.15,7.32-65.88,27.15,28.93-8.64,44.16-.25.29c-.42.51-42.22,51-45.12,55.28C746.26,599.6,740.59,604,733.77,604Zm-11.1-7.23c.54.5,2,1.54,6,3.19,8.76,3.61,15.79-3,17.56-5.65,2.89-4.26,41.26-50.64,45-55.22l8.2-41.89-21.64-23.07-6.67,60-30.8,54.05-1.25-.55c-3.93-1.76-8.1-3.07-9.66-3,.53,1.09,3.16,3.29,6.45,5l2.2,1.16-2.05,1.41c-2.25,1.54-6.32,4.11-8.3,3.89A17,17,0,0,0,722.67,596.76Zm70-57h0Z"/><path class="cls-7" d="M777.83,435.59c-16.56,3.1-2.13,14-14.17,49.66-11,32.72-14.77,32.51,31.53,41.77,19.19,3.84,14-23.12,16.75-48.24C813.48,464.52,793.69,432.62,777.83,435.59Z"/><path class="cls-3" d="M798.64,528.9a19.63,19.63,0,0,1-3.74-.4c-24.87-5-35.1-7.24-38.56-13.27-2.88-5-.56-11.76,3.67-24,.69-2,1.44-4.17,2.23-6.5a97.11,97.11,0,0,0,5.22-26.56,1.5,1.5,0,1,1,3,.14,99.57,99.57,0,0,1-5.38,27.38q-1.19,3.51-2.24,6.52c-3.81,11-6.1,17.63-3.89,21.49,2.79,4.88,13.22,7.15,36.54,11.81,3.55.71,6.22.31,8.17-1.23,5-3.93,5.32-15,5.74-27.74.19-5.86.39-11.92,1-18a1.5,1.5,0,0,1,3,.32c-.65,5.94-.84,11.93-1,17.73-.45,13.53-.83,25.2-6.88,30A10.68,10.68,0,0,1,798.64,528.9Z"/><path class="cls-1" d="M765.67,405.09c2.79-3.51,10.93-18.94,9.59-23.65s-6.47-2.45-7.85-1.19c-.92.84-7.81-25.85-7.81-25.85l-36.83,8.92s1.76,25.56,7.2,38,12.45,13.92,22,11.31Z"/><path class="cls-3" d="M745,415.21c-7.4,0-12.38-4.19-16.36-13.28-5.48-12.54-7.24-37.46-7.31-38.51l-.09-1.26,39.5-9.56.37,1.43c2.53,9.81,5.52,20.5,6.85,24.09a7.52,7.52,0,0,1,5.36-.83,5,5,0,0,1,3.44,3.74c1.61,5.7-7.37,21.85-9.87,25a1.5,1.5,0,0,1-2.35-1.87c3-3.72,10.42-18.45,9.33-22.3-.35-1.25-1-1.55-1.37-1.67-1.35-.39-3.37.57-4,1.18l-.63.57-.88-.23c-.95-.28-1.93-.57-8.39-25.49l-34.15,8.26c.44,5.28,2.38,25.75,7,36.26,5.2,11.9,11.59,12.83,20.22,10.47a1.5,1.5,0,1,1,.79,2.89A28.26,28.26,0,0,1,745,415.21Z"/><path class="cls-3" d="M734.19,390.14a1.52,1.52,0,0,1-1.48-1.23l-.22-1.22a1.5,1.5,0,1,1,3-.54l.22,1.22a1.5,1.5,0,0,1-1.2,1.74Z"/><path class="cls-3" d="M750.44,385.67a1.52,1.52,0,0,1-1.48-1.23l-.22-1.22a1.5,1.5,0,1,1,3-.54l.22,1.22a1.5,1.5,0,0,1-1.2,1.75Z"/><path class="cls-3" d="M747.1,379.6a1.5,1.5,0,0,1-.8-2.77,11.23,11.23,0,0,1,8.12-1.25,1.5,1.5,0,0,1-.73,2.91,8.32,8.32,0,0,0-5.79.88A1.57,1.57,0,0,1,747.1,379.6Z"/><path class="cls-3" d="M737.35,400.25c-.42.81,3.37,2.67,5.88,2,6.34-1.67,7.1-6.69,5.87-5.6a15.71,15.71,0,0,1-6.48,3.28C738.52,400.7,737.83,399.32,737.35,400.25Z"/><path class="cls-3" d="M739.51,396.21c-2.79,0-3.25-.85-3.47-1.27a3.29,3.29,0,0,1,.21-2.89,19.6,19.6,0,0,0,1.34-6.47c.18-3-.13-3.84-.23-4-.12,0-.35,0-.51,0h-.37c-1.44-.08-4.76,1.18-6.53,2a1.51,1.51,0,0,1-2-.74,1.49,1.49,0,0,1,.74-2c.53-.24,5.31-2.41,7.94-2.26h.3a3.38,3.38,0,0,1,2.61,1c1,1,1.24,2.8,1,6.27a22.44,22.44,0,0,1-1.54,7.36l0,.09a21,21,0,0,0,3.31-.23,1.5,1.5,0,1,1,.43,3A23.66,23.66,0,0,1,739.51,396.21Z"/><path class="cls-3" d="M753.31,543.28a1.49,1.49,0,0,1-1.48-1.27c-6.88-43.82-.08-96.15,0-96.68a1.5,1.5,0,0,1,3,.4c-.07.52-6.82,52.43,0,95.81a1.5,1.5,0,0,1-1.25,1.72Z"/><path class="cls-3" d="M742.59,516.6a1.5,1.5,0,0,1-1.5-1.5V483.76a1.5,1.5,0,1,1,3,0V515.1A1.5,1.5,0,0,1,742.59,516.6Z"/><path class="cls-3" d="M722,360.52s37.4,5.39,46.86,21.43a10,10,0,0,1,3.66-1.42,4.74,4.74,0,0,1,2.88.43L767.8,354.3Z"/><path class="cls-3" d="M739.81,346.83s-42.28,1.56-22.59,71.86c12.07,43.12,24,54.63,24,54.63s-5.39-14.69-10.89-61.35c-1.88-16-6-23.71-4.78-33.18C728.28,358.31,739.81,346.83,739.81,346.83Z"/><path class="cls-3" d="M743.38,346.26s63.11-15.95,44.24,118.2l-27.43-87Z"/><path class="cls-1" d="M692.83,571.25a6.74,6.74,0,1,1-6.73-6.73A6.73,6.73,0,0,1,692.83,571.25Z"/><path class="cls-3" d="M686.1,579.49a8.24,8.24,0,1,1,8.23-8.24A8.25,8.25,0,0,1,686.1,579.49Zm0-13.47a5.24,5.24,0,1,0,5.23,5.23A5.24,5.24,0,0,0,686.1,566Z"/><path class="cls-1" d="M675.36,591.73a1.49,1.49,0,0,1-1.22-.63L645,550.76a1.5,1.5,0,0,1,2.44-1.76l29.12,40.35a1.51,1.51,0,0,1-1.21,2.38Z"/><polygon class="cls-1" points="990.07 1678.26 990.03 1695.87 965.63 1695.87 963.6 1679.16 990.07 1678.26"/><path class="cls-3" d="M991.53,1697.37H964.3l-2.39-19.66,29.66-1Zm-24.57-3h21.58l0-14.56-23.28.79Z"/><polygon class="cls-1" points="891.7 1678.64 891.04 1696.46 866.63 1696.46 865.48 1678.26 891.7 1678.64"/><path class="cls-3" d="M892.48,1698H865.23l-1.35-21.23,29.38.43ZM868,1695h21.55l.56-14.84-23.07-.34Z"/><path class="cls-7" d="M891.82,1694s35.8,11.94,37,21.77h-64.2V1694Z"/><polygon class="cls-3" points="931.16 1712.31 931.16 1717.61 863.97 1717.61 863.97 1711.55 931.16 1712.31"/><path class="cls-3" d="M894.75,1703.55a1.5,1.5,0,0,1-.43-2.93l12.19-3.65a1.5,1.5,0,1,1,.86,2.87l-12.19,3.65A1.65,1.65,0,0,1,894.75,1703.55Z"/><path class="cls-3" d="M900.84,1707.2a1.5,1.5,0,0,1-.43-2.94l12.19-3.64a1.5,1.5,0,1,1,.86,2.87l-12.19,3.65A1.59,1.59,0,0,1,900.84,1707.2Z"/><path class="cls-3" d="M909.29,1710.85a1.5,1.5,0,0,1-.43-2.94l12.19-3.65a1.5,1.5,0,1,1,.86,2.88l-12.19,3.65A1.59,1.59,0,0,1,909.29,1710.85Z"/><polygon class="cls-3" points="899.79 1681.32 860.96 1681.32 857.65 1370.03 969.6 1389.36 996.24 1681.32 958.85 1681.32 919.72 1487.34 924.19 1444.81 899.79 1681.32"/><path class="cls-1" d="M920.18,1199.36s-2.75,28.85-.44,32,20.7,8.22,20.7,8.22L913,1306.14l-47.7-4.61-3.09-48.82S884,1235,885.33,1231.33c1.82-5,1.82-32,1.82-32Z"/><path class="cls-3" d="M914,1307.74l-50.08-4.84L860.7,1252l.6-.49c10.54-8.59,21.89-18.69,22.62-20.72,1.42-3.93,1.73-24,1.73-31.46a1.5,1.5,0,0,1,1.5-1.5h0a1.5,1.5,0,0,1,1.5,1.5c0,2.78,0,27.34-1.91,32.48-1.32,3.66-18.2,17.65-23,21.54l3,46.78,45.31,4.38,26.34-63.93c-5.13-1.47-17.69-5.3-19.88-8.33-2.45-3.39-.5-26.16.16-33.06a1.5,1.5,0,0,1,3,.28c-1.27,13.43-1.91,29.12-.71,31,1.25,1.72,11.09,5.24,19.88,7.64l1.63.45Z"/><path class="cls-1" d="M1082.39,1249.41l-4.54.44-14,21-11.71-16.94s16.63-10.49,17.19-14.79,5.37-9.45,8.42-10c6.85-1.27,13.54,5.06,14.35,9.26S1082.39,1249.41,1082.39,1249.41Z"/><path class="cls-3" d="M1063.84,1273.47l-13.85-20,1.32-.83c7.71-4.86,16.21-11.49,16.5-13.71.65-5,6-10.62,9.63-11.3,7.52-1.39,15.11,5.32,16.1,10.45.9,4.69-7.67,10.84-10.31,12.62l-.32.21-4.21.41Zm-9.61-19.18,9.57,13.85,13.2-19.71,4.87-.47c4.55-3.12,9.07-7.54,8.72-9.35-.64-3.36-6.54-9.2-12.6-8.07-2.29.42-6.71,4.9-7.21,8.73C1070.24,1243.49,1059.26,1251,1054.23,1254.29Zm28.16-4.88h0Z"/><path class="cls-3" d="M1387.81,1677.08H1373l-16.86-60.45h12.13a1.5,1.5,0,0,0,0-3h-13l-16.86-60.44h11.58a1.5,1.5,0,1,0,0-3h-12.41l-16.86-60.44h11a1.5,1.5,0,0,0,0-3H1320l-16.86-60.44H1313a1.5,1.5,0,0,0,0-3h-10.69l-16.86-60.45h13a1.5,1.5,0,0,0,0-3h-13.79l-16.85-60.44h11.76a1.5,1.5,0,0,0,0-3h-12.6L1250.05,1236h15.39a1.5,1.5,0,0,0,0-3h-16.23l-16.85-60.45h16.31a1.5,1.5,0,0,0,0-3h-17.15l-14.87-53.33a1.5,1.5,0,0,0-2.89.81l14.65,52.52h-97.09l-14.87-53.33L1115,1111,946.53,1715.26a1.5,1.5,0,0,0,2.89.8L1115,1122.19l13.2,47.34h-8.13a1.5,1.5,0,0,0,0,3h9l16.85,60.45h-9a1.5,1.5,0,0,0,0,3h9.88l16.85,60.44h-12.67a1.5,1.5,0,1,0,0,3h13.51l16.85,60.44h-11.48a1.5,1.5,0,0,0,0,3h12.32l16.85,60.45h-14.59a1.5,1.5,0,0,0,0,3h15.42l16.86,60.44h-13.41a1.5,1.5,0,1,0,0,3h14.24l16.86,60.44h-12.86a1.5,1.5,0,0,0,0,3h13.69l16.86,60.44h-12.31a1.5,1.5,0,0,0,0,3h13.14l16.85,60.45h-10.49a1.5,1.5,0,0,0,0,3h11.33l10,36a1.5,1.5,0,0,0,1.45,1.1,1.39,1.39,0,0,0,.4-.06,1.49,1.49,0,0,0,1-1.84l-9.8-35.18h97.09l10,36a1.49,1.49,0,0,0,1.44,1.1,1.45,1.45,0,0,0,.41-.06,1.49,1.49,0,0,0,1-1.84l-9.81-35.18h13.94a1.5,1.5,0,0,0,0-3Zm-255.66-504.55h97.09l16.85,60.45H1149Zm17.69,63.45h97.09l16.85,60.44H1166.7Zm17.69,63.44h97.09l16.85,60.44h-97.09Zm17.69,63.44h97.09l16.85,60.45h-97.09Zm17.69,63.45H1300l16.85,60.44h-97.09Zm17.69,63.44h97.09l16.85,60.44h-97.09Zm17.69,63.44h97.09l16.85,60.44h-97.09Zm34.54,123.89L1256,1616.63h97.09l16.85,60.45Z"/><path class="cls-7" d="M990.23,1694s36.37,11.61,37.63,21.18H962.64V1694Z"/><polygon class="cls-3" points="962.64 1711.37 962.64 1717.02 1029.83 1717.02 1029.83 1710.96 962.64 1711.37"/><path class="cls-3" d="M992,1701.72a1.5,1.5,0,0,1-.43-2.93l12.19-3.65a1.5,1.5,0,1,1,.86,2.87l-12.19,3.65A1.59,1.59,0,0,1,992,1701.72Z"/><path class="cls-3" d="M998.11,1705.37a1.5,1.5,0,0,1-.43-2.94l12.19-3.64a1.5,1.5,0,1,1,.86,2.87l-12.19,3.65A1.65,1.65,0,0,1,998.11,1705.37Z"/><path class="cls-3" d="M1006.55,1709a1.5,1.5,0,0,1-.43-2.94l12.2-3.65a1.5,1.5,0,0,1,.85,2.88L1007,1709A1.54,1.54,0,0,1,1006.55,1709Z"/><path class="cls-1" d="M1071.25,1241.78c-3.07-9.89,4.83-12.41,6.75-12.87a.26.26,0,0,1,.32.31c-.47,2.14-2.72,12.28-3.52,14.49C1073.9,1246.17,1071.75,1243.38,1071.25,1241.78Z"/><path class="cls-3" d="M1073.79,1246.18h0c-2,0-3.55-2.74-3.93-4h0c-1.17-3.76-1-7,.48-9.62a11.56,11.56,0,0,1,7.35-5.15,1.72,1.72,0,0,1,1.64.45,1.75,1.75,0,0,1,.49,1.64c-.63,2.87-2.75,12.43-3.57,14.68A2.57,2.57,0,0,1,1073.79,1246.18Zm-1.1-4.85a4.8,4.8,0,0,0,.83,1.47c.59-1.89,1.8-7,2.85-11.74a7.66,7.66,0,0,0-3.46,3c-1.06,1.86-1.14,4.3-.22,7.24Zm5.66-11h0Z"/><path class="cls-1" d="M1090.44,1236.93s-9.78-3.49-14.14-2.14-3.78,10.54,3.45,15.27S1093.56,1239,1090.44,1236.93Z"/><path class="cls-3" d="M1082.48,1252.43a6.42,6.42,0,0,1-3.55-1.11c-5.43-3.56-7.33-9.26-6.79-13a5.6,5.6,0,0,1,3.72-4.92c4.69-1.45,14,1.79,15.08,2.16l.34.17c2.89,1.94,1,8.14-1.47,11.87C1087.69,1250.75,1085.07,1252.43,1082.48,1252.43Zm-3.7-16.46a6.9,6.9,0,0,0-2,.25c-1.17.36-1.52,1.7-1.63,2.47-.42,3,1.32,7.41,5.46,10.12,1.79,1.17,3.66.69,5.58-1.41,2.92-3.23,4-8.13,3.47-9.17C1087.32,1237.44,1082.24,1236,1078.78,1236Z"/><path class="cls-5" d="M947.24,1233.68c14.42,5.26,32.52,45.25,44.51,47.53,15.52,2.94,64.74-36.53,64.74-36.53l14.06,21.94s-51.92,58.62-74.31,63.84c-9,2.09-27.86-11.35-27.86-11.35,2.35,9.05,2.06,80.12,2.06,80.12l-106.15-1.41-13.21-84.46-14.25,22.36-25.12-25.51c-8.79-3.3,21.43-72.49,61-78.46,3.8-.57,19.87-4.43,29.29,2.52,4.35,3.21,15.71,4,18.38-5.37C920.4,1228.9,944.11,1232.54,947.24,1233.68Z"/><path class="cls-1" d="M838.08,1345.61c-.14,4.84,32.51,51.72,35.46,52.09s23-2.53,21.56,2.49c-.85,2.92-8.73,3.07-10,5.47-1.59,3.09,3.49,5.64,2.3,5.79,0,0-10.79,7.5-12.6,8.73-2.49,1.69-11.24-5.2-14-12.66-1.76-4.82-64-50.84-58.32-75.5S838.42,1334.08,838.08,1345.61Z"/><path class="cls-3" d="M873.89,1421.94a5.5,5.5,0,0,1-1.7-.3c-4.16-1.34-10.41-7.26-12.73-13.6-.49-1-5.16-5.2-10.1-9.64-18.43-16.53-52.72-47.31-48.27-66.71,2.5-10.89,9.43-11.67,13.33-11.17,11.38,1.46,25.39,16.82,25.16,25.11.29,4.19,29.68,47.46,34.34,50.6.76,0,2.53-.07,4.4-.19,8.77-.54,15.64-.75,17.72,1.85a2.92,2.92,0,0,1,.5,2.72c-.68,2.33-3.53,3.22-6.29,4.09-1.31.4-3.49,1.08-3.78,1.64-.45.87.23,1.79,1.54,3.1.68.67,1.38,1.37,1,2.4a1.61,1.61,0,0,1-.93,1c-1.51,1-10.74,7.46-12.43,8.6A3.09,3.09,0,0,1,873.89,1421.94Zm-61.21-98.54c-4.39,0-7.3,3-8.67,9-4,17.68,30.66,48.83,47.35,63.81,7.83,7,10.4,9.41,10.92,10.84a23.59,23.59,0,0,0,6.35,8.88c3,2.71,5,3.17,5.4,3,1.4-1,8.5-5.88,11.36-7.87-1.19-1.25-2.92-3.49-1.59-6.08.87-1.68,3.14-2.39,5.55-3.14,1.53-.47,4.08-1.27,4.31-2.06-1-1.61-11.67-1-15.16-.73a39.92,39.92,0,0,1-5.15.15c-2.47-.31-12.2-13.77-19.94-25-5.09-7.41-16.93-25-16.83-28.62h0c.21-6.91-12.79-20.81-22.55-22.07A10.43,10.43,0,0,0,812.68,1323.4Z"/><path class="cls-5" d="M898.13,1404.05a1.51,1.51,0,0,0-2.09-.38L872.53,1420a1.5,1.5,0,0,0,1.71,2.47l3.31-2.3L871.88,1675a1.5,1.5,0,0,0,1.47,1.53h0a1.5,1.5,0,0,0,1.5-1.46l5.72-257,17.15-11.88A1.51,1.51,0,0,0,898.13,1404.05Z"/><path class="cls-3" d="M911.57,1142.31c6,.7,20.47,2.24,20.34,12.92-.14,12.19-2.39,27.83-3.71,36.06a6.65,6.65,0,0,1-6.63,5.59l-36.79-.45a6.64,6.64,0,0,1-6.52-6c-1.15-11.31-3.39-35.26-2-38.85C881,1139.4,902.13,1141.18,911.57,1142.31Z"/><path class="cls-5" d="M835.67,1256s-46.68,47.79-48.32,64.45c-2.61,26.7,65.84,84.71,65.84,84.71l20.25-16.81L837.13,1333Z"/><path class="cls-1" d="M887.53,1204.43c-2-2.09-2.66-10.27-2.77-19.59a.8.8,0,0,0-.37-.65c-2.4-1.47-5.86-4.59-5.7-9.21.14-4,3-3.12,5.28-1.81a.61.61,0,0,0,.91-.54c.32-11.23,1-21.07,1-21.07l43.72.53s-.21,10-.76,21.24c0,.51-2.19,27.28-3.27,29.69a7.39,7.39,0,0,1-3.18,3.27s-2.83,2.26-18.72,2.07Z"/><path class="cls-3" d="M905.62,1209.87H903.7a1.5,1.5,0,0,1,0-3h0c14.6.18,17.71-1.71,17.84-1.79l.1-.07a6,6,0,0,0,2.57-2.59c.91-2.21,3-27.24,3.14-29.16.42-8.54.65-16.46.73-19.68l-40.79-.49c-.21,3.11-.71,11-1,19.59a2.15,2.15,0,0,1-1.1,1.82,2.09,2.09,0,0,1-2.07,0c-1.68-1-2.48-1-2.65-.86s-.34.41-.37,1.42c-.15,4.27,3.43,6.94,5,7.88a2.28,2.28,0,0,1,1.09,1.92c.17,14.67,1.71,17.87,2.36,18.57a1.5,1.5,0,1,1-2.18,2c-1.27-1.34-3-4.9-3.18-20.2-2.13-1.38-6.26-4.79-6.07-10.32.07-2,.71-3.28,1.92-4s2.57-.54,4.31.23c.33-10.57,1-19.67,1-19.76l.1-1.41,46.64.57,0,1.51c0,.1-.21,10.17-.76,21.29,0,.25-2.16,27.46-3.4,30.22a8.78,8.78,0,0,1-3.73,3.92C922.45,1208.1,918.81,1209.87,905.62,1209.87Zm-20.9-38h0Z"/><path class="cls-3" d="M900.74,1178.23h-.09a1.5,1.5,0,0,1-1.41-1.59l.06-.9a1.5,1.5,0,1,1,3,.18l0,.91A1.5,1.5,0,0,1,900.74,1178.23Z"/><path class="cls-3" d="M920.88,1178.53h0a1.5,1.5,0,0,1-1.47-1.53l0-1.06a1.5,1.5,0,1,1,3,.06l0,1.07A1.5,1.5,0,0,1,920.88,1178.53Z"/><path class="cls-3" d="M904.13,1171.51a1.58,1.58,0,0,1-.63-.13h0a9,9,0,0,0-6.4-.17,1.5,1.5,0,0,1-1.08-2.8,12,12,0,0,1,8.75.25,1.49,1.49,0,0,1,.72,2A1.48,1.48,0,0,1,904.13,1171.51Z"/><path class="cls-3" d="M905.15,1191.94c-.7,1,2.78,4.55,6.88,4.42,6.69-.21,8.82-4.77,7.2-4.47a20.2,20.2,0,0,1-7.09,1.52C907.82,1193.47,905.62,1191.26,905.15,1191.94Z"/><path class="cls-3" d="M892.35,1144.71s-20.34-5.31-14.55,21.94c3.31,15.57-3.85-4.54,13.82-15.73C893.45,1149.76,892.35,1144.71,892.35,1144.71Z"/><path class="cls-3" d="M912.41,1189.17a1.51,1.51,0,0,1-.3-3,6,6,0,0,0,2.5-1c.12-.63.06-.85-1.49-5-.37-1-.82-2.19-1.36-3.65l0-.11a14.31,14.31,0,0,1-.5-5.7,3.42,3.42,0,0,1,2.26-2.28c2.87-1.23,8-1.29,11,.58a1.5,1.5,0,0,1-1.57,2.55c-2.76-1.69-7.9-1-8.83-.09a12.23,12.23,0,0,0,.46,4.06c.53,1.43,1,2.61,1.34,3.58,1.74,4.64,1.92,5.12,1.61,6.71-.43,2.18-3.52,3-4.83,3.3Z"/><path class="cls-5" d="M968.23,1674.77,928.42,1448.5a1.49,1.49,0,0,0-.38-.76l2.11-12.45,0-25.69a1.5,1.5,0,0,0-3,0v25.31l-8.93,52.75a1.5,1.5,0,0,0,1.22,1.73l.26,0a1.49,1.49,0,0,0,1.47-1.25l5.48-32.3,38.61,219.43a1.5,1.5,0,0,0,1.48,1.24,1.18,1.18,0,0,0,.26,0A1.49,1.49,0,0,0,968.23,1674.77Z"/><polygon class="cls-7" points="916.83 1240.25 906.98 1233.95 896.8 1239.58 907.13 1249.47 902.55 1343.35 919.06 1369.75 930.64 1342.41 914.33 1248.16 916.83 1240.25"/><polygon class="cls-1" points="907.28 1234.11 890.16 1244.71 867.39 1230.4 878.71 1224.89 907.28 1234.11"/><polygon class="cls-1" points="907.13 1233.61 920.51 1242.65 934.84 1233.99 927.27 1227.67 907.13 1233.61"/><path class="cls-3" d="M937.41,1234.18l-9.79-8.17-21.19,6.25-27.83-9-14.3,7,25.86,16.25,17.39-10.77,12.91,8.72Zm-47.24,8.76-19.7-12.37,8.35-4.07,24.92,8Zm36.76-13.6,5.33,4.45-11.71,7.08-9.95-6.72Z"/><polygon class="cls-1" points="934.84 1267.67 934.88 1276.39 953.75 1276.33 953.71 1267.59 934.84 1267.67"/><path class="cls-3" d="M933.38,1277.89l0-11.71,21.87-.1,0,11.75Zm3-8.72,0,5.71,15.87-.05,0-5.73Z"/><path class="cls-3" d="M1060.45,1273.21a1.49,1.49,0,0,1-1.3-.76l-10.32-18a1.5,1.5,0,1,1,2.6-1.49l10.32,18a1.5,1.5,0,0,1-.55,2A1.56,1.56,0,0,1,1060.45,1273.21Z"/><path class="cls-3" d="M847.43,1398a1.46,1.46,0,0,1-1.17-.57,1.48,1.48,0,0,1,.24-2.1l17.6-13.95a1.5,1.5,0,1,1,1.86,2.35l-17.6,14A1.46,1.46,0,0,1,847.43,1398Z"/><path class="cls-3" d="M869.14,1394.64a1.53,1.53,0,0,1-1.1-.47,1.51,1.51,0,0,1,.07-2.12l3.72-3.47-36-56.5a1.5,1.5,0,1,1,2.53-1.61l37.34,58.6-5.54,5.17A1.48,1.48,0,0,1,869.14,1394.64Z"/><path class="cls-3" d="M851.93,1313.37a1.51,1.51,0,0,1-1.18-2.43l18.38-23.47a1.5,1.5,0,1,1,2.36,1.85l-18.38,23.47A1.48,1.48,0,0,1,851.93,1313.37Z"/><path class="cls-3" d="M937.69,1145.06c-2.48-4-7.88-2.48-9.91-8.49s-5.41-1.65-12.4-3.45-3.38-4.06-10.14-5-7.44,7-14.65,6.08-8,10.51-8,10.51l-.39.32c-2.76.1-7.27.6-8.94,2.74-4.15,5.3,4.09,6.16.81,15.75-1.59,4.65,8.64,8.84,7.74,4.86s1.61-6.12,3.19-9a19.24,19.24,0,0,0,1.58-4.67c1.09,0,1.79-.59,3.1-1.33,1.58-.9,6.21,1.74,9.14,2.64s8.33-.61,12.63-.38,5.49,1.06,7.52,6,13.59,5.25,16.29,1.87-2.57-6.58.81-8.16S940.17,1149.12,937.69,1145.06Z"/><path class="cls-7" d="M1293.54,1325.15c1.46,13.89.87,36.89.87,36.89h-9.83V1345l-4.91,17.07h-29.73v-10.53l17.19-8.31S1292.59,1316.12,1293.54,1325.15Z"/><path class="cls-1" d="M1272.6,1192.37l1.4,131.84s-8,19.52-7.37,20.19c5.25,6,25.21-19.54,25.21-19.54l16.59-132.49Z"/><path class="cls-3" d="M1268.74,1346.82a4.16,4.16,0,0,1-3.24-1.43c-.71-.82-1.19-1.37,7-21.47l-1.41-133.05h39l-16.85,134.59-.26.32c-1.66,2.13-16.48,20.83-24.14,21Zm-.52-3.08a1.59,1.59,0,0,0,.58.08c4.64-.13,15.59-11.93,21.61-19.56l16.32-130.39h-32.61l1.38,130.62-.11.28C1272.22,1332.55,1268.89,1341.22,1268.22,1343.74Z"/><path class="cls-3" d="M1295.32,1362l-.93-27.06c-10.09,5-14.76,12.12-16.81,16.51H1248.4V1362h31.27l1.35-4.68,3.51-11.88V1362Z"/><path class="cls-7" d="M1239.49,1325.15c1.46,13.89.87,36.89.87,36.89h-9.83V1345l-4.91,17.07h-29.74v-10.53l17.2-8.31S1238.53,1316.12,1239.49,1325.15Z"/><path class="cls-1" d="M1227.87,1192.37,1220,1324.21s-8,19.52-7.37,20.19c5.25,6,25.21-19.54,25.21-19.54l23.49-131.36Z"/><path class="cls-3" d="M1214.68,1346.82a4.14,4.14,0,0,1-3.23-1.43c-.72-.82-1.2-1.37,7-21.52l8-133,36.6,1.24-23.86,133.43-.23.29c-1.66,2.13-16.49,20.83-24.14,21Zm-.63-2.52Zm.11-.56a1.61,1.61,0,0,0,.59.08c4.65-.13,15.62-12,21.63-19.59l23.12-129.29-30.22-1-7.85,130.62-.1.23C1218.17,1332.55,1214.84,1341.23,1214.16,1343.74Z"/><path class="cls-3" d="M1241.26,1362l-.92-27.06c-10.09,5-14.77,12.12-16.81,16.51h-29.19V1362h31.28l1.34-4.68,3.52-11.88V1362Z"/><path class="cls-3" d="M1271,817.21a36.28,36.28,0,0,0-29.72,4.25c-14.73,9.52-14.77,12.2-15.36,22.49s-.71,16.57-9.22,18.23.11,23.56.11,23.56l74.77,10.31s6.82-10.23,5.82-15.79c-1.82-10.15-6.15-11.56-1.47-20.39C1298.41,855.14,1304.31,825.25,1271,817.21Z"/><path class="cls-3" d="M1300.59,998.93c0,12.43,19.45,35.62,18.62,61.32S1309,1241.08,1309,1241.08h-92.75S1213,1077,1218,1051.57s19.11-49.59,20.77-51.24S1300.59,986.49,1300.59,998.93Z"/><path class="cls-5" d="M1294.34,1037.59,1275,1019.13a1.5,1.5,0,0,0-2.08,2.16l9.15,8.73,2,200.62a1.51,1.51,0,0,0,1.5,1.49h0a1.5,1.5,0,0,0,1.48-1.52l-2-197.7,7.17,6.85a1.5,1.5,0,0,0,1,.42,1.5,1.5,0,0,0,1-2.59Z"/><path class="cls-5" d="M1225.89,1034.61a1.5,1.5,0,0,1-1-2.61l10.07-9.23a1.5,1.5,0,0,1,2,2.21l-10.08,9.23A1.45,1.45,0,0,1,1225.89,1034.61Z"/><path class="cls-1" d="M1275.2,863.16s6.18,35.54,7.2,37.22c14.81,24.44,3.51,21,6.25,21.33s-29,5.82-29,5.82l-23.67-7.31,7.27-9s6.55-4.71,9.17-8.43-.64-34.34-.64-34.34Z"/><path class="cls-3" d="M1259.52,929.07,1233.38,921l8.79-10.85.16-.12c.07,0,6.38-4.6,8.82-8.08,1.42-2,.64-18.86-.91-33.31l-.14-1.32,26.31-6,.27,1.56c2.31,13.26,6.25,35,7,36.77,7.47,12.31,9.69,19.74,6.75,22.62a3.27,3.27,0,0,1-.35.3c-.91,1.11-5.71,2.14-30.25,6.4Zm-21-9.63,21.21,6.55c9.12-1.59,23.11-4.14,27.27-5.17a1.61,1.61,0,0,1,1.34-.62.68.68,0,0,0,.21-.29c.39-.88,1-4.85-7.42-18.76-1-1.65-5.11-24.72-7.11-36.17l-20.63,4.67c.87,8.54,2.82,30.36.24,34s-8.28,7.88-9.36,8.66Z"/><path class="cls-1" d="M1272.91,872.06c3.59-2.3,9.89-7,10.14-11.61s-5.07-4.19-6.7-3.48c-1.09.47.39-22.77.39-22.77l-36-2.52s-5.66,19.91-4.58,32.77,6.94,16.35,16.31,16.92a21.85,21.85,0,0,0,11.23-2.09Z"/><path class="cls-3" d="M1254.12,882.92c-.56,0-1.13,0-1.7,0-11.55-.71-16.69-6-17.72-18.29-1.08-13,4.41-32.49,4.64-33.31l.33-1.17,38.66,2.7-.09,1.49c-.53,8.31-.91,17.47-.76,20.84a7.22,7.22,0,0,1,5.09.91,4.82,4.82,0,0,1,2,4.49c-.27,5-6,9.72-10.83,12.79a1.5,1.5,0,1,1-1.62-2.53c5.86-3.74,9.3-7.54,9.45-10.42.06-1.2-.36-1.63-.69-1.86a5,5,0,0,0-3.91-.17l-.78.34-.76-.49c-.78-.55-1.59-1.12-.26-22.6l-33.24-2.33c-1.17,4.43-5.11,20.39-4.22,31.07,1,12.25,6.47,15,14.92,15.55a20.74,20.74,0,0,0,10.47-1.94,1.5,1.5,0,1,1,1.32,2.69A23.07,23.07,0,0,1,1254.12,882.92Z"/><path class="cls-3" d="M1244,857a.82.82,0,0,1-.22,0,1.5,1.5,0,0,1-1.27-1.7l.18-1.17a1.5,1.5,0,0,1,3,.44l-.17,1.17A1.49,1.49,0,0,1,1244,857Z"/><path class="cls-3" d="M1260,858h-.23a1.51,1.51,0,0,1-1.26-1.71l.18-1.16a1.5,1.5,0,1,1,3,.44l-.17,1.16A1.49,1.49,0,0,1,1260,858Z"/><path class="cls-3" d="M1263.67,853.67a1.47,1.47,0,0,1-.54-.1l-.33-.13c-1.58-.61-4-1.54-5.39-1.25a1.5,1.5,0,0,1-.59-2.94c2.28-.46,5,.61,7.06,1.39l.33.13a1.5,1.5,0,0,1-.54,2.9Z"/><path class="cls-3" d="M1250.59,864.38a1.14,1.14,0,0,1-.26,0c-5.49-1-5.73-2.36-5.84-3a3.23,3.23,0,0,1,1.07-2.61,18.57,18.57,0,0,0,3.12-5.42,1.51,1.51,0,0,1,2-.84,1.49,1.49,0,0,1,.84,1.94,21.2,21.2,0,0,1-3.57,6.19,19.68,19.68,0,0,0,2.95.75,1.5,1.5,0,0,1-.26,3Z"/><path class="cls-3" d="M1248.8,851a1.4,1.4,0,0,1-.56-.11c-3.44-1.41-5.24-.64-5.26-.63a1.52,1.52,0,0,1-2-.72,1.47,1.47,0,0,1,.65-2c.29-.15,3-1.4,7.72.54a1.5,1.5,0,0,1-.57,2.89Z"/><path class="cls-3" d="M1235.21,834.4s34.59,1.14,41.12,16.94a9.19,9.19,0,0,1,3.5-.83,4.43,4.43,0,0,1,2.57.77l-2.29-26.63Z"/><path class="cls-1" d="M1138.31,820.29c4.93,5.32,28.47,67.92,28.47,67.92l17.72-15.8S1151,820.24,1152,817.7s6.3-17.6,2.9-14.31a57.22,57.22,0,0,0-5.82,6.82.52.52,0,0,1-.94-.27c-.63-4.82-7.42-24-10.87-22C1130.8,791.64,1127.45,808.58,1138.31,820.29Z"/><path class="cls-3" d="M1166.14,890.78l-.77-2c-9.42-25.06-24.69-63.69-28.16-67.43h0a27.93,27.93,0,0,1-7.14-23c.83-5.46,3.25-9.82,6.48-11.67a2.64,2.64,0,0,1,2.57,0c3.92,1.94,8.59,15,10.08,21a51.7,51.7,0,0,1,4.68-5.29c1.31-1.27,2.31-.91,2.79-.59,1.14.78,1.36,2.25-.52,8.52-1,3.18-2.1,6.38-2.62,7.72,1,4.14,20.19,34.9,32.23,53.64l.69,1.08Zm-26.73-71.51c4.64,5,23.45,54.33,28,66.37l15.13-13.5c-2.17-3.4-9.14-14.32-16-25.34-16.89-27.37-16.4-28.59-16-29.66a102.74,102.74,0,0,0,3.47-10.73c-1.59,1.77-3,3.59-3.79,4.69a2,2,0,0,1-2.13.76,2,2,0,0,1-1.51-1.72c-.65-5-6.27-19.62-8.8-20.82-2.32,1.45-4.17,5-4.84,9.43a25,25,0,0,0,6.38,20.52Z"/><path class="cls-7" d="M1289.62,902.31c-3.82-2.89-21.28,22.94-32.55,22.68-4.64-.11-4.25-13.84-6.33-21-2.47-8.5-37.23-7.58-59.75-31.68-4.13-4.41-4.74-20.91-12.64-14.8,0,0-19,11.48-19.44,11.86-10.18,8.87-4.79,9.22,16.3,31.93,11.65,12.54,34.83,14.41,47.6,29.72,8,9.59-3.14,49.62,15.88,70.33,0,0,61.81,1,62.22,0C1305.49,989.75,1306.25,914.89,1289.62,902.31Z"/><path class="cls-3" d="M1242.36,865.58c-.75.53,1.74,3.94,4.28,4.52,6.39,1.46,9.4-2.64,7.8-2.25a15.6,15.6,0,0,1-7.27-.09C1243.19,866.54,1243.21,865,1242.36,865.58Z"/><path class="cls-6" d="M1117.34,966.7c-43.52,99.55-90.86,175-105.74,168.48s8.34-92.48,51.86-192,90.86-175,105.74-168.49S1160.86,867.14,1117.34,966.7Z"/><circle class="cls-3" cx="1005.31" cy="1135.96" r="30.15" transform="translate(-508.8 1043.58) rotate(-45)"/><path class="cls-1" d="M1140.84,911.58c7,2,59.54,43.34,59.54,43.34l7-22.69s-55.69-27.27-56.13-30-3.73-18.32-4.93-13.74a58.14,58.14,0,0,0-1.45,8.85.52.52,0,0,1-.94.26c-3-3.8-18.78-16.69-20.7-13.21C1119.58,891,1125.48,907.19,1140.84,911.58Z"/><path class="cls-3" d="M1201.17,957.45l-1.72-1.35c-21-16.55-54.12-41.68-59-43.08h0a27.93,27.93,0,0,1-18-16c-2.12-5.11-2.31-10.1-.51-13.35a2.63,2.63,0,0,1,2.18-1.35c4.39-.39,15.15,8.42,19.51,12.74a52.46,52.46,0,0,1,1.26-7c.46-1.76,1.5-2,2.08-2,1.38.07,2.33,1.22,4,7.56.83,3.21,1.51,6.55,1.76,8,3,3,35.36,19.39,55.36,29.18l1.15.57Zm-76.75-72.14c-1.24,2.45-1,6.47.75,10.58a25,25,0,0,0,16.08,14.25h0c6.56,1.87,48.21,34.31,58.34,42.25l6-19.38c-3.63-1.78-15.25-7.51-26.78-13.42-28.63-14.65-28.83-16-29-17.09a100.51,100.51,0,0,0-2.59-11c-.44,2.33-.69,4.61-.81,6a2,2,0,0,1-1.43,1.75,2,2,0,0,1-2.18-.69c-3.11-3.89-15.18-13.25-18.19-13.25Z"/><path class="cls-7" d="M1284.31,911.29c-7.6-4.53-32.43,19.8-65.33,17.48-6-.42-17.71-12.09-19.33-2.23,0,0-6.11,21.34-6.17,21.92-1.41,13.43,2.77,10,33.67,12.29,17.08,1.26,35.32-13.16,55.1-10.64C1294.64,951.69,1290.69,915.11,1284.31,911.29Z"/><polygon class="cls-1" points="522.53 1662.93 532.53 1695.32 507.68 1695.17 496.67 1666.56 522.53 1662.93"/><path class="cls-3" d="M534.57,1696.83l-27.92-.17-12-31.33,29-4.06Zm-25.85-3.16,21.77.13-9-29.21-22.73,3.19Z"/><path class="cls-6" d="M534,1692.68s38.28,12.4,39.55,22.44l-68.77-.41.13-22.2Z"/><polygon class="cls-3" points="502.65 1710.51 502.62 1716.66 575.68 1717.08 575.72 1710.49 502.65 1710.51"/><path class="cls-3" d="M520.9,1710h0a1.51,1.51,0,0,1-1.49-1.51l.08-13.32a1.5,1.5,0,0,1,1.5-1.49h0a1.49,1.49,0,0,1,1.49,1.5l-.08,13.33A1.5,1.5,0,0,1,520.9,1710Z"/><polygon class="cls-1" points="507.76 1521.12 540 1543.88 524.72 1558.13 505.07 1541.76 507.76 1521.12"/><path class="cls-3" d="M524.77,1560.12l-21.29-17.74,3.11-23.92,35.78,25.26Zm-18.1-19,18,15,13-12.09-28.7-20.26Z"/><path class="cls-6" d="M539.86,1541.2s31.35-13.54,37.78-7.85l-44.07,38.28-12.36-14.23Z"/><polygon class="cls-3" points="577.12 1529.51 580.34 1533.21 533.51 1573.88 529.84 1569.65 577.12 1529.51"/><path class="cls-3" d="M537.16,1567.83a1.49,1.49,0,0,1-1.14-.52l-7.41-8.54a1.5,1.5,0,0,1,2.26-2l7.42,8.54a1.5,1.5,0,0,1-.15,2.11A1.48,1.48,0,0,1,537.16,1567.83Z"/><path class="cls-3" d="M368.17,1530.12s79.5,25,93.51,32.82c26.17,14.65,77.29,113.85,77.29,113.85l-49,2.33-60.05-74.66a360.87,360.87,0,0,1-85.95-15c-30-9.23-59.47-35.67-59.47-35.67l47.53-70s85.42-26.31,130.05-27.66c8.34-.26,75.11,78.77,75.11,78.77L509,1554.36,460.92,1506l-63.34,34.26Z"/><path class="cls-1" d="M300.67,1349.05s-1.31,28.54,1.08,31.82,18.42,15.4,18.42,15.4l-28.41,62.29-49.11-4.65-3.28-50.26s22.38-18.3,23.73-22.05c1.86-5.2,1.81-32.92,1.81-32.92Z"/><path class="cls-3" d="M292.68,1460.16l-51.44-4.88-3.41-52.3.59-.49c10.85-8.87,22.51-19.3,23.27-21.4,1.45-4.06,1.74-24.77,1.72-32.41a1.5,1.5,0,0,1,1.5-1.5h0a1.5,1.5,0,0,1,1.5,1.5c0,2.86,0,28.14-1.9,33.42-1.35,3.77-18.73,18.23-23.59,22.22l3.14,48.22,46.78,4.43,27.47-60.23c-3.72-2.84-15.6-12-17.78-15-2.49-3.44-1.67-26-1.36-32.77a1.47,1.47,0,0,1,1.56-1.43,1.5,1.5,0,0,1,1.43,1.57c-.61,13.4-.48,29,.8,30.87,1.85,2.54,13.7,11.75,18.12,15.08l.95.72Z"/><path class="cls-3" d="M300,1295.14c5.94,1.72,20.43,5.7,18.51,16.53-2.18,12.35-7.07,27.87-9.79,36a6.82,6.82,0,0,1-7.66,4.57l-37.3-6.59a6.83,6.83,0,0,1-5.63-7.15c.72-11.68,2.44-36.38,4.44-39.8C269.41,1287.09,290.61,1292.43,300,1295.14Z"/><path class="cls-1" d="M265.24,1354.24c-1.65-2.45-1-10.87.45-20.35a.8.8,0,0,0-.27-.73c-2.19-1.89-5.18-5.63-4.25-10.3.8-4,3.59-2.68,5.66-1a.63.63,0,0,0,1-.4c2.19-11.36,4.58-21.23,4.58-21.23l44.33,7.83s-1.88,10.14-4.32,21.45c-.11.51-6.77,27.35-8.27,29.62a7.69,7.69,0,0,1-3.77,2.79s-3.26,1.82-19.37-1Z"/><path class="cls-3" d="M295.61,1364a89.11,89.11,0,0,1-14.84-1.62,1.5,1.5,0,0,1,.52-3c14.82,2.62,18.31,1.21,18.45,1.15l.11,0a6.23,6.23,0,0,0,3.07-2.22c1.3-2.09,7.62-27.18,8.06-29.11,1.86-8.65,3.41-16.69,4-19.92L273.56,1302c-.72,3.1-2.55,11-4.24,19.79a2.14,2.14,0,0,1-1.39,1.63,2.06,2.06,0,0,1-2.05-.36c-1.5-1.24-2.36-1.4-2.6-1.32s-.44.41-.64,1.42c-.86,4.34,2.34,7.65,3.76,8.88a2.29,2.29,0,0,1,.77,2.08c-2.27,15-1.24,18.48-.69,19.3a1.5,1.5,0,1,1-2.49,1.67c-1.05-1.57-2.18-5.47.16-21-1.93-1.75-5.57-5.89-4.45-11.48.39-2,1.25-3.18,2.58-3.65s2.7-.12,4.36,1c2.1-10.7,4.31-19.87,4.33-20l.34-1.37,47.2,8.33-.28,1.49c0,.1-1.91,10.29-4.32,21.5-.06.25-6.76,27.51-8.48,30.12a9.09,9.09,0,0,1-4.43,3.34C300.5,1363.57,299.06,1364,295.61,1364Z"/><path class="cls-3" d="M283.28,1329.81a2,2,0,0,1-.34,0,1.51,1.51,0,0,1-1.13-1.8l.21-.91a1.5,1.5,0,1,1,2.92.67l-.2.91A1.5,1.5,0,0,1,283.28,1329.81Z"/><path class="cls-3" d="M302.35,1333.13a1.32,1.32,0,0,1-.28,0,1.51,1.51,0,0,1-1.2-1.75l.2-1.08a1.5,1.5,0,1,1,2.95.55l-.2,1.08A1.49,1.49,0,0,1,302.35,1333.13Z"/><path class="cls-3" d="M277.85,1322.35a1.5,1.5,0,0,1-.35-3,32.05,32.05,0,0,1,11.65-.79,1.5,1.5,0,0,1-.48,3h0a29.79,29.79,0,0,0-10.46.75A1.47,1.47,0,0,1,277.85,1322.35Z"/><path class="cls-3" d="M280.09,1294.38s-19.78-8.78-18.44,19.86c.77,16.38-3.15-5.26,16.66-13.67C280.37,1299.69,280.09,1294.38,280.09,1294.38Z"/><path class="cls-3" d="M293.31,1342.86a1.5,1.5,0,0,1-.21-3,11,11,0,0,0,3.78-1.12c0-1-.35-4.08-.65-6.39-.75-6-1-8.73-.55-10a2.76,2.76,0,0,1,2.17-1.64c2.8-.61,8.42,1,11.48,3.94a1.5,1.5,0,0,1-2.08,2.16c-2.63-2.54-7.52-3.58-8.81-3.17a70.11,70.11,0,0,0,.77,8.29c.69,5.41.83,7,.5,7.87-.73,2-4.19,2.71-6.2,3Z"/><path class="cls-3" d="M272.33,1305.58s27.9,14.42,43.35,6.66-5.73-12.4-18.78-13.64S265.39,1296.41,272.33,1305.58Z"/><path class="cls-3" d="M282.79,1296s-18.83-8.84-18.12,18.7c.41,15.75-2.92-5.11,16.28-12.8C282.94,1301.06,282.79,1296,282.79,1296Z"/><polygon class="cls-1" points="262.28 1385.13 257.53 1407.94 297.82 1410.07 318.2 1393.58 303.74 1378.01 294.3 1382.13 262.28 1385.13"/><path class="cls-1" d="M423.78,1462.91c6-1.4,10.58-6.77,19.25-4.13,4.19,1.28,22.48,0,17-3.2s-22.51-9.07-22.51-9.07l-14.32,4.86-11.13-1.47-7.6,20.52S417.82,1464.3,423.78,1462.91Z"/><path class="cls-3" d="M401.83,1473.29l9.27-25,12,1.57,14.48-4.91.48.17c.7.24,17.26,5.91,22.79,9.2,2.15,1.29,1.8,2.73,1.56,3.29-1.58,3.57-16.5,3.64-19.79,2.64-5.36-1.63-8.93.08-12.71,1.89a28,28,0,0,1-5.75,2.26h0c-5.74,1.34-18.87,7.35-19,7.42Zm11.26-21.74-5.95,16c4.38-1.93,12.05-5.16,16.3-6.15a26.12,26.12,0,0,0,5.15-2c3.93-1.89,8.4-4,14.88-2.06,2.91.88,12.3.35,15.41-.71-5.11-2.87-18.62-7.6-21.34-8.55l-14.17,4.81Zm10.69,11.36h0Z"/><polygon class="cls-4" points="509.02 1475.47 467.26 1543.03 395.32 1543.03 432.02 1475.47 509.02 1475.47"/><path class="cls-3" d="M468.1,1544.53H392.8L431.13,1474h80.58Zm-70.26-3h68.59l39.9-64.56H432.92Z"/><path class="cls-1" d="M413.79,1533a1.46,1.46,0,0,1-.7-.18,1.5,1.5,0,0,1-.62-2l25.53-47.5a1.5,1.5,0,0,1,2.65,1.42l-25.53,47.5A1.51,1.51,0,0,1,413.79,1533Z"/><path class="cls-1" d="M371.25,1538.46l13.42,5.09s3.19,8.68,5.76,10c5.31,2.74,22.12-2.12,23.29-5.34s-12-16.6-12-16.6,6.39-3.68,7.65-4.89c.28-.27-3.46-3.81-5-4.31-2-.67-7.42.24-7.42.24l-21.47,1.92Z"/><path class="cls-3" d="M394.93,1555.84a11.66,11.66,0,0,1-5.19-1c-2.62-1.35-5.2-7.48-6.23-10.17l-14.11-5.35,4.94-16.19,22.42-2c1.09-.18,5.86-.91,8.08-.18,1.64.55,5.67,4,6,5.34l.19.82-.62.66a49.85,49.85,0,0,1-6.28,4.14c5.17,5.37,12.23,13.5,11,16.78-.19.54-.79,2.18-6,4.23A43.41,43.41,0,0,1,394.93,1555.84Zm-21.84-18.29,12.76,4.84.23.65c1.44,3.91,3.77,8.53,5,9.18,2.43,1.25,9,.63,15.2-1.45,4.4-1.47,5.85-2.75,6-3.09.13-1.53-5.21-8.44-11.7-15l-1.37-1.39,1.69-1c1.85-1.06,4.7-2.77,6.31-3.87a15.29,15.29,0,0,0-3.35-2.61c-1.16-.38-4.61-.06-6.7.3h-.11L376.62,1526Z"/><path class="cls-7" d="M257.11,1382.38c6.36-1.58,29.34,17.58,41.72,14.08,3.75-1.06,6.85-9.12,8.18-13.2,6-18.37,37.86,58.17,48.66,60.63l61.23-2.66-.72,27.65-51.4,8.85a22.29,22.29,0,0,1,6.47,10.45c.44,1.79-86.7,70.52-87.93,69.15C209.32,1474.7,228.09,1389.56,257.11,1382.38Z"/><path class="cls-7" d="M275,1394.05c19.29.85-.71,78.51,40.09,92.59,42.65,14.73,73.13,29.82,72.8,31.38,0,0-14.73,28.22-15.27,28.79,0,0-36-10.15-87.5-25.76-21.45-6.51-34.73-44.46-41.85-72.52C239.25,1432.61,256.56,1393.23,275,1394.05Z"/><path class="cls-3" d="M314.9,1531.49a1.33,1.33,0,0,1-.43-.07c-9.91-3-19.92-6-29.76-8.94-21.65-6.57-35.26-43.64-42.87-73.58a1.5,1.5,0,0,1,2.91-.74c7.42,29.19,20.52,65.29,40.84,71.45,9.82,3,19.83,6,29.74,8.94a1.5,1.5,0,0,1-.43,2.94Z"/><path class="cls-3" d="M373.7,1546.48a1.46,1.46,0,0,1-.7-.18,1.49,1.49,0,0,1-.63-2l13.72-26c-4.5-3.2-32.1-16.61-71.46-30.2-21.51-7.42-26.92-31.55-29.56-56.52a1.5,1.5,0,0,1,3-.32c2.36,22.34,6.63,46.79,27.55,54,25,8.63,43.72,16.66,52.64,20.67,21.7,9.76,21.39,11.24,21.13,12.43l0,.2L375,1545.68A1.48,1.48,0,0,1,373.7,1546.48Zm12.95-27.77h0Z"/><path class="cls-3" d="M362.75,1476.46a1.5,1.5,0,0,1-1.21-.62l-46.71-64.09a1.49,1.49,0,0,1,.32-2.09,1.51,1.51,0,0,1,2.1.32L364,1474.07a1.51,1.51,0,0,1-.33,2.1A1.55,1.55,0,0,1,362.75,1476.46Z"/><polygon class="cls-1" points="295.99 1381.4 293 1393.18 254.33 1389.48 257.27 1377.64 295.99 1381.4"/><polygon class="cls-1" points="295.99 1381.4 302.63 1389.01 315.31 1380.02 305.07 1372.67 295.99 1381.4"/><path class="cls-3" d="M317.89,1380l-12.95-9.3-9.49,9.11L256.13,1376l-3.68,14.78,41.69,4,2.6-10.25,5.65,6.48Zm-26,11.53-35.66-3.41,2.21-8.89,35.7,3.47Zm13.35-16.94,7.52,5.4-9.86,7-4.81-5.51Z"/><path class="cls-3" d="M285.25,1343.6c-.94.8,1.52,5.11,5.51,6,6.52,1.51,9.75-2.35,8.1-2.47a19.93,19.93,0,0,1-7.23-.35C287.44,1345.76,285.88,1343.07,285.25,1343.6Z"/><path class="cls-1" d="M462.63,1509.25a6.74,6.74,0,1,1-6.74-6.73A6.73,6.73,0,0,1,462.63,1509.25Z"/><path class="cls-3" d="M455.89,1517.48a8.23,8.23,0,1,1,8.24-8.23A8.24,8.24,0,0,1,455.89,1517.48Zm0-13.46a5.23,5.23,0,1,0,5.24,5.23A5.23,5.23,0,0,0,455.89,1504Z"/><path class="cls-3" d="M1852.66,1719H144.38a1.5,1.5,0,0,1,0-3H1852.66a1.5,1.5,0,0,1,0,3Z"/></svg>